<svg width="24" height="24" viewBox="0 0 24 24" fill="none" xmlns="http://www.w3.org/2000/svg">
<mask id="mask0_1_721" style="mask-type:alpha" maskUnits="userSpaceOnUse" x="0" y="0" width="24" height="24">
<rect width="24" height="24" fill="#D9D9D9"/>
</mask>
<g mask="url(#mask0_1_721)">
<path d="M13.5593 20.1396L6.23894 12.8409C6.15206 12.7541 6.09065 12.6599 6.05474 12.5586C6.01825 12.4572 6 12.3486 6 12.2327C6 12.1169 6.01825 12.0083 6.05474 11.9069C6.09065 11.8055 6.15206 11.7114 6.23894 11.6245L13.5593 4.30411C13.7621 4.10137 14.0155 4 14.3196 4C14.6237 4 14.8844 4.10861 15.1016 4.32583C15.3188 4.54306 15.4274 4.79648 15.4274 5.08611C15.4274 5.37574 15.3188 5.62917 15.1016 5.84639L8.71528 12.2327L15.1016 18.6191C15.3043 18.8218 15.4057 19.0715 15.4057 19.368C15.4057 19.6652 15.2971 19.9224 15.0799 20.1396C14.8627 20.3568 14.6092 20.4654 14.3196 20.4654C14.03 20.4654 13.7766 20.3568 13.5593 20.1396Z" fill="#543B3A"/>
</g>
</svg>
