<svg width="14" height="14" viewBox="0 0 14 14" fill="none" xmlns="http://www.w3.org/2000/svg">
<path d="M7 0C3.143 0 0 3.143 0 7C0 10.857 3.143 14 7 14C10.857 14 14 10.857 14 7C14 3.143 10.857 0 7 0ZM10.045 9.499C9.947 9.667 9.772 9.758 9.59 9.758C9.499 9.758 9.408 9.737 9.324 9.681L7.154 8.386C6.615 8.064 6.216 7.357 6.216 6.734V3.864C6.216 3.577 6.454 3.339 6.741 3.339C7.028 3.339 7.266 3.577 7.266 3.864V6.734C7.266 6.986 7.476 7.357 7.693 7.483L9.863 8.778C10.115 8.925 10.199 9.247 10.045 9.499Z" fill="#543B3A"/>
</svg>
