<svg width="14" height="12" viewBox="0 0 14 12" fill="none" xmlns="http://www.w3.org/2000/svg">
<path d="M13.2789 8.80593C13.1109 10.6749 11.7599 11.8999 9.79989 11.8999H3.49996C1.56798 11.8999 0 10.3319 0 8.39994V3.49999C0 1.59601 1.14799 0.266028 2.93297 0.04203C3.11497 0.0140303 3.30396 3.05176e-05 3.49996 3.05176e-05H9.79989C9.98189 3.05176e-05 10.1569 0.00703041 10.3249 0.0350301C11.9979 0.231028 13.1319 1.40002 13.2789 3.094C13.2999 3.29699 13.1319 3.46499 12.9289 3.46499H11.8439C11.1719 3.46499 10.5489 3.72399 10.1009 4.18599C9.5689 4.70398 9.3029 5.43197 9.3659 6.15996C9.4779 7.43395 10.5979 8.43494 11.9279 8.43494H12.9289C13.1319 8.43494 13.2999 8.60294 13.2789 8.80593Z" fill="#543B3A"/>
<path d="M13.9995 5.22889V6.67087C13.9995 7.05587 13.6915 7.37086 13.2995 7.38486H11.9276C11.1716 7.38486 10.4786 6.83187 10.4156 6.07588C10.3736 5.63488 10.5416 5.22189 10.8356 4.93489C11.0946 4.66889 11.4516 4.51489 11.8436 4.51489H13.2995C13.6915 4.52889 13.9995 4.84389 13.9995 5.22889Z" fill="#543B3A"/>
</svg>
