<svg width="24" height="24" viewBox="0 0 24 24" fill="none" xmlns="http://www.w3.org/2000/svg">
<mask id="mask0_350_993" style="mask-type:alpha" maskUnits="userSpaceOnUse" x="0" y="0" width="24" height="24">
<rect width="24" height="24" fill="#D9D9D9"/>
</mask>
<g mask="url(#mask0_350_993)">
<path d="M17.5 21C16.75 21 16.1125 20.7375 15.5875 20.2125C15.0625 19.6875 14.8 19.05 14.8 18.3C14.8 18.195 14.8075 18.0861 14.8225 17.9733C14.8375 17.8611 14.86 17.76 14.89 17.67L8.545 13.98C8.29 14.205 8.005 14.3811 7.69 14.5083C7.375 14.6361 7.045 14.7 6.7 14.7C5.95 14.7 5.3125 14.4375 4.7875 13.9125C4.2625 13.3875 4 12.75 4 12C4 11.25 4.2625 10.6125 4.7875 10.0875C5.3125 9.5625 5.95 9.3 6.7 9.3C7.045 9.3 7.375 9.3636 7.69 9.4908C8.005 9.6186 8.29 9.795 8.545 10.02L14.89 6.33C14.86 6.24 14.8375 6.1389 14.8225 6.0267C14.8075 5.9139 14.8 5.805 14.8 5.7C14.8 4.95 15.0625 4.3125 15.5875 3.7875C16.1125 3.2625 16.75 3 17.5 3C18.25 3 18.8875 3.2625 19.4125 3.7875C19.9375 4.3125 20.2 4.95 20.2 5.7C20.2 6.45 19.9375 7.0875 19.4125 7.6125C18.8875 8.1375 18.25 8.4 17.5 8.4C17.155 8.4 16.825 8.3361 16.51 8.2083C16.195 8.0811 15.91 7.905 15.655 7.68L9.31 11.37C9.34 11.46 9.3625 11.5611 9.3775 11.6733C9.3925 11.7861 9.4 11.895 9.4 12C9.4 12.105 9.3925 12.2136 9.3775 12.3258C9.3625 12.4386 9.34 12.54 9.31 12.63L15.655 16.32C15.91 16.095 16.195 15.9186 16.51 15.7908C16.825 15.6636 17.155 15.6 17.5 15.6C18.25 15.6 18.8875 15.8625 19.4125 16.3875C19.9375 16.9125 20.2 17.55 20.2 18.3C20.2 19.05 19.9375 19.6875 19.4125 20.2125C18.8875 20.7375 18.25 21 17.5 21ZM17.5 6.6C17.755 6.6 17.9686 6.5139 18.1408 6.3417C18.3136 6.1689 18.4 5.955 18.4 5.7C18.4 5.445 18.3136 5.2311 18.1408 5.0583C17.9686 4.8861 17.755 4.8 17.5 4.8C17.245 4.8 17.0314 4.8861 16.8592 5.0583C16.6864 5.2311 16.6 5.445 16.6 5.7C16.6 5.955 16.6864 6.1689 16.8592 6.3417C17.0314 6.5139 17.245 6.6 17.5 6.6ZM6.7 12.9C6.955 12.9 7.1689 12.8136 7.3417 12.6408C7.5139 12.4686 7.6 12.255 7.6 12C7.6 11.745 7.5139 11.5311 7.3417 11.3583C7.1689 11.1861 6.955 11.1 6.7 11.1C6.445 11.1 6.2311 11.1861 6.0583 11.3583C5.8861 11.5311 5.8 11.745 5.8 12C5.8 12.255 5.8861 12.4686 6.0583 12.6408C6.2311 12.8136 6.445 12.9 6.7 12.9ZM17.5 19.2C17.755 19.2 17.9686 19.1136 18.1408 18.9408C18.3136 18.7686 18.4 18.555 18.4 18.3C18.4 18.045 18.3136 17.8314 18.1408 17.6592C17.9686 17.4864 17.755 17.4 17.5 17.4C17.245 17.4 17.0314 17.4864 16.8592 17.6592C16.6864 17.8314 16.6 18.045 16.6 18.3C16.6 18.555 16.6864 18.7686 16.8592 18.9408C17.0314 19.1136 17.245 19.2 17.5 19.2Z" fill="white"/>
</g>
</svg>
