<svg width="12" height="17" viewBox="0 0 12 17" fill="none" xmlns="http://www.w3.org/2000/svg">
<path d="M6.10223 0.818176C3.03037 0.818176 0.545898 3.30265 0.545898 6.37451C0.545898 9.6845 4.05433 14.2486 5.49897 15.987C5.81648 16.368 6.39593 16.368 6.71343 15.987C8.15014 14.2486 11.6586 9.6845 11.6586 6.37451C11.6586 3.30265 9.17409 0.818176 6.10223 0.818176ZM6.10223 8.35891C5.00684 8.35891 4.11783 7.4699 4.11783 6.37451C4.11783 5.27912 5.00684 4.3901 6.10223 4.3901C7.19763 4.3901 8.08664 5.27912 8.08664 6.37451C8.08664 7.4699 7.19763 8.35891 6.10223 8.35891Z" fill="#543B3A"/>
</svg>
