<svg width="13" height="21" viewBox="0 0 13 21" fill="none" xmlns="http://www.w3.org/2000/svg">
<path fill-rule="evenodd" clip-rule="evenodd" d="M7.35004 6.825L7.35004 15.225C7.35004 15.6599 7.70262 16.0125 8.13754 16.0125C8.57247 16.0125 8.92504 15.6599 8.92504 15.225V6.99825C8.92494 6.90694 8.90895 6.81634 8.87779 6.7305C8.78854 6.4785 8.09554 4.2 6.30004 4.2C4.76704 4.2 3.87979 5.8905 3.67504 6.825V6.97725L3.67504 14.7157C3.67504 14.8418 3.57004 17.8133 5.21854 19.53C6.05139 20.4097 7.19031 20.936 8.40004 21C9.66529 21 10.437 20.328 11.214 19.5142C12.6998 17.9392 12.6 15.4822 12.6 15.414L12.6 6.3315C12.6 4.053 11.1458 0 6.82504 0C4.65679 0 3.06079 0.37275 1.83754 1.6275C0.675409 2.9086 0.0218706 4.57046 4.29153e-05 6.3L4.29153e-05 16.8C4.29153e-05 17.2349 0.352618 17.5875 0.787542 17.5875C1.22247 17.5875 1.57504 17.2349 1.57504 16.8L1.57504 6.3315C1.58774 5.00064 2.08196 3.71939 2.96629 2.72475C3.87979 1.785 5.09779 1.575 6.82504 1.575C10.689 1.575 11.025 6.16875 11.025 6.3525V15.456C11.025 15.456 11.0828 17.3723 10.0748 18.4328C9.60229 18.9263 9.23479 19.4303 8.40004 19.4303C7.62501 19.3694 6.89883 19.0278 6.35779 18.4695C5.17654 17.241 5.25004 14.8313 5.25004 14.7945L5.25004 6.825C5.33404 6.489 5.81179 5.775 6.30004 5.775C6.78829 5.775 7.14529 6.34725 7.35004 6.825Z" fill="#503C3B"/>
</svg>
