<svg width="28" height="26" viewBox="0 0 28 26" fill="none" xmlns="http://www.w3.org/2000/svg">
<path fill-rule="evenodd" clip-rule="evenodd" d="M26.8796 10.5904L15.3773 0.832356C14.6946 0.253635 13.6936 0.253635 13.0109 0.832356L1.5086 10.5904C0.937406 11.0771 0.721291 11.8632 0.96343 12.5735C1.20557 13.2838 1.85686 13.7742 2.60639 13.8106V23.5687C2.60639 24.5792 3.42555 25.3983 4.43603 25.3983H23.9522C24.9627 25.3983 25.7818 24.5792 25.7818 23.5687V13.8167C26.5313 13.7803 27.1826 13.2899 27.4248 12.5796C27.6669 11.8693 27.4508 11.0832 26.8796 10.5965V10.5904ZM13.5842 23.5748H12.3645V18.0859H16.0237V23.5748H13.5842ZM23.9522 11.9871V23.5748H17.8534V18.0859C17.8534 17.0754 17.0342 16.2562 16.0237 16.2562H12.3645C11.354 16.2562 10.5348 17.0754 10.5348 18.0859V23.5748H4.43603V11.9871H2.69177L14.1941 2.22898L25.6964 11.9871H23.9522Z" fill="#503C3B"/>
<path d="M26.8796 10.5904H27.0796V10.4978L27.009 10.4379L26.8796 10.5904ZM15.3773 0.832356L15.5067 0.679844L15.5066 0.679801L15.3773 0.832356ZM13.0109 0.832356L12.8816 0.679801L12.8816 0.679844L13.0109 0.832356ZM1.5086 10.5904L1.37922 10.4379L1.3789 10.4382L1.5086 10.5904ZM2.60639 13.8106H2.80639V13.6201L2.6161 13.6108L2.60639 13.8106ZM25.7818 13.8167L25.7721 13.6169L25.5818 13.6262V13.8167H25.7818ZM26.8796 10.5965H26.6796V10.6889L26.7499 10.7488L26.8796 10.5965ZM12.3645 23.5748H12.1645V23.7748H12.3645V23.5748ZM12.3645 18.0859V17.8859H12.1645V18.0859H12.3645ZM16.0237 18.0859H16.2237V17.8859H16.0237V18.0859ZM16.0237 23.5748V23.7748H16.2237V23.5748H16.0237ZM23.9522 11.9871V11.7871H23.7522V11.9871H23.9522ZM23.9522 23.5748V23.7748H24.1522V23.5748H23.9522ZM17.8534 23.5748H17.6534V23.7748H17.8534V23.5748ZM10.5348 23.5748V23.7748H10.7348V23.5748H10.5348ZM4.43603 23.5748H4.23603V23.7748H4.43603V23.5748ZM4.43603 11.9871H4.63603V11.7871H4.43603V11.9871ZM2.69177 11.9871L2.56239 11.8345L2.14686 12.1871H2.69177V11.9871ZM14.1941 2.22898L14.3235 2.07647L14.1941 1.96671L14.0647 2.07647L14.1941 2.22898ZM25.6964 11.9871V12.1871H26.2413L25.8258 11.8345L25.6964 11.9871ZM27.009 10.4379L15.5067 0.679844L15.2479 0.984867L26.7502 10.7429L27.009 10.4379ZM15.5066 0.679801C14.7494 0.0378202 13.6389 0.0378202 12.8816 0.679801L13.1403 0.98491C13.7483 0.46945 14.6399 0.46945 15.2479 0.98491L15.5066 0.679801ZM12.8816 0.679844L1.37922 10.4379L1.63799 10.7429L13.1403 0.984867L12.8816 0.679844ZM1.3789 10.4382C0.74526 10.9781 0.505521 11.8501 0.774128 12.638L1.15273 12.509C0.937062 11.8763 1.12955 11.1761 1.63831 10.7427L1.3789 10.4382ZM0.774128 12.638C1.04273 13.4259 1.76522 13.97 2.59668 14.0104L2.6161 13.6108C1.9485 13.5784 1.3684 13.1416 1.15273 12.509L0.774128 12.638ZM2.40639 13.8106V23.5687H2.80639V13.8106H2.40639ZM2.40639 23.5687C2.40639 24.6896 3.31509 25.5983 4.43603 25.5983V25.1983C3.536 25.1983 2.80639 24.4687 2.80639 23.5687H2.40639ZM4.43603 25.5983H23.9522V25.1983H4.43603V25.5983ZM23.9522 25.5983C25.0731 25.5983 25.9818 24.6896 25.9818 23.5687H25.5818C25.5818 24.4687 24.8522 25.1983 23.9522 25.1983V25.5983ZM25.9818 23.5687V13.8167H25.5818V23.5687H25.9818ZM25.7915 14.0165C26.623 13.9761 27.3455 13.432 27.6141 12.6441L27.2355 12.5151C27.0198 13.1477 26.4397 13.5845 25.7721 13.6169L25.7915 14.0165ZM27.6141 12.6441C27.8827 11.8562 27.6429 10.9842 27.0093 10.4443L26.7499 10.7488C27.2587 11.1822 27.4511 11.8824 27.2355 12.5151L27.6141 12.6441ZM27.0796 10.5965V10.5904H26.6796V10.5965H27.0796ZM13.5842 23.3748H12.3645V23.7748H13.5842V23.3748ZM12.5645 23.5748V18.0859H12.1645V23.5748H12.5645ZM12.3645 18.2859H16.0237V17.8859H12.3645V18.2859ZM15.8237 18.0859V23.5748H16.2237V18.0859H15.8237ZM16.0237 23.3748H13.5842V23.7748H16.0237V23.3748ZM23.7522 11.9871V23.5748H24.1522V11.9871H23.7522ZM23.9522 23.3748H17.8534V23.7748H23.9522V23.3748ZM18.0534 23.5748V18.0859H17.6534V23.5748H18.0534ZM18.0534 18.0859C18.0534 16.9649 17.1447 16.0562 16.0237 16.0562V16.4562C16.9238 16.4562 17.6534 17.1858 17.6534 18.0859H18.0534ZM16.0237 16.0562H12.3645V16.4562H16.0237V16.0562ZM12.3645 16.0562C11.2435 16.0562 10.3348 16.9649 10.3348 18.0859H10.7348C10.7348 17.1858 11.4644 16.4562 12.3645 16.4562V16.0562ZM10.3348 18.0859V23.5748H10.7348V18.0859H10.3348ZM10.5348 23.3748H4.43603V23.7748H10.5348V23.3748ZM4.63603 23.5748V11.9871H4.23603V23.5748H4.63603ZM4.43603 11.7871H2.69177V12.1871H4.43603V11.7871ZM2.82115 12.1396L14.3235 2.38149L14.0647 2.07647L2.56239 11.8345L2.82115 12.1396ZM14.0647 2.38149L25.5671 12.1396L25.8258 11.8345L14.3235 2.07647L14.0647 2.38149ZM25.6964 11.7871H23.9522V12.1871H25.6964V11.7871Z" fill="#503C3B"/>
</svg>
