<svg width="39" height="19" viewBox="0 0 39 19" fill="none" xmlns="http://www.w3.org/2000/svg">
<path fill-rule="evenodd" clip-rule="evenodd" d="M30.1783 0.347839C28.1819 0.347839 25.8665 1.58329 22.8719 4.24238C21.6942 5.29349 20.5718 6.40499 19.5092 7.57238L17.7992 9.34784C17.7992 9.34784 12.0228 15.8933 8.79919 15.8933C5.57555 15.8933 3.07192 12.9642 3.07192 9.34784C3.07192 5.73148 5.65737 2.80238 8.79919 2.80238C10.8119 2.80238 13.8474 5.4042 15.8192 7.32693L17.5619 5.5842C15.2301 3.29329 11.6792 0.347839 8.79919 0.347839C4.26646 0.347839 0.617371 4.38148 0.617371 9.34784C0.617371 14.3142 4.30737 18.3478 8.79919 18.3478C10.7956 18.3478 13.111 17.1124 16.1056 14.4533C17.2833 13.4022 18.4057 12.2907 19.4683 11.1233L21.1701 9.34784C21.1701 9.34784 26.9465 2.80238 30.1701 2.80238C33.3937 2.80238 35.8974 5.73148 35.8974 9.34784C35.8974 12.9642 33.3119 15.8933 30.1701 15.8933C28.1656 15.8933 25.1219 13.2915 23.1583 11.3687L21.4401 13.1442C23.7719 15.4269 27.3065 18.3478 30.1783 18.3478C34.711 18.3478 38.3601 14.3142 38.3601 9.34784C38.3601 4.38148 34.711 0.347839 30.1783 0.347839Z" fill="#503C3B"/>
</svg>
