<svg width="20" height="21" viewBox="0 0 20 21" fill="none" xmlns="http://www.w3.org/2000/svg">
<path fill-rule="evenodd" clip-rule="evenodd" d="M18.521 9.10172L2.64292 0.394398C2.16699 0.133993 1.58902 0.143853 1.12225 0.42034C0.65548 0.696827 0.369101 1.19896 0.368774 1.74147V19.1561C0.369101 19.6986 0.65548 20.2008 1.12225 20.4772C1.58902 20.7537 2.16699 20.7636 2.64292 20.5032L18.521 11.7959C19.0127 11.526 19.3183 11.0097 19.3183 10.4488C19.3183 9.88789 19.0127 9.37156 18.521 9.10172ZM1.90536 19.1561V11.4732H8.5639C8.98821 11.4732 9.33219 11.1292 9.33219 10.7049C9.33219 10.2806 8.98821 9.93659 8.5639 9.93659H1.90536V1.74147L17.7834 10.4488L1.90536 19.1561Z" fill="#543B3A"/>
</svg>
