<svg width="21" height="22" viewBox="0 0 21 22" fill="none" xmlns="http://www.w3.org/2000/svg">
<path fill-rule="evenodd" clip-rule="evenodd" d="M17.1232 13.8152C15.956 13.8159 14.8516 14.3437 14.118 15.2515L7.61021 11.9976C7.78259 11.335 7.77114 10.6379 7.57707 9.98123L14.2063 6.3959C15.4971 7.88983 17.7059 8.17158 19.3304 7.04951C20.9548 5.92743 21.4731 3.76186 20.5328 2.02588C19.5925 0.289904 17.4955 -0.459 15.6682 0.288597C13.8409 1.03619 12.8702 3.04021 13.4164 4.93746L6.78708 8.52279C5.72132 7.29534 4.00171 6.86544 2.48372 7.44695C0.965721 8.02846 -0.0265479 9.49723 0.000541073 11.1226C0.0276301 12.7479 1.06829 14.1828 2.60482 14.7134C4.14136 15.244 5.84568 14.757 6.86994 13.4948L13.3777 16.7486C12.9742 18.3503 13.6326 20.0315 15.0164 20.9332C16.4003 21.835 18.2042 21.7582 19.5064 20.7421C20.8087 19.7261 21.3218 17.995 20.7837 16.4334C20.2456 14.8718 18.775 13.8243 17.1232 13.8262V13.8152ZM17.1232 1.66149C18.3436 1.66149 19.333 2.65083 19.333 3.87125C19.333 5.09167 18.3436 6.08101 17.1232 6.08101C15.9028 6.08101 14.9135 5.09167 14.9135 3.87125C14.9135 2.65083 15.9028 1.66149 17.1232 1.66149ZM3.86467 13.2627C2.64425 13.2627 1.65491 12.2734 1.65491 11.053C1.65491 9.83255 2.64425 8.84321 3.86467 8.84321C5.08509 8.84321 6.07443 9.83255 6.07443 11.053C6.07443 12.2734 5.08509 13.2627 3.86467 13.2627ZM17.1232 19.892C15.9028 19.892 14.9135 18.9027 14.9135 17.6822C14.9135 16.4618 15.9028 15.4725 17.1232 15.4725C18.3436 15.4725 19.333 16.4618 19.333 17.6822C19.333 18.9027 18.3436 19.892 17.1232 19.892Z" fill="#503C3B"/>
</svg>
