<svg width="500" height="500" viewBox="0 0 500 500" fill="none" xmlns="http://www.w3.org/2000/svg">
<rect width="500" height="500" rx="100" fill="white"/>
<path d="M250 439.815C354.832 439.815 439.815 354.832 439.815 250C439.815 145.168 354.832 60.1853 250 60.1853C145.168 60.1853 60.1853 145.168 60.1853 250C60.1853 354.832 145.168 439.815 250 439.815Z" stroke="#6FA8B5" stroke-width="19"/>
<path d="M250 408.333C336.422 408.333 406.482 338.274 406.482 251.852C406.482 165.43 336.422 95.3704 250 95.3704C163.578 95.3704 93.5186 165.43 93.5186 251.852C93.5186 338.274 163.578 408.333 250 408.333Z" stroke="#6FA8B5" stroke-width="17"/>
<path d="M250 375.926C318.524 375.926 374.074 320.376 374.074 251.852C374.074 183.328 318.524 127.778 250 127.778C181.476 127.778 125.926 183.328 125.926 251.852C125.926 320.376 181.476 375.926 250 375.926Z" fill="black" fill-opacity="0.95" stroke="#6FA8B5" stroke-width="14"/>
<path d="M261.111 181.481C267.248 181.481 272.222 177.751 272.222 173.148C272.222 168.546 267.248 164.815 261.111 164.815C254.975 164.815 250 168.546 250 173.148C250 177.751 254.975 181.481 261.111 181.481Z" fill="#6FA8B5"/>
<path d="M288.889 194.444C292.98 194.444 296.296 192.372 296.296 189.815C296.296 187.258 292.98 185.185 288.889 185.185C284.798 185.185 281.481 187.258 281.481 189.815C281.481 192.372 284.798 194.444 288.889 194.444Z" fill="#6FA8B5"/>
<path d="M309.259 203.704C311.305 203.704 312.963 202.46 312.963 200.926C312.963 199.392 311.305 198.148 309.259 198.148C307.214 198.148 305.556 199.392 305.556 200.926C305.556 202.46 307.214 203.704 309.259 203.704Z" fill="#6FA8B5"/>
</svg>
