<svg width="26" height="27" viewBox="0 0 26 27" fill="none" xmlns="http://www.w3.org/2000/svg">
<path fill-rule="evenodd" clip-rule="evenodd" d="M22.188 6.24803C20.1424 2.40289 16.1486 0.000641214 11.8003 2.60723e-05C7.03331 -0.00998047 2.73053 2.86117 0.90142 7.27263C-0.927693 11.6841 0.0777491 16.7655 3.4482 20.1438C6.81865 23.5221 11.8891 24.5307 16.2917 22.6987C17.0253 22.3934 17.7265 22.0152 18.3848 21.5697L22.6521 26.2737L25.9997 23.2075L21.5746 18.3732C23.9977 14.7551 24.2335 10.0932 22.188 6.24803ZM13.2896 11.777L14.6338 11.0115V11.003L15.4553 18.0589L9.72004 13.8189L11.1453 13.0064C11.2395 13.0539 11.3381 13.0919 11.4398 13.1197C12.2289 13.3244 13.036 12.8572 13.2534 12.0699C13.2749 11.9737 13.287 11.8756 13.2896 11.777ZM8.96686 12.5895L10.3367 11.809C10.3219 11.6388 10.3371 11.4673 10.3815 11.3023C10.6035 10.5236 11.4034 10.0631 12.1865 10.2632C12.3564 10.3059 12.5175 10.3783 12.6623 10.477L13.8934 9.78208L8.14541 5.54212L8.96686 12.5873V12.5895ZM5.88735 4.56412C9.59889 1.48865 15.0326 1.73404 18.453 5.1316C19.3321 6.00694 20.0303 7.04739 20.5077 8.19343C22.3576 12.6494 20.5348 17.785 16.2926 20.0696C12.0504 22.3543 6.77071 21.0437 4.08318 17.0388C1.39565 13.034 2.17582 7.63958 5.88735 4.56412Z" fill="#503C3B"/>
</svg>
