<svg width="28" height="26" viewBox="0 0 28 26" fill="none" xmlns="http://www.w3.org/2000/svg">
<path fill-rule="evenodd" clip-rule="evenodd" d="M26.8794 10.5904L15.377 0.832356C14.6944 0.253635 13.6933 0.253635 13.0107 0.832356L1.50836 10.5904C0.937162 11.0771 0.721047 11.8632 0.963186 12.5735C1.20532 13.2838 1.85662 13.7742 2.60614 13.8106V23.5687C2.60614 24.5792 3.4253 25.3983 4.43578 25.3983H23.9519C24.9624 25.3983 25.7816 24.5792 25.7816 23.5687V13.8167C26.5311 13.7803 27.1824 13.2899 27.4245 12.5796C27.6667 11.8693 27.4506 11.0832 26.8794 10.5965V10.5904ZM13.584 23.5748H12.3642V18.0859H16.0235V23.5748H13.584ZM23.9519 11.9871V23.5748H17.8531V18.0859C17.8531 17.0754 17.034 16.2562 16.0235 16.2562H12.3642C11.3537 16.2562 10.5346 17.0754 10.5346 18.0859V23.5748H4.43578V11.9871H2.69153L14.1939 2.22898L25.6962 11.9871H23.9519Z" fill="#503C3B"/>
<path d="M26.8794 10.5904H27.0794V10.4978L27.0087 10.4379L26.8794 10.5904ZM15.377 0.832356L15.5064 0.679844L15.5064 0.679801L15.377 0.832356ZM13.0107 0.832356L12.8814 0.679801L12.8813 0.679844L13.0107 0.832356ZM1.50836 10.5904L1.37898 10.4379L1.37865 10.4382L1.50836 10.5904ZM2.60614 13.8106H2.80614V13.6201L2.61585 13.6108L2.60614 13.8106ZM25.7816 13.8167L25.7719 13.6169L25.5816 13.6262V13.8167H25.7816ZM26.8794 10.5965H26.6794V10.6889L26.7497 10.7488L26.8794 10.5965ZM12.3642 23.5748H12.1642V23.7748H12.3642V23.5748ZM12.3642 18.0859V17.8859H12.1642V18.0859H12.3642ZM16.0235 18.0859H16.2235V17.8859H16.0235V18.0859ZM16.0235 23.5748V23.7748H16.2235V23.5748H16.0235ZM23.9519 11.9871V11.7871H23.7519V11.9871H23.9519ZM23.9519 23.5748V23.7748H24.1519V23.5748H23.9519ZM17.8531 23.5748H17.6531V23.7748H17.8531V23.5748ZM10.5346 23.5748V23.7748H10.7346V23.5748H10.5346ZM4.43578 23.5748H4.23578V23.7748H4.43578V23.5748ZM4.43578 11.9871H4.63578V11.7871H4.43578V11.9871ZM2.69153 11.9871L2.56214 11.8345L2.14662 12.1871H2.69153V11.9871ZM14.1939 2.22898L14.3232 2.07647L14.1939 1.96671L14.0645 2.07647L14.1939 2.22898ZM25.6962 11.9871V12.1871H26.2411L25.8256 11.8345L25.6962 11.9871ZM27.0087 10.4379L15.5064 0.679844L15.2476 0.984867L26.75 10.7429L27.0087 10.4379ZM15.5064 0.679801C14.7491 0.0378202 13.6386 0.0378202 12.8814 0.679801L13.14 0.98491C13.748 0.46945 14.6397 0.46945 15.2477 0.98491L15.5064 0.679801ZM12.8813 0.679844L1.37898 10.4379L1.63774 10.7429L13.1401 0.984867L12.8813 0.679844ZM1.37865 10.4382C0.745016 10.9781 0.505277 11.8501 0.773884 12.638L1.15249 12.509C0.936818 11.8763 1.12931 11.1761 1.63807 10.7427L1.37865 10.4382ZM0.773884 12.638C1.04249 13.4259 1.76498 13.97 2.59644 14.0104L2.61585 13.6108C1.94826 13.5784 1.36816 13.1416 1.15249 12.509L0.773884 12.638ZM2.40614 13.8106V23.5687H2.80614V13.8106H2.40614ZM2.40614 23.5687C2.40614 24.6896 3.31484 25.5983 4.43578 25.5983V25.1983C3.53576 25.1983 2.80614 24.4687 2.80614 23.5687H2.40614ZM4.43578 25.5983H23.9519V25.1983H4.43578V25.5983ZM23.9519 25.5983C25.0729 25.5983 25.9816 24.6896 25.9816 23.5687H25.5816C25.5816 24.4687 24.852 25.1983 23.9519 25.1983V25.5983ZM25.9816 23.5687V13.8167H25.5816V23.5687H25.9816ZM25.7913 14.0165C26.6227 13.9761 27.3452 13.432 27.6138 12.6441L27.2352 12.5151C27.0196 13.1477 26.4395 13.5845 25.7719 13.6169L25.7913 14.0165ZM27.6138 12.6441C27.8824 11.8562 27.6427 10.9842 27.0091 10.4443L26.7497 10.7488C27.2584 11.1822 27.4509 11.8824 27.2352 12.5151L27.6138 12.6441ZM27.0794 10.5965V10.5904H26.6794V10.5965H27.0794ZM13.584 23.3748H12.3642V23.7748H13.584V23.3748ZM12.5642 23.5748V18.0859H12.1642V23.5748H12.5642ZM12.3642 18.2859H16.0235V17.8859H12.3642V18.2859ZM15.8235 18.0859V23.5748H16.2235V18.0859H15.8235ZM16.0235 23.3748H13.584V23.7748H16.0235V23.3748ZM23.7519 11.9871V23.5748H24.1519V11.9871H23.7519ZM23.9519 23.3748H17.8531V23.7748H23.9519V23.3748ZM18.0531 23.5748V18.0859H17.6531V23.5748H18.0531ZM18.0531 18.0859C18.0531 16.9649 17.1444 16.0562 16.0235 16.0562V16.4562C16.9235 16.4562 17.6531 17.1858 17.6531 18.0859H18.0531ZM16.0235 16.0562H12.3642V16.4562H16.0235V16.0562ZM12.3642 16.0562C11.2433 16.0562 10.3346 16.9649 10.3346 18.0859H10.7346C10.7346 17.1858 11.4642 16.4562 12.3642 16.4562V16.0562ZM10.3346 18.0859V23.5748H10.7346V18.0859H10.3346ZM10.5346 23.3748H4.43578V23.7748H10.5346V23.3748ZM4.63578 23.5748V11.9871H4.23578V23.5748H4.63578ZM4.43578 11.7871H2.69153V12.1871H4.43578V11.7871ZM2.82091 12.1396L14.3232 2.38149L14.0645 2.07647L2.56214 11.8345L2.82091 12.1396ZM14.0645 2.38149L25.5668 12.1396L25.8256 11.8345L14.3232 2.07647L14.0645 2.38149ZM25.6962 11.7871H23.9519V12.1871H25.6962V11.7871Z" fill="#503C3B"/>
</svg>
