<svg width="20" height="23" viewBox="0 0 20 23" fill="none" xmlns="http://www.w3.org/2000/svg">
<path fill-rule="evenodd" clip-rule="evenodd" d="M18.5213 11.1017L2.64329 2.3944C2.16736 2.13399 1.58938 2.14385 1.12262 2.42034C0.655847 2.69683 0.369467 3.19896 0.369141 3.74147V21.1561C0.369467 21.6986 0.655847 22.2008 1.12262 22.4772C1.58938 22.7537 2.16736 22.7636 2.64329 22.5032L18.5213 13.7959C19.0131 13.526 19.3187 13.0097 19.3187 12.4488C19.3187 11.8879 19.0131 11.3716 18.5213 11.1017ZM1.90573 21.1561V13.4732H8.56426C8.98858 13.4732 9.33256 13.1292 9.33256 12.7049C9.33256 12.2806 8.98858 11.9366 8.56426 11.9366H1.90573V3.74147L17.7838 12.4488L1.90573 21.1561Z" fill="#543B3A"/>
<circle cx="9.50037" cy="5.5" r="5.5" fill="#FD4A40"/>
</svg>
