<svg width="13" height="21" viewBox="0 0 13 21" fill="none" xmlns="http://www.w3.org/2000/svg">
<path fill-rule="evenodd" clip-rule="evenodd" d="M7.35016 6.825L7.35016 15.225C7.35016 15.6599 7.70274 16.0125 8.13766 16.0125C8.57259 16.0125 8.92516 15.6599 8.92516 15.225V6.99825C8.92506 6.90694 8.90907 6.81634 8.87791 6.7305C8.78866 6.4785 8.09566 4.2 6.30016 4.2C4.76716 4.2 3.87991 5.8905 3.67516 6.825V6.97725L3.67516 14.7157C3.67516 14.8418 3.57016 17.8133 5.21866 19.53C6.05151 20.4097 7.19043 20.936 8.40016 21C9.66541 21 10.4372 20.328 11.2142 19.5142C12.6999 17.9392 12.6002 15.4822 12.6002 15.414L12.6002 6.3315C12.6002 4.053 11.1459 0 6.82516 0C4.65691 0 3.06091 0.37275 1.83766 1.6275C0.675531 2.9086 0.0219927 4.57046 0.000164986 6.3L0.000164986 16.8C0.000164986 17.2349 0.35274 17.5875 0.787664 17.5875C1.22259 17.5875 1.57516 17.2349 1.57516 16.8L1.57516 6.3315C1.58786 5.00064 2.08208 3.71939 2.96641 2.72475C3.87991 1.785 5.09791 1.575 6.82516 1.575C10.6892 1.575 11.0252 6.16875 11.0252 6.3525V15.456C11.0252 15.456 11.0829 17.3723 10.0749 18.4328C9.60241 18.9263 9.23491 19.4303 8.40016 19.4303C7.62513 19.3694 6.89895 19.0278 6.35791 18.4695C5.17666 17.241 5.25016 14.8313 5.25016 14.7945L5.25016 6.825C5.33416 6.489 5.81191 5.775 6.30016 5.775C6.78841 5.775 7.14541 6.34725 7.35016 6.825Z" fill="#503C3B"/>
</svg>
