<svg width="39" height="19" viewBox="0 0 39 19" fill="none" xmlns="http://www.w3.org/2000/svg">
<path fill-rule="evenodd" clip-rule="evenodd" d="M30.1781 0.347839C28.1817 0.347839 25.8662 1.58329 22.8717 4.24238C21.694 5.29349 20.5715 6.40499 19.509 7.57238L17.799 9.34784C17.799 9.34784 12.0226 15.8933 8.79896 15.8933C5.57532 15.8933 3.07169 12.9642 3.07169 9.34784C3.07169 5.73148 5.65714 2.80238 8.79896 2.80238C10.8117 2.80238 13.8471 5.4042 15.819 7.32693L17.5617 5.5842C15.2299 3.29329 11.679 0.347839 8.79896 0.347839C4.26623 0.347839 0.617142 4.38148 0.617142 9.34784C0.617142 14.3142 4.30714 18.3478 8.79896 18.3478C10.7953 18.3478 13.1108 17.1124 16.1053 14.4533C17.283 13.4022 18.4055 12.2907 19.4681 11.1233L21.1699 9.34784C21.1699 9.34784 26.9462 2.80238 30.1699 2.80238C33.3935 2.80238 35.8971 5.73148 35.8971 9.34784C35.8971 12.9642 33.3117 15.8933 30.1699 15.8933C28.1653 15.8933 25.1217 13.2915 23.1581 11.3687L21.4399 13.1442C23.7717 15.4269 27.3062 18.3478 30.1781 18.3478C34.7108 18.3478 38.3599 14.3142 38.3599 9.34784C38.3599 4.38148 34.7108 0.347839 30.1781 0.347839Z" fill="#503C3B"/>
</svg>
