<svg width="16" height="14" viewBox="0 0 16 14" fill="none" xmlns="http://www.w3.org/2000/svg">
<path d="M7.83137 11.7291L4.27853 13.8694C4.12158 13.9693 3.9575 14.0121 3.78627 13.9978C3.61505 13.9835 3.46523 13.9265 3.33682 13.8266C3.2084 13.7267 3.10852 13.602 3.03718 13.4525C2.96584 13.3024 2.95157 13.1346 2.99438 12.9491L3.93609 8.90399L0.789904 6.18585C0.64722 6.05744 0.558185 5.91104 0.522799 5.74667C0.486843 5.58287 0.497401 5.42249 0.554475 5.26554C0.611549 5.10858 0.697159 4.98017 0.811307 4.88029C0.925454 4.78041 1.08241 4.7162 1.28216 4.68767L5.43428 4.32382L7.03948 0.514152C7.11082 0.342931 7.22154 0.214515 7.37164 0.128904C7.52118 0.0432936 7.67442 0.000488281 7.83137 0.000488281C7.98833 0.000488281 8.14185 0.0432936 8.29196 0.128904C8.44149 0.214515 8.55193 0.342931 8.62327 0.514152L10.2285 4.32382L14.3806 4.68767C14.5803 4.7162 14.7373 4.78041 14.8514 4.88029C14.9656 4.98017 15.0512 5.10858 15.1083 5.26554C15.1653 5.42249 15.1762 5.58287 15.1408 5.74667C15.1048 5.91104 15.0155 6.05744 14.8728 6.18585L11.7267 8.90399L12.6684 12.9491C12.7112 13.1346 12.6969 13.3024 12.6256 13.4525C12.5542 13.602 12.4543 13.7267 12.3259 13.8266C12.1975 13.9265 12.0477 13.9835 11.8765 13.9978C11.7053 14.0121 11.5412 13.9693 11.3842 13.8694L7.83137 11.7291Z" fill="#543B3A"/>
</svg>
