<svg width="24" height="24" viewBox="0 0 24 24" fill="none" xmlns="http://www.w3.org/2000/svg">
<path d="M8.94127 16.9301L6.11125 14.1C5.17125 13.16 5.17125 12.21 6.11125 11.27L10.8313 6.54999L16.0213 11.74C16.2813 12 16.2813 12.4201 16.0213 12.6801L11.7713 16.9301C10.8313 17.8701 9.88127 17.8701 8.94127 16.9301Z" stroke="#503C3B" stroke-width="1.5" stroke-miterlimit="10" stroke-linecap="round" stroke-linejoin="round"/>
<path d="M9.88281 5.59998L10.8328 6.53998" stroke="#503C3B" stroke-width="1.5" stroke-miterlimit="10" stroke-linecap="round" stroke-linejoin="round"/>
<path d="M5.44141 12.64L16.1314 12.17" stroke="#503C3B" stroke-width="1.5" stroke-miterlimit="10" stroke-linecap="round" stroke-linejoin="round"/>
<path d="M17.3022 14.8101C17.3022 14.8101 15.9922 16.23 15.9922 17.1C15.9922 17.82 16.5822 18.41 17.3022 18.41C18.0222 18.41 18.6122 17.82 18.6122 17.1C18.6022 16.23 17.3022 14.8101 17.3022 14.8101Z" stroke="#503C3B" stroke-width="1.5" stroke-linecap="round" stroke-linejoin="round"/>
<path d="M22 15V9C22 4 20 2 15 2H9C4 2 2 4 2 9V15C2 20 4 22 9 22H15C20 22 22 20 22 15Z" stroke="#503C3B" stroke-width="1.5" stroke-linecap="round" stroke-linejoin="round"/>
</svg>
