<svg width="20" height="20" viewBox="0 0 20 20" fill="none" xmlns="http://www.w3.org/2000/svg">
<path d="M16.2789 12.8059C16.1109 14.6749 14.7599 15.8999 12.7999 15.8999H6.49996C4.56798 15.8999 3 14.3319 3 12.3999V7.49996C3 5.59598 4.14799 4.266 5.93297 4.042C6.11497 4.014 6.30396 4 6.49996 4H12.7999C12.9819 4 13.1569 4.007 13.3249 4.035C14.9979 4.231 16.1319 5.39998 16.2789 7.09397C16.2999 7.29696 16.1319 7.46496 15.9289 7.46496H14.8439C14.1719 7.46496 13.5489 7.72396 13.1009 8.18595C12.5689 8.70395 12.3029 9.43194 12.3659 10.1599C12.4779 11.4339 13.5979 12.4349 14.9279 12.4349H15.9289C16.1319 12.4349 16.2999 12.6029 16.2789 12.8059Z" fill="#503C3B"/>
<path d="M17.0005 9.22864V10.6706C17.0005 11.0556 16.6925 11.3706 16.3005 11.3846H14.9285C14.1725 11.3846 13.4795 10.8316 13.4165 10.0756C13.3745 9.63464 13.5425 9.22164 13.8365 8.93464C14.0955 8.66865 14.4525 8.51465 14.8445 8.51465H16.3005C16.6925 8.52865 17.0005 8.84365 17.0005 9.22864Z" fill="#503C3B"/>
</svg>
