<svg width="24" height="24" viewBox="0 0 24 24" fill="none" xmlns="http://www.w3.org/2000/svg">
<path d="M12.1484 16.5V18.6" stroke="#503C3B" stroke-width="1.5" stroke-linecap="round" stroke-linejoin="round"/>
<path d="M7.14844 22H17.1484V21C17.1484 19.9 16.2484 19 15.1484 19H9.14844C8.04844 19 7.14844 19.9 7.14844 21V22V22Z" stroke="#503C3B" stroke-width="1.5" stroke-miterlimit="10"/>
<path d="M6.14844 22H18.1484" stroke="#503C3B" stroke-width="1.5" stroke-linecap="round" stroke-linejoin="round"/>
<path d="M12 16C8.13 16 5 12.87 5 9V6C5 3.79 6.79 2 9 2H15C17.21 2 19 3.79 19 6V9C19 12.87 15.87 16 12 16Z" stroke="#503C3B" stroke-width="1.5" stroke-linecap="round" stroke-linejoin="round"/>
<path d="M5.46906 11.6496C4.71906 11.4096 4.05906 10.9696 3.53906 10.4496C2.63906 9.44961 2.03906 8.24961 2.03906 6.84961C2.03906 5.44961 3.13906 4.34961 4.53906 4.34961H5.18906C4.98906 4.80961 4.88906 5.31961 4.88906 5.84961V8.84961C4.88906 9.84961 5.09906 10.7896 5.46906 11.6496Z" stroke="#503C3B" stroke-width="1.5" stroke-linecap="round" stroke-linejoin="round"/>
<path d="M18.5312 11.6496C19.2812 11.4096 19.9412 10.9696 20.4612 10.4496C21.3612 9.44961 21.9612 8.24961 21.9612 6.84961C21.9612 5.44961 20.8612 4.34961 19.4612 4.34961H18.8112C19.0112 4.80961 19.1112 5.31961 19.1112 5.84961V8.84961C19.1112 9.84961 18.9013 10.7896 18.5312 11.6496Z" stroke="#503C3B" stroke-width="1.5" stroke-linecap="round" stroke-linejoin="round"/>
</svg>
