<svg width="17" height="17" viewBox="0 0 17 17" fill="none" xmlns="http://www.w3.org/2000/svg">
<path d="M11.4673 1.4165H5.53143C2.9531 1.4165 1.41602 2.95359 1.41602 5.53192V11.4607C1.41602 14.0461 2.9531 15.5832 5.53143 15.5832H11.4602C14.0385 15.5832 15.5756 14.0461 15.5756 11.4678V5.53192C15.5827 2.95359 14.0456 1.4165 11.4673 1.4165ZM12.2181 8.73359C12.2181 9.024 11.9773 9.26484 11.6868 9.26484C11.3964 9.26484 11.1556 9.024 11.1556 8.73359V6.59442L5.68727 12.0628C5.58102 12.169 5.44643 12.2186 5.31185 12.2186C5.17727 12.2186 5.04268 12.169 4.93643 12.0628C4.73102 11.8573 4.73102 11.5173 4.93643 11.3119L10.4048 5.84359H8.2656C7.97518 5.84359 7.73435 5.60275 7.73435 5.31234C7.73435 5.02192 7.97518 4.78109 8.2656 4.78109H11.6868C11.9773 4.78109 12.2181 5.02192 12.2181 5.31234V8.73359Z" fill="white"/>
</svg>
