<svg width="20" height="20" viewBox="0 0 20 20" fill="none" xmlns="http://www.w3.org/2000/svg">
<path d="M10.1013 1.81836C7.0294 1.81836 4.54492 4.30283 4.54492 7.37469C4.54492 10.6847 8.05335 15.2488 9.498 16.9872C9.8155 17.3682 10.3949 17.3682 10.7125 16.9872C12.1492 15.2488 15.6576 10.6847 15.6576 7.37469C15.6576 4.30283 13.1731 1.81836 10.1013 1.81836ZM10.1013 9.3591C9.00587 9.3591 8.11685 8.47008 8.11685 7.37469C8.11685 6.2793 9.00587 5.39029 10.1013 5.39029C11.1966 5.39029 12.0857 6.2793 12.0857 7.37469C12.0857 8.47008 11.1966 9.3591 10.1013 9.3591Z" fill="#503C3B"/>
</svg>
