<svg width="24" height="24" viewBox="0 0 24 24" fill="none" xmlns="http://www.w3.org/2000/svg">
<mask id="mask0_923_8006" style="mask-type:alpha" maskUnits="userSpaceOnUse" x="0" y="0" width="24" height="24">
<rect width="24" height="24" fill="#D9D9D9"/>
</mask>
<g mask="url(#mask0_923_8006)">
<path d="M18.4888 19.8526L13.0336 14.3974C12.5465 14.7871 11.9864 15.0955 11.3532 15.3228C10.72 15.5501 10.0463 15.6638 9.33189 15.6638C7.56221 15.6638 6.06464 15.051 4.83917 13.8256C3.61306 12.5995 3 11.1016 3 9.33189C3 7.56221 3.61306 6.06431 4.83917 4.8382C6.06464 3.61273 7.56221 3 9.33189 3C11.1016 3 12.5995 3.61273 13.8256 4.8382C15.051 6.06431 15.6638 7.56221 15.6638 9.33189C15.6638 10.0463 15.5501 10.72 15.3228 11.3532C15.0955 11.9864 14.7871 12.5465 14.3974 13.0336L19.8769 18.5131C20.0555 18.6917 20.1448 18.9109 20.1448 19.1707C20.1448 19.4304 20.0474 19.6577 19.8526 19.8526C19.674 20.0312 19.4467 20.1205 19.1707 20.1205C18.8947 20.1205 18.6674 20.0312 18.4888 19.8526ZM9.33189 13.7155C10.5496 13.7155 11.5847 13.2895 12.4374 12.4374C13.2895 11.5847 13.7155 10.5496 13.7155 9.33189C13.7155 8.11422 13.2895 7.07904 12.4374 6.22634C11.5847 5.3743 10.5496 4.94827 9.33189 4.94827C8.11422 4.94827 7.07904 5.3743 6.22634 6.22634C5.3743 7.07904 4.94827 8.11422 4.94827 9.33189C4.94827 10.5496 5.3743 11.5847 6.22634 12.4374C7.07904 13.2895 8.11422 13.7155 9.33189 13.7155Z" fill="#503C3B"/>
</g>
</svg>
