<svg width="21" height="22" viewBox="0 0 21 22" fill="none" xmlns="http://www.w3.org/2000/svg">
<path d="M1 21C1 17.13 4.85003 14 9.59003 14C10.63 14 11.63 14.15 12.56 14.43" stroke="#503C3B" stroke-width="1.5" stroke-linecap="round" stroke-linejoin="round"/>
<path d="M16.8009 14.74L13.2608 18.2801C13.1208 18.4201 12.9909 18.68 12.9609 18.87L12.7709 20.22C12.7009 20.71 13.0409 21.05 13.5309 20.98L14.8808 20.79C15.0708 20.76 15.3409 20.63 15.4709 20.49L19.0108 16.95C19.6208 16.34 19.9108 15.63 19.0108 14.73C18.1208 13.84 17.4109 14.13 16.8009 14.74Z" stroke="#503C3B" stroke-width="1.5" stroke-miterlimit="10" stroke-linecap="round" stroke-linejoin="round"/>
<path d="M16.2891 15.25C16.5891 16.33 17.429 17.17 18.509 17.47" stroke="#503C3B" stroke-width="1.5" stroke-miterlimit="10" stroke-linecap="round" stroke-linejoin="round"/>
<path d="M9.58984 11C12.3513 11 14.5898 8.76142 14.5898 6C14.5898 3.23858 12.3513 1 9.58984 1C6.82842 1 4.58984 3.23858 4.58984 6C4.58984 8.76142 6.82842 11 9.58984 11Z" stroke="#503C3B" stroke-width="1.5" stroke-linecap="round" stroke-linejoin="round"/>
</svg>
