<svg width="26" height="27" viewBox="0 0 26 27" fill="none" xmlns="http://www.w3.org/2000/svg">
<path fill-rule="evenodd" clip-rule="evenodd" d="M20.6908 20.2563C21.3299 19.2813 21.5683 18.783 22.0558 17.6889C18.4591 16.3239 17.8849 11.1997 21.4383 9.23883C20.3549 7.87383 18.8274 7.08301 17.3866 7.08301C16.3466 7.08301 15.6316 7.35385 14.9924 7.60302C14.4508 7.80885 13.9633 7.993 13.3566 7.993C12.7066 7.993 12.1324 7.78719 11.5258 7.57052C10.8649 7.33219 10.1716 7.08301 9.30492 7.08301C7.69076 7.08301 5.96826 8.06884 4.8741 9.75884C3.33576 12.1422 3.6066 16.6055 6.08743 20.4188C6.97576 21.7838 8.16743 23.3113 9.7166 23.333C10.3666 23.3438 10.7891 23.1489 11.2549 22.943C11.7858 22.7047 12.3599 22.4447 13.3674 22.4447C14.3749 22.4338 14.9383 22.7047 15.4691 22.943C15.9241 23.1489 16.3358 23.3438 16.9749 23.333C18.5458 23.3113 19.8024 21.6213 20.6908 20.2563Z" fill="black"/>
<path fill-rule="evenodd" clip-rule="evenodd" d="M17.1595 1.66699C17.3328 2.85866 16.8453 4.03951 16.2062 4.86284C15.5237 5.75117 14.332 6.44449 13.1837 6.40115C12.9778 5.25282 13.5087 4.07198 14.1587 3.28115C14.8845 2.41448 16.1087 1.74283 17.1595 1.66699Z" fill="black"/>
</svg>
