<svg width="24" height="24" viewBox="0 0 24 24" fill="none" xmlns="http://www.w3.org/2000/svg">
<mask id="mask0_2356_8715" style="mask-type:luminance" maskUnits="userSpaceOnUse" x="0" y="0" width="24" height="24">
<rect width="24" height="24" fill="white"/>
</mask>
<g mask="url(#mask0_2356_8715)">
<path d="M13.5593 20.1396L6.2389 12.8409C6.1521 12.7541 6.0907 12.6599 6.0547 12.5586C6.0182 12.4572 6 12.3486 6 12.2327C6 12.1169 6.0182 12.0083 6.0547 11.9069C6.0907 11.8055 6.1521 11.7114 6.2389 11.6245L13.5593 4.3041C13.7621 4.1014 14.0155 4 14.3196 4C14.6237 4 14.8844 4.1086 15.1016 4.3258C15.3188 4.5431 15.4274 4.7965 15.4274 5.0861C15.4274 5.3757 15.3188 5.6292 15.1016 5.8464L8.7153 12.2327L15.1016 18.6191C15.3043 18.8218 15.4057 19.0715 15.4057 19.368C15.4057 19.6652 15.2971 19.9224 15.0799 20.1396C14.8627 20.3568 14.6092 20.4654 14.3196 20.4654C14.03 20.4654 13.7766 20.3568 13.5593 20.1396Z" fill="#503C3B"/>
</g>
</svg>
