<svg width="24" height="24" viewBox="0 0 24 24" fill="none" xmlns="http://www.w3.org/2000/svg">
<path d="M12.0185 3.86816C9.05726 3.86816 6.6507 6.27473 6.6507 9.23596V11.8214C6.6507 12.3672 6.4181 13.1992 6.14076 13.6644L5.11193 15.3731C4.47674 16.4288 4.91511 17.6008 6.07814 17.9944C9.934 19.2827 14.094 19.2827 17.9499 17.9944C19.0324 17.6366 19.5066 16.3572 18.9161 15.3731L17.8873 13.6644C17.6189 13.1992 17.3863 12.3672 17.3863 11.8214V9.23596C17.3863 6.28367 14.9708 3.86816 12.0185 3.86816Z" stroke="white" stroke-width="1.34195" stroke-miterlimit="10" stroke-linecap="round"/>
<path d="M13.6734 4.12724C13.3961 4.04672 13.1098 3.9841 12.8146 3.94831C11.9557 3.84095 11.1327 3.90358 10.3633 4.12724C10.6227 3.46521 11.2669 3 12.0184 3C12.7698 3 13.414 3.46521 13.6734 4.12724Z" stroke="white" stroke-width="1.34195" stroke-miterlimit="10" stroke-linecap="round" stroke-linejoin="round"/>
<path d="M14.6998 18.3164C14.6998 19.7925 13.4921 21.0003 12.0159 21.0003C11.2823 21.0003 10.6024 20.6961 10.1193 20.213C9.63621 19.7299 9.33203 19.05 9.33203 18.3164" stroke="white" stroke-width="1.34195" stroke-miterlimit="10"/>
</svg>
