<svg width="24" height="20" viewBox="0 0 24 20" fill="none" xmlns="http://www.w3.org/2000/svg">
<path d="M4.57367 9.80262V4.55043H9.95028V6.42232H6.44556V9.80262H4.57367ZM2.78889 0H21.2115C21.976 0 22.6725 0.31426 23.1795 0.820515L23.1814 0.818561C23.6865 1.32364 24 2.02131 24 2.78889V16.8261C24 17.589 23.6865 18.2857 23.1814 18.7921L23.1758 18.7982C22.6687 19.3021 21.9738 19.6146 21.2115 19.6146H2.78889C2.02111 19.6146 1.32364 19.3011 0.818561 18.7961C0.797467 18.7752 0.777741 18.7533 0.758991 18.7308C0.28887 18.2298 0 17.5587 0 16.8259V2.78869C0 2.02072 0.313479 1.32325 0.818366 0.818366C1.32345 0.313479 2.02072 0 2.78889 0ZM21.2115 1.90295H2.78889C2.54631 1.90295 2.32502 2.00295 2.16388 2.16389C2.00295 2.32502 1.90295 2.54631 1.90295 2.78889V16.8261C1.90295 17.0535 1.9881 17.2607 2.12736 17.416L2.16388 17.4507C2.32502 17.6121 2.54631 17.7121 2.78869 17.7121H21.2113C21.4562 17.7121 21.6771 17.6132 21.8357 17.4546L21.8396 17.4507C21.9984 17.2919 22.0971 17.0708 22.0971 16.8263V2.78909C22.0971 2.5467 21.9971 2.32521 21.8357 2.16428L21.8377 2.16252L21.8357 2.16056C21.6775 2.00158 21.4562 1.90295 21.2115 1.90295ZM19.4265 9.81199V15.0644H14.0497V13.1925H17.5546V9.81199H19.4265Z" fill="#503C3B"/>
</svg>
