<?xml version="1.0" standalone="no"?>
<!DOCTYPE svg PUBLIC "-//W3C//DTD SVG 20010904//EN"
 "http://www.w3.org/TR/2001/REC-SVG-20010904/DTD/svg10.dtd">
<svg version="1.0" xmlns="http://www.w3.org/2000/svg"
 width="474.000000pt" height="474.000000pt" viewBox="0 0 474.000000 474.000000"
 preserveAspectRatio="xMidYMid meet">

<g transform="translate(0.000000,474.000000) scale(0.100000,-0.100000)"
fill="#543B3A" stroke="none">
<path d="M890 4295 l0 -145 -90 0 c-49 0 -113 -5 -142 -11 -137 -28 -259 -126
-321 -256 l-32 -68 0 -1446 0 -1445 38 -76 c64 -130 176 -218 315 -247 71 -15
3045 -16 3123 -1 79 15 177 67 235 124 57 58 109 156 124 235 13 72 14 2733 0
2816 -19 114 -94 233 -186 294 -82 54 -147 73 -278 80 l-118 6 0 143 1 142
-149 0 -150 0 0 -145 0 -145 -1035 0 -1034 0 -6 34 c-4 19 -5 84 -3 145 l3
111 -147 0 -148 0 0 -145z m2 -591 l3 -146 135 0 c74 0 140 1 145 1 6 1 9 55
8 146 l-2 145 1040 0 1039 0 0 -147 0 -148 148 1 147 1 0 144 1 144 89 3 c105
3 146 -12 182 -67 22 -33 23 -41 23 -277 l0 -244 -1630 0 -1630 0 0 233 c0
222 1 235 23 277 32 64 69 80 184 80 l92 0 3 -146z m2956 -1733 c-3 -983 -3
-990 -24 -1018 -11 -15 -36 -36 -55 -45 -32 -17 -126 -18 -1549 -18 -1447 0
-1517 1 -1550 18 -22 12 -44 35 -57 62 l-23 44 0 973 0 973 1630 0 1630 0 -2
-989z"/>
<path d="M1487 2664 c-4 -4 -7 -72 -7 -151 l0 -143 150 0 151 0 -3 148 -3 147
-141 3 c-77 1 -143 -1 -147 -4z"/>
<path d="M2074 2657 c-2 -7 -3 -74 -2 -148 l3 -134 148 -3 147 -3 0 151 0 150
-145 0 c-110 0 -147 -3 -151 -13z"/>
<path d="M2670 2520 l0 -150 145 0 145 0 0 150 0 150 -145 0 -145 0 0 -150z"/>
<path d="M3267 2664 c-4 -4 -7 -72 -7 -151 l0 -144 148 3 147 3 0 145 0 145
-141 3 c-77 1 -143 -1 -147 -4z"/>
<path d="M890 1925 l0 -145 145 0 145 0 0 108 c0 59 3 124 6 145 l7 37 -152 0
-151 0 0 -145z"/>
<path d="M1480 1925 l0 -145 150 0 150 0 0 145 0 145 -150 0 -150 0 0 -145z"/>
<path d="M2070 1925 l0 -145 150 0 150 0 0 145 0 145 -150 0 -150 0 0 -145z"/>
<path d="M2670 1925 l0 -145 145 0 145 0 0 145 0 145 -145 0 -145 0 0 -145z"/>
<path d="M3260 1925 l0 -145 151 0 150 0 -3 143 -3 142 -147 3 -148 3 0 -146z"/>
<path d="M890 1333 l0 -148 138 2 c75 1 142 2 147 2 6 1 9 54 8 143 l-2 143
-146 3 -145 3 0 -148z"/>
<path d="M1480 1336 c0 -86 4 -146 10 -148 5 -1 73 -2 150 0 l140 3 0 145 0
144 -150 0 -150 0 0 -144z"/>
<path d="M2070 1335 l0 -145 133 -1 c72 0 140 -2 150 -4 16 -3 17 9 17 146 l0
149 -150 0 -150 0 0 -145z"/>
</g>
</svg>
