<svg width="20" height="20" viewBox="0 0 20 20" fill="none" xmlns="http://www.w3.org/2000/svg">
<path d="M12.4755 3.13441C13.071 5.25873 14.7331 6.92086 16.8664 7.52528" stroke="#543B3A" stroke-width="1.7" stroke-miterlimit="10" stroke-linecap="round" stroke-linejoin="round"/>
<path d="M13.4795 2.13002L6.47546 9.13408C6.20881 9.40073 5.94216 9.92515 5.88883 10.3074L5.50663 12.9828C5.36441 13.9516 6.04882 14.6271 7.01765 14.4938L9.69306 14.1116C10.0664 14.0583 10.5908 13.7916 10.8663 13.525L17.8704 6.52089C19.0792 5.31207 19.6481 3.9077 17.8704 2.13002C16.0927 0.35234 14.6883 0.921198 13.4795 2.13002Z" stroke="#543B3A" stroke-width="1.7" stroke-miterlimit="10" stroke-linecap="round" stroke-linejoin="round"/>
<path d="M8.99969 1.2234H7.222C2.7778 1.2234 1.00012 3.00108 1.00012 7.44528V12.7783C1.00012 17.2225 2.7778 19.0002 7.222 19.0002H12.555C16.9992 19.0002 18.7769 17.2225 18.7769 12.7783V11.0006" stroke="#543B3A" stroke-width="1.7" stroke-linecap="round" stroke-linejoin="round"/>
</svg>
