<svg width="22" height="22" viewBox="0 0 22 22" fill="none" xmlns="http://www.w3.org/2000/svg">
<path d="M12.5855 3.21938L14.1988 6.44604C14.4188 6.89521 15.0055 7.32604 15.5005 7.40854L18.4247 7.89437C20.2947 8.20604 20.7347 9.56271 19.3872 10.901L17.1138 13.1744C16.7288 13.5594 16.518 14.3019 16.6372 14.8335L17.288 17.6477C17.8013 19.8752 16.6188 20.7369 14.648 19.5727L11.9072 17.9502C11.4122 17.6569 10.5963 17.6569 10.0922 17.9502L7.35134 19.5727C5.38967 20.7369 4.19801 19.866 4.71134 17.6477L5.36217 14.8335C5.48134 14.3019 5.27051 13.5594 4.88551 13.1744L2.61217 10.901C1.27384 9.56271 1.70467 8.20604 3.57467 7.89437L6.49884 7.40854C6.98467 7.32604 7.57134 6.89521 7.79134 6.44604L9.40467 3.21938C10.2847 1.46854 11.7147 1.46854 12.5855 3.21938Z" stroke="#503C3B" stroke-width="1.5" stroke-linecap="round" stroke-linejoin="round"/>
</svg>
