<svg width="15" height="11" viewBox="0 0 15 11" fill="none" xmlns="http://www.w3.org/2000/svg">
<g clip-path="url(#clip0_3170_11863)">
<path fill-rule="evenodd" clip-rule="evenodd" d="M10.6824 2.58344C11.3245 2.76045 11.9996 2.80805 12.7064 2.72749C12.8797 2.70796 13.0494 2.68476 13.2142 2.66279C14.0028 2.56025 14.6619 2.50166 14.8963 3.09248C15.3101 4.13618 14.3738 6.39692 13.8807 7.31123C12.8651 9.19477 10.8411 11.3017 8.49982 10.6767C8.13483 10.579 7.80646 10.4204 7.51349 10.2055C8.28254 9.77705 8.89045 9.11909 9.36042 8.34516L9.3592 8.3476C9.94147 8.37934 10.5469 8.68696 11.1011 9.01167C11.1414 8.28047 10.4346 7.79463 9.80476 7.49189C10.3101 6.35786 10.5775 5.08466 10.6605 3.94819C10.6849 3.59663 10.6983 3.11689 10.6824 2.58344ZM0.31867 0.795114C0.5091 0.61445 0.797186 0.566842 1.12433 0.587594C1.73835 0.625436 2.37311 0.814645 2.96882 0.975778C4.26398 1.3249 5.53107 1.21137 6.7652 0.641305C6.93122 0.564401 7.09357 0.485055 7.25104 0.409371C8.003 0.0456019 8.64265 -0.231498 9.07111 0.281198C9.82917 1.18696 9.6424 3.75288 9.45319 4.82832C9.06257 7.04389 7.74055 9.81733 5.19538 9.96748C3.84528 10.0468 2.69416 9.28755 1.70295 7.85322C1.07184 6.87666 0.616522 5.87324 0.338202 4.84174C0.138006 4.08979 -0.300226 1.38471 0.31867 0.795114ZM1.57966 4.18745C1.3465 4.12641 1.21223 4.05073 1.16706 3.96162C0.987616 3.60517 2.46833 2.70551 3.51325 3.53193C4.99885 4.68794 2.107 4.3437 1.57966 4.18745ZM3.98322 7.66523C3.58893 7.38325 3.37775 7.03535 3.26301 6.56416C4.5655 7.22334 5.78498 7.17573 6.92023 6.26875C6.87507 6.67036 6.74445 7.03047 6.51984 7.34663C5.857 8.28047 4.88776 8.31098 3.98322 7.66523ZM8.18732 3.66987C8.40583 3.56733 8.52424 3.46845 8.55231 3.37202C8.66462 2.98872 7.04475 2.37226 6.16706 3.37568C4.91584 4.78315 7.69782 3.91889 8.18732 3.66987ZM11.0865 5.13593C11.7017 4.64277 12.544 4.74287 13.13 5.22505C13.2789 5.34834 13.6878 5.70722 13.4522 5.90376C13.3875 5.95747 13.2801 5.98798 13.1312 5.99531C12.7674 6.03681 12.2376 5.96113 11.8153 5.78657C11.4832 5.65229 11.2318 5.47285 11.0865 5.13593Z" fill="#503C3B"/>
</g>
<defs>
<clipPath id="clip0_3170_11863">
<rect width="15" height="10.7898" fill="white"/>
</clipPath>
</defs>
</svg>
