<svg width="14" height="15" viewBox="0 0 14 15" fill="none" xmlns="http://www.w3.org/2000/svg">
<path fill-rule="evenodd" clip-rule="evenodd" d="M6.79062 0.65625C9.09062 2.11307 11.1656 2.8017 12.9543 2.63807C13.2656 8.93125 10.9429 12.6381 6.8179 14.1972L6.74063 14.1699L6.66335 14.1972C2.5429 12.6472 0.226989 8.93125 0.529262 2.63807C2.31108 2.8017 4.3929 2.11307 6.68381 0.65625L6.73835 0.697159L6.79062 0.65625Z" fill="#56B320"/>
<path d="M5.24306 7.53239C5.40471 7.67341 5.55658 7.82528 5.6976 7.98693C6.13069 7.2866 6.61137 6.61685 7.13624 5.98239C8.57715 4.24148 8.40897 4.09375 10.3999 4.09375L10.1249 4.40057C9.29174 5.32613 8.51749 6.30305 7.80669 7.32557C7.11726 8.32439 6.49176 9.36587 5.93397 10.4437L5.76124 10.7756L5.60442 10.4369C5.32299 9.82234 4.96731 9.24455 4.54533 8.71648C4.12461 8.19318 3.63004 7.73383 3.07715 7.35284C3.35442 6.44375 4.74533 7.10284 5.24533 7.52784L5.24306 7.53239Z" fill="white"/>
</svg>
