<svg width="29" height="29" viewBox="0 0 29 29" fill="none" xmlns="http://www.w3.org/2000/svg">
<path d="M14 26C20.6274 26 26 20.6274 26 14C26 7.37258 20.6274 2 14 2C7.37258 2 2 7.37258 2 14C2 20.6274 7.37258 26 14 26Z" stroke="white" stroke-width="2.3" stroke-miterlimit="10"/>
<path d="M24.7069 27.5356C25.4879 28.3166 26.7543 28.3166 27.5353 27.5356C28.3164 26.7545 28.3164 25.4882 27.5353 24.7071L24.7069 27.5356ZM25.414 22.5858L23.9998 21.1716L21.1713 24L22.5856 25.4142L25.414 22.5858ZM27.5353 24.7071L25.414 22.5858L22.5856 25.4142L24.7069 27.5356L27.5353 24.7071Z" fill="white"/>
<g clip-path="url(#clip0_1522_4525)">
<path d="M19.5666 9.47188C19.661 9.37754 19.4723 9.2832 19.378 9.2832L13.4346 11.3587L14.4723 12.4908C14.944 12.3021 15.51 12.4908 15.8874 12.8681C16.2648 13.3398 16.3591 13.9058 16.0761 14.2832L17.0195 15.3209L19.5666 9.47188Z" fill="white" stroke="white" stroke-width="0.625569" stroke-miterlimit="10" stroke-linejoin="round"/>
<path d="M9.28255 18.528C9.18821 18.6224 9.37689 18.7167 9.47123 18.7167L15.509 16.7356L14.4712 15.6035C13.9995 15.7922 13.4335 15.6035 13.0561 15.2261C12.6788 14.7544 12.6788 14.1884 12.8675 13.7167L11.9241 12.679L9.28255 18.528Z" fill="white" stroke="white" stroke-width="0.625569" stroke-miterlimit="10" stroke-linejoin="round"/>
</g>
<defs>
<clipPath id="clip0_1522_4525">
<rect width="10.9434" height="10" fill="white" transform="translate(9 9)"/>
</clipPath>
</defs>
</svg>
