<svg width="25" height="25" viewBox="0 0 25 25" fill="none" xmlns="http://www.w3.org/2000/svg">
<path d="M11.7324 0.263358C11.9519 0.092671 12.2219 0 12.4999 0C12.7779 0 13.048 0.092671 13.2674 0.263358L23.5524 8.26308C24.0034 8.61394 24.3683 9.06324 24.6192 9.57666C24.8701 10.0901 25.0003 10.654 24.9999 11.2255V22.5001C24.9999 23.1631 24.7365 23.799 24.2677 24.2678C23.7988 24.7366 23.1629 25 22.4999 25H17.4999C16.8369 25 16.201 24.7366 15.7322 24.2678C15.2633 23.799 14.9999 23.1631 14.9999 22.5001V15.0003H9.99995V22.5001C9.99995 23.1631 9.73656 23.799 9.26772 24.2678C8.79888 24.7366 8.163 25 7.49996 25H2.49999C1.83695 25 1.20107 24.7366 0.73223 24.2678C0.263391 23.799 0 23.1631 0 22.5001V11.2255C0 10.0655 0.534998 8.97556 1.44999 8.26308L11.7324 0.263358ZM12.4999 2.83327L2.98249 10.2355C2.8318 10.3527 2.70997 10.5029 2.62633 10.6745C2.54269 10.8461 2.49947 11.0346 2.49999 11.2255V22.5001H7.49996V15.0003C7.49996 14.3373 7.76336 13.7015 8.23219 13.2326C8.70103 12.7638 9.33692 12.5004 9.99995 12.5004H14.9999C15.663 12.5004 16.2988 12.7638 16.7677 13.2326C17.2365 13.7015 17.4999 14.3373 17.4999 15.0003V22.5001H22.4999V11.2255C22.5004 11.0346 22.4572 10.8461 22.3736 10.6745C22.2899 10.5029 22.1681 10.3527 22.0174 10.2355L12.4999 2.83577V2.83327Z" fill="white"/>
</svg>
