<?xml version="1.0" standalone="no"?>
<!DOCTYPE svg PUBLIC "-//W3C//DTD SVG 20010904//EN"
 "http://www.w3.org/TR/2001/REC-SVG-20010904/DTD/svg10.dtd">
<svg version="1.0" xmlns="http://www.w3.org/2000/svg"
 width="980.000000pt" height="996.000000pt" viewBox="0 0 980.000000 996.000000"
 preserveAspectRatio="xMidYMid meet">

<g transform="translate(0.000000,996.000000) scale(0.100000,-0.100000)"
fill="#000000" stroke="none">
<path d="M1514 9950 c-152 -23 -309 -116 -385 -226 -46 -68 -85 -153 -100
-219 -20 -87 -20 -1662 -1 -1750 39 -172 154 -316 316 -396 l89 -44 127 -3
c73 -2 151 1 184 8 83 17 186 72 246 132 123 122 160 193 180 335 16 117 24
1173 11 1458 -16 346 -30 393 -164 528 -136 137 -328 205 -503 177z"/>
<path d="M8005 9926 c-178 -76 -327 -235 -372 -397 -17 -59 -18 -131 -18 -879
0 -888 1 -904 56 -1021 22 -45 54 -86 117 -149 136 -134 234 -175 417 -174
175 1 281 43 399 159 68 66 125 153 151 230 10 31 21 110 27 205 13 206 4
1537 -11 1605 -30 135 -142 294 -255 360 -103 60 -170 77 -316 82 -127 4 -139
2 -195 -21z"/>
<path d="M168 8341 c-80 -3 -150 -10 -155 -14 -4 -5 -10 -1880 -11 -4168 l-4
-4159 4903 0 4902 0 -7 4167 c-4 2292 -8 4169 -10 4170 -1 1 -168 3 -371 4
l-370 1 -6 -249 c-7 -274 -21 -384 -69 -514 -40 -111 -92 -192 -180 -280 -177
-178 -380 -257 -629 -247 -235 10 -433 110 -599 301 -151 173 -191 338 -192
775 l0 222 -2469 0 -2468 0 -6 -282 c-7 -373 -29 -480 -131 -637 -127 -196
-340 -334 -570 -372 -384 -61 -780 172 -900 532 -44 132 -58 237 -64 504 l-7
250 -220 1 c-121 0 -286 -2 -367 -5z m1752 -2506 l0 -645 -695 0 -695 0 0 645
0 645 695 0 695 0 0 -645z m1850 -6 l0 -652 -765 5 c-421 2 -768 8 -772 12 -5
4 -10 295 -11 647 l-4 639 776 0 776 0 0 -651z m1865 9 c-4 -354 -9 -645 -12
-648 -7 -8 -1506 -6 -1525 2 -17 7 -18 47 -18 648 l0 640 781 0 782 0 -8 -642z
m1855 -8 l0 -650 -770 0 -770 0 0 650 0 650 770 0 770 0 0 -650z m1780 5 l0
-645 -728 0 -729 0 -6 158 c-4 86 -7 376 -7 645 l0 487 735 0 735 0 0 -645z
m-7381 -961 l31 -6 0 -644 0 -644 -695 0 -695 0 0 623 c0 342 3 632 6 644 3
12 16 24 28 26 35 7 1291 8 1325 1z m1881 -644 l0 -650 -775 0 -775 0 0 608
c0 334 3 624 6 644 5 27 12 38 28 41 11 2 357 5 769 6 l747 1 0 -650z m1853
640 c3 -3 8 -294 12 -647 l8 -643 -782 0 -781 0 0 650 0 650 769 -2 c423 -2
771 -5 774 -8z m1867 -640 l0 -650 -770 0 -770 0 0 650 0 650 770 0 770 0 0
-650z m1749 644 l31 -6 0 -644 0 -644 -735 0 -735 0 0 650 0 650 704 0 c387 0
718 -3 735 -6z m-7319 -2249 l0 -645 -695 0 -695 0 0 645 0 645 695 0 695 0 0
-645z m1850 -6 l0 -652 -765 5 c-421 3 -769 8 -773 12 -4 4 -9 295 -10 647
l-4 639 776 0 776 0 0 -651z m1870 1 l0 -650 -780 0 -780 0 0 650 0 650 780 0
780 0 0 -650z m1850 0 l0 -650 -770 0 -770 0 0 650 0 650 770 0 770 0 0 -650z
m1780 7 l0 -644 -232 -6 c-128 -4 -459 -7 -735 -7 l-503 0 0 650 0 650 735 0
735 0 0 -643z m-7350 -1532 l0 -565 -695 0 -695 0 0 565 0 565 695 0 695 0 0
-565z m1850 0 l0 -565 -775 0 -775 0 0 565 0 565 775 0 775 0 0 -565z m1870 0
l0 -565 -780 0 -780 0 0 558 c0 307 3 562 7 565 3 4 354 7 780 7 l773 0 0
-565z m1848 -2 l2 -563 -770 0 -770 0 0 565 0 565 768 -2 767 -3 3 -562z
m1782 2 l0 -565 -735 0 -735 0 0 565 0 565 735 0 735 0 0 -565z"/>
</g>
</svg>
