<svg width="17" height="19" viewBox="0 0 17 19" fill="none" xmlns="http://www.w3.org/2000/svg">
<path d="M12.7229 2.05333V0.666667C12.7229 0.302222 12.4206 0 12.0562 0C11.6917 0 11.3895 0.302222 11.3895 0.666667V2H5.61175V0.666667C5.61175 0.302222 5.30953 0 4.94508 0C4.58064 0 4.27842 0.302222 4.27842 0.666667V2.05333C1.87842 2.27556 0.713971 3.70667 0.536193 5.83111C0.518416 6.08889 0.731749 6.30222 0.980638 6.30222H16.0206C16.2784 6.30222 16.4917 6.08 16.4651 5.83111C16.2873 3.70667 15.1229 2.27556 12.7229 2.05333Z" fill="#543B3A"/>
<path d="M15.6111 7.6355H1.38889C0.9 7.6355 0.5 8.0355 0.5 8.52439V13.9999C0.5 16.6666 1.83333 18.4444 4.94444 18.4444H12.0556C15.1667 18.4444 16.5 16.6666 16.5 13.9999V8.52439C16.5 8.0355 16.1 7.6355 15.6111 7.6355ZM6.02 15.0755C5.97556 15.1111 5.93111 15.1555 5.88667 15.1822C5.83333 15.2177 5.78 15.2444 5.72667 15.2622C5.67333 15.2888 5.62 15.3066 5.56667 15.3155C5.50444 15.3244 5.45111 15.3333 5.38889 15.3333C5.27333 15.3333 5.15778 15.3066 5.05111 15.2622C4.93556 15.2177 4.84667 15.1555 4.75778 15.0755C4.59778 14.9066 4.5 14.6755 4.5 14.4444C4.5 14.2133 4.59778 13.9822 4.75778 13.8133C4.84667 13.7333 4.93556 13.6711 5.05111 13.6266C5.21111 13.5555 5.38889 13.5377 5.56667 13.5733C5.62 13.5822 5.67333 13.5999 5.72667 13.6266C5.78 13.6444 5.83333 13.6711 5.88667 13.7066C5.93111 13.7422 5.97556 13.7777 6.02 13.8133C6.18 13.9822 6.27778 14.2133 6.27778 14.4444C6.27778 14.6755 6.18 14.9066 6.02 15.0755ZM6.02 11.9644C5.85111 12.1244 5.62 12.2222 5.38889 12.2222C5.15778 12.2222 4.92667 12.1244 4.75778 11.9644C4.59778 11.7955 4.5 11.5644 4.5 11.3333C4.5 11.1022 4.59778 10.8711 4.75778 10.7022C5.00667 10.4533 5.39778 10.3733 5.72667 10.5155C5.84222 10.5599 5.94 10.6222 6.02 10.7022C6.18 10.8711 6.27778 11.1022 6.27778 11.3333C6.27778 11.5644 6.18 11.7955 6.02 11.9644ZM9.13111 15.0755C8.96222 15.2355 8.73111 15.3333 8.5 15.3333C8.26889 15.3333 8.03778 15.2355 7.86889 15.0755C7.70889 14.9066 7.61111 14.6755 7.61111 14.4444C7.61111 14.2133 7.70889 13.9822 7.86889 13.8133C8.19778 13.4844 8.80222 13.4844 9.13111 13.8133C9.29111 13.9822 9.38889 14.2133 9.38889 14.4444C9.38889 14.6755 9.29111 14.9066 9.13111 15.0755ZM9.13111 11.9644C9.08667 11.9999 9.04222 12.0355 8.99778 12.0711C8.94444 12.1066 8.89111 12.1333 8.83778 12.1511C8.78444 12.1777 8.73111 12.1955 8.67778 12.2044C8.61556 12.2133 8.56222 12.2222 8.5 12.2222C8.26889 12.2222 8.03778 12.1244 7.86889 11.9644C7.70889 11.7955 7.61111 11.5644 7.61111 11.3333C7.61111 11.1022 7.70889 10.8711 7.86889 10.7022C7.94889 10.6222 8.04667 10.5599 8.16222 10.5155C8.49111 10.3733 8.88222 10.4533 9.13111 10.7022C9.29111 10.8711 9.38889 11.1022 9.38889 11.3333C9.38889 11.5644 9.29111 11.7955 9.13111 11.9644ZM12.2422 15.0755C12.0733 15.2355 11.8422 15.3333 11.6111 15.3333C11.38 15.3333 11.1489 15.2355 10.98 15.0755C10.82 14.9066 10.7222 14.6755 10.7222 14.4444C10.7222 14.2133 10.82 13.9822 10.98 13.8133C11.3089 13.4844 11.9133 13.4844 12.2422 13.8133C12.4022 13.9822 12.5 14.2133 12.5 14.4444C12.5 14.6755 12.4022 14.9066 12.2422 15.0755ZM12.2422 11.9644C12.1978 11.9999 12.1533 12.0355 12.1089 12.0711C12.0556 12.1066 12.0022 12.1333 11.9489 12.1511C11.8956 12.1777 11.8422 12.1955 11.7889 12.2044C11.7267 12.2133 11.6644 12.2222 11.6111 12.2222C11.38 12.2222 11.1489 12.1244 10.98 11.9644C10.82 11.7955 10.7222 11.5644 10.7222 11.3333C10.7222 11.1022 10.82 10.8711 10.98 10.7022C11.0689 10.6222 11.1578 10.5599 11.2733 10.5155C11.4333 10.4444 11.6111 10.4266 11.7889 10.4622C11.8422 10.4711 11.8956 10.4888 11.9489 10.5155C12.0022 10.5333 12.0556 10.5599 12.1089 10.5955C12.1533 10.6311 12.1978 10.6666 12.2422 10.7022C12.4022 10.8711 12.5 11.1022 12.5 11.3333C12.5 11.5644 12.4022 11.7955 12.2422 11.9644Z" fill="#543B3A"/>
</svg>
