<svg width="24" height="24" viewBox="0 0 24 24" fill="none" xmlns="http://www.w3.org/2000/svg">
<path d="M2 12.61H19" stroke="#503C3B" stroke-width="1.5" stroke-miterlimit="10" stroke-linecap="round" stroke-linejoin="round"/>
<path d="M19 10.28V17.43C18.97 20.28 18.19 21 15.22 21H5.78003C2.76003 21 2 20.25 2 17.27V10.28C2 7.58 2.63 6.71 5 6.57C5.24 6.56 5.50003 6.55 5.78003 6.55H15.22C18.24 6.55 19 7.3 19 10.28Z" stroke="#503C3B" stroke-width="1.5" stroke-linecap="round" stroke-linejoin="round"/>
<path d="M22 6.73V13.72C22 16.42 21.37 17.29 19 17.43V10.28C19 7.3 18.24 6.55 15.22 6.55H5.78003C5.50003 6.55 5.24 6.56 5 6.57C5.03 3.72 5.81003 3 8.78003 3H18.22C21.24 3 22 3.75 22 6.73Z" stroke="#503C3B" stroke-width="1.5" stroke-linecap="round" stroke-linejoin="round"/>
<path d="M5.25 17.81H6.96997" stroke="#503C3B" stroke-width="1.5" stroke-miterlimit="10" stroke-linecap="round" stroke-linejoin="round"/>
<path d="M9.10938 17.81H12.5494" stroke="#503C3B" stroke-width="1.5" stroke-miterlimit="10" stroke-linecap="round" stroke-linejoin="round"/>
</svg>
