<svg width="13" height="20" viewBox="0 0 13 20" fill="none" xmlns="http://www.w3.org/2000/svg">
<path fill-rule="evenodd" clip-rule="evenodd" d="M7.99867 6.50067L7.99867 14.5007C7.99867 14.9149 8.33446 15.2507 8.74867 15.2507C9.16288 15.2507 9.49867 14.9149 9.49867 14.5007V6.66567C9.49857 6.57871 9.48334 6.49242 9.45367 6.41067C9.36867 6.17067 8.70867 4.00067 6.99867 4.00067C5.53867 4.00067 4.69367 5.61067 4.49867 6.50067V6.64567V14.0157C4.49867 14.1357 4.39867 16.9657 5.96867 18.6007C6.76185 19.4385 7.84654 19.9397 8.99867 20.0007C10.2037 20.0007 10.9387 19.3607 11.6787 18.5857C13.0937 17.0857 12.9987 14.7457 12.9987 14.6807L12.9987 6.03067C12.9987 3.86067 11.6137 0.000671387 7.49867 0.000671387C5.43367 0.000671387 3.91367 0.355671 2.74867 1.55067C1.64188 2.77077 1.01946 4.35349 0.998669 6.00067L0.998669 16.0007C0.998669 16.4149 1.33446 16.7507 1.74867 16.7507C2.16288 16.7507 2.49867 16.4149 2.49867 16.0007L2.49867 6.03067C2.51076 4.76318 2.98145 3.54295 3.82367 2.59567C4.69367 1.70067 5.85367 1.50067 7.49867 1.50067C11.1787 1.50067 11.4987 5.87567 11.4987 6.05067V14.7207C11.4987 14.7207 11.5537 16.5457 10.5937 17.5557C10.1437 18.0257 9.79367 18.5057 8.99867 18.5057C8.26054 18.4477 7.56894 18.1223 7.05367 17.5907C5.92867 16.4207 5.99867 14.1257 5.99867 14.0907L5.99867 6.50067C6.07867 6.18067 6.53367 5.50067 6.99867 5.50067C7.46367 5.50067 7.80367 6.04567 7.99867 6.50067Z" fill="#543B3A"/>
</svg>
