<svg width="16" height="21" viewBox="0 0 16 21" fill="none" xmlns="http://www.w3.org/2000/svg">
<path fill-rule="evenodd" clip-rule="evenodd" d="M11.5256 2.24092L12.3301 2.34111C14.1869 2.57237 15.5807 4.15052 15.5807 6.02172V16.3966C15.5807 18.2135 14.2274 19.7457 12.4245 19.9703C9.42994 20.3432 6.40079 20.3432 3.40622 19.9703C1.60332 19.7457 0.25 18.2135 0.25 16.3966V6.02172C0.25 4.15052 1.64381 2.57237 3.50066 2.34111L4.30513 2.24092C4.62379 1.09275 5.67662 0.25 6.92629 0.25H8.90444C10.1541 0.25 11.2069 1.09275 11.5256 2.24092ZM4.20632 3.7483L3.68401 3.81336C2.56991 3.95211 1.73362 4.89901 1.73362 6.02172V16.3966C1.73362 17.4649 2.52941 18.366 3.58958 18.498C6.46231 18.8558 9.36842 18.8558 12.2411 18.498C13.3013 18.366 14.0971 17.4649 14.0971 16.3966V6.02172C14.0971 4.89901 13.2608 3.95211 12.1467 3.81336L11.6244 3.7483V4.94813C11.6244 5.35781 11.2923 5.68994 10.8826 5.68994H4.94813C4.53844 5.68994 4.20632 5.35781 4.20632 4.94813V3.7483ZM5.68994 2.96997C5.68994 2.28715 6.24342 1.73362 6.92629 1.73362H8.90444C9.5873 1.73362 10.1408 2.28715 10.1408 2.96997V4.20632H5.68994V2.96997Z" fill="#543B3A"/>
</svg>
