<svg width="20" height="20" viewBox="0 0 20 20" fill="none" xmlns="http://www.w3.org/2000/svg">
<path d="M15.4167 10.5416V13.625C15.4167 16.225 12.9917 18.3333 10 18.3333C7.00834 18.3333 4.58334 16.225 4.58334 13.625V10.5416C4.58334 13.1416 7.00834 15 10 15C12.9917 15 15.4167 13.1416 15.4167 10.5416Z" stroke="#503C3B" stroke-width="1.5" stroke-linecap="round" stroke-linejoin="round"/>
<path d="M15.4167 6.37496C15.4167 7.13329 15.2083 7.83329 14.8417 8.43329C13.95 9.89996 12.1167 10.8333 10 10.8333C7.88334 10.8333 6.05001 9.89996 5.15835 8.43329C4.79168 7.83329 4.58334 7.13329 4.58334 6.37496C4.58334 5.07496 5.19167 3.89996 6.16667 3.04996C7.15001 2.19163 8.50001 1.66663 10 1.66663C11.5 1.66663 12.85 2.19163 13.8333 3.04163C14.8083 3.89996 15.4167 5.07496 15.4167 6.37496Z" stroke="#503C3B" stroke-width="1.5" stroke-linecap="round" stroke-linejoin="round"/>
<path d="M15.4167 6.37496V10.5416C15.4167 13.1416 12.9917 15 10 15C7.00834 15 4.58334 13.1416 4.58334 10.5416V6.37496C4.58334 3.77496 7.00834 1.66663 10 1.66663C11.5 1.66663 12.85 2.19163 13.8333 3.04163C14.8083 3.89996 15.4167 5.07496 15.4167 6.37496Z" stroke="#503C3B" stroke-width="1.5" stroke-linecap="round" stroke-linejoin="round"/>
</svg>
