<svg width="14" height="14" viewBox="0 0 14 14" fill="none" xmlns="http://www.w3.org/2000/svg">
<path d="M8.20915 0.895303C8.32271 0.694902 8.20915 0.4277 7.97535 0.40098C6.22517 0.153818 4.43492 0.588021 3.00539 1.64347C2.87847 1.74367 2.83839 1.93071 2.92523 2.07767L4.93592 5.56466C5.06284 5.7851 5.38349 5.7851 5.51709 5.56466L8.20915 0.895303ZM13.2125 4.54929C12.5579 2.89932 11.2619 1.56999 9.63868 0.875263C9.48504 0.808463 9.30468 0.875263 9.21784 1.02222L7.20714 4.50253C7.08022 4.71629 7.24054 4.99686 7.50106 4.99686H12.8985C13.1323 4.99686 13.2993 4.76305 13.2125 4.54929ZM13.2593 5.66486H9.11764C8.86379 5.66486 8.69679 5.94542 8.83039 6.16586L11.6761 11.1024C11.7897 11.3028 12.0769 11.3362 12.2239 11.1559C13.3862 9.69961 13.8805 7.7958 13.5933 5.9521C13.5732 5.7851 13.4263 5.66486 13.2593 5.66486ZM1.77626 2.85256C0.620608 4.31549 0.119605 6.20594 0.406847 8.05632C0.426887 8.21664 0.573848 8.33688 0.74085 8.33688H4.88248C5.13632 8.33688 5.30333 8.05632 5.16972 7.83588L2.32402 2.906C2.20378 2.7056 1.91654 2.6722 1.77626 2.85256ZM0.78761 9.45245C1.44226 11.1024 2.73819 12.4318 4.36144 13.1265C4.51508 13.1933 4.69544 13.1265 4.78228 12.9795L6.79298 9.49921C6.9199 9.27877 6.75958 8.99821 6.50574 8.99821H1.10157C0.86777 9.00489 0.700769 9.23869 0.78761 9.45245ZM6.01809 13.6074C7.76826 13.8546 9.55852 13.4204 10.9881 12.365C11.1217 12.2648 11.1617 12.071 11.0749 11.9241L9.0642 8.43708C8.93727 8.21664 8.61663 8.21664 8.48303 8.43708L5.78429 13.1064C5.67073 13.3068 5.79097 13.574 6.01809 13.6074Z" fill="#543B3A"/>
</svg>
