<svg width="22" height="22" viewBox="0 0 22 22" fill="none" xmlns="http://www.w3.org/2000/svg">
<path d="M14.6663 11.825V15.675C14.6663 18.8833 13.383 20.1667 10.1747 20.1667H6.32467C3.11634 20.1667 1.83301 18.8833 1.83301 15.675V11.825C1.83301 8.61666 3.11634 7.33333 6.32467 7.33333H10.1747C13.383 7.33333 14.6663 8.61666 14.6663 11.825Z" stroke="#503C3B" stroke-width="1.5" stroke-linecap="round" stroke-linejoin="round"/>
<path d="M20.1663 6.325V10.175C20.1663 13.3833 18.883 14.6667 15.6747 14.6667H14.6663V11.825C14.6663 8.61666 13.383 7.33333 10.1747 7.33333H7.33301V6.325C7.33301 3.11666 8.61634 1.83333 11.8247 1.83333H15.6747C18.883 1.83333 20.1663 3.11666 20.1663 6.325Z" stroke="#503C3B" stroke-width="1.5" stroke-linecap="round" stroke-linejoin="round"/>
</svg>
