<svg width="23" height="23" viewBox="0 0 23 23" fill="none" xmlns="http://www.w3.org/2000/svg">
<path d="M11.4975 17.1534H16.3435C20.3818 17.1534 21.9972 15.5381 21.9972 11.4997V6.65371C21.9972 2.61534 20.3818 1 16.3435 1H11.4975C7.45909 1 5.84375 2.61534 5.84375 6.65371V11.4997C5.84375 15.5381 7.45909 17.1534 11.4975 17.1534Z" stroke="#292D32" stroke-width="1.5" stroke-linecap="round" stroke-linejoin="round"/>
<path d="M6.6537 21.9996H11.4997C15.5381 21.9996 17.1534 20.3843 17.1534 16.3459V11.4999C17.1534 7.46154 15.5381 5.84619 11.4997 5.84619H6.6537C2.61534 5.84619 1 7.46154 1 11.4999V16.3459C1 20.3843 2.61534 21.9996 6.6537 21.9996Z" fill="white" stroke="#292D32" stroke-width="1.5" stroke-linecap="round" stroke-linejoin="round"/>
</svg>
