<svg width="24" height="24" viewBox="0 0 24 24" fill="none" xmlns="http://www.w3.org/2000/svg">
<path d="M12 9V2L10 4" stroke="#503C3B" stroke-width="1.5" stroke-linecap="round" stroke-linejoin="round"/>
<path d="M12 2L14 4" stroke="#503C3B" stroke-width="1.5" stroke-linecap="round" stroke-linejoin="round"/>
<path d="M1.98047 13H6.39047C6.77047 13 7.11047 13.21 7.28047 13.55L8.45047 15.89C8.79047 16.57 9.48047 17 10.2405 17H13.7705C14.5305 17 15.2205 16.57 15.5605 15.89L16.7305 13.55C16.9005 13.21 17.2505 13 17.6205 13H21.9805" stroke="#503C3B" stroke-width="1.5" stroke-linecap="round" stroke-linejoin="round"/>
<path d="M7 5.13C3.46 5.65 2 7.73 2 12V15C2 20 4 22 9 22H15C20 22 22 20 22 15V12C22 7.73 20.54 5.65 17 5.13" stroke="#503C3B" stroke-width="1.5" stroke-linecap="round" stroke-linejoin="round"/>
</svg>
