<svg width="22" height="22" viewBox="0 0 22 22" fill="none" xmlns="http://www.w3.org/2000/svg">
<rect x="0.7" y="0.7" width="20.6" height="20.6" rx="3.3" fill="white"/>
<path d="M8.67201 5.46118C8.07317 2.87118 4.17319 2.86369 3.57435 5.46118C3.22253 6.98075 4.18816 8.26826 5.02655 9.06922C5.64036 9.64561 6.606 9.64561 7.21982 9.06922C8.0582 8.26826 9.01635 6.98075 8.67201 5.46118ZM6.14938 6.65887C5.73767 6.65887 5.40082 6.32202 5.40082 5.91031C5.40082 5.49861 5.73019 5.16176 6.1419 5.16176H6.14938C6.56857 5.16176 6.89794 5.49861 6.89794 5.91031C6.89794 6.32202 6.56857 6.65887 6.14938 6.65887Z" fill="#503C3B"/>
<path d="M18.4256 14.4438C17.8268 11.8538 13.9119 11.8464 13.3055 14.4438C12.9537 15.9634 13.9193 17.2509 14.7652 18.0519C15.379 18.6283 16.3521 18.6283 16.966 18.0519C17.8118 17.2509 18.7775 15.9634 18.4256 14.4438ZM15.8955 15.6415C15.4838 15.6415 15.147 15.3047 15.147 14.893C15.147 14.4813 15.4763 14.1444 15.888 14.1444H15.8955C16.3072 14.1444 16.6441 14.4813 16.6441 14.893C16.6441 15.3047 16.3072 15.6415 15.8955 15.6415Z" fill="#503C3B"/>
<path d="M11.0069 16.8017H9.00075C8.13243 16.8017 7.37639 16.2777 7.07696 15.4693C6.77006 14.6608 6.99462 13.7701 7.64587 13.1937L13.6268 7.96127C13.9861 7.64687 13.9936 7.2202 13.8888 6.92826C13.7765 6.63632 13.4921 6.32193 13.013 6.32193H11.0069C10.7 6.32193 10.4455 6.06742 10.4455 5.76051C10.4455 5.45361 10.7 5.1991 11.0069 5.1991H13.013C13.8813 5.1991 14.6374 5.72309 14.9368 6.53153C15.2437 7.33997 15.0191 8.23075 14.3679 8.80714L8.38694 14.0395C8.02763 14.3539 8.02014 14.7806 8.12494 15.0725C8.23723 15.3645 8.52168 15.6789 9.00075 15.6789H11.0069C11.3138 15.6789 11.5683 15.9334 11.5683 16.2403C11.5683 16.5472 11.3138 16.8017 11.0069 16.8017Z" fill="#503C3B"/>
<rect x="0.7" y="0.7" width="20.6" height="20.6" rx="3.3" stroke="#503C3B" stroke-width="1.4"/>
</svg>
