<svg width="26" height="26" viewBox="0 0 26 26" fill="none" xmlns="http://www.w3.org/2000/svg">
<path d="M12 24C18.6274 24 24 18.6274 24 12C24 5.37258 18.6274 0 12 0C5.37258 0 0 5.37258 0 12C0 18.6274 5.37258 24 12 24Z" fill="#503C3B"/>
<path d="M21.7069 24.5356C22.4879 25.3166 23.7543 25.3166 24.5353 24.5356C25.3164 23.7545 25.3164 22.4882 24.5353 21.7071L21.7069 24.5356ZM22.414 19.5858L20.9998 18.1716L18.1713 21L19.5856 22.4142L22.414 19.5858ZM24.5353 21.7071L22.414 19.5858L19.5856 22.4142L21.7069 24.5356L24.5353 21.7071Z" fill="#503C3B"/>
<g clip-path="url(#clip0_1522_4394)">
<path d="M17.5666 7.47188C17.661 7.37754 17.4723 7.2832 17.378 7.2832L11.4346 9.35868L12.4723 10.4908C12.944 10.3021 13.51 10.4908 13.8874 10.8681C14.2648 11.3398 14.3591 11.9058 14.0761 12.2832L15.0195 13.3209L17.5666 7.47188Z" fill="white" stroke="white" stroke-width="0.625569" stroke-miterlimit="10" stroke-linejoin="round"/>
<path d="M7.28255 16.528C7.18821 16.6224 7.37689 16.7167 7.47123 16.7167L13.509 14.7356L12.4712 13.6035C11.9995 13.7922 11.4335 13.6035 11.0561 13.2261C10.6788 12.7544 10.6788 12.1884 10.8675 11.7167L9.92406 10.679L7.28255 16.528Z" fill="white" stroke="white" stroke-width="0.625569" stroke-miterlimit="10" stroke-linejoin="round"/>
</g>
<defs>
<clipPath id="clip0_1522_4394">
<rect width="10.9434" height="10" fill="white" transform="translate(7 7)"/>
</clipPath>
</defs>
</svg>
