<svg width="26" height="26" viewBox="0 0 26 26" fill="none" xmlns="http://www.w3.org/2000/svg">
<path fill-rule="evenodd" clip-rule="evenodd" d="M22.1882 6.52928C20.1427 2.68414 16.1488 0.281891 11.8006 0.281276C7.03356 0.27127 2.73078 3.14242 0.901672 7.55388C-0.927441 11.9654 0.0780008 17.0467 3.44845 20.425C6.8189 23.8033 11.8894 24.812 16.2919 22.9799C16.4913 22.8969 16.6883 22.8086 16.8827 22.7149C17.7794 22.283 18.8818 22.3985 19.5505 23.1357L21.3021 25.0665C22.0468 25.8874 23.3169 25.9462 24.1342 25.1976L24.5255 24.8392C25.3399 24.0933 25.3956 22.8286 24.65 22.014L22.6352 19.8129C22.0128 19.1329 21.9528 18.1225 22.3597 17.2953C24.0216 13.9176 23.9857 9.90809 22.1882 6.52928ZM13.2536 12.3512C13.2937 12.1721 13.3873 12.0027 13.5468 11.9119L14.6266 11.297C14.6312 11.2944 14.6341 11.2895 14.6341 11.2842L14.9604 14.0869C15.1483 15.7009 13.3189 16.7606 12.0123 15.7946L10.6977 14.8227C10.2375 14.4826 10.2791 13.7816 10.7763 13.4982L10.871 13.4442C11.0425 13.3464 11.2497 13.3488 11.44 13.401C12.2291 13.6056 13.0362 13.1384 13.2536 12.3512ZM8.96711 12.8686C8.96711 12.8695 8.96814 12.8701 8.96897 12.8697L9.96538 12.302C10.1918 12.173 10.3091 11.9201 10.3623 11.665C10.368 11.6377 10.3745 11.6105 10.3817 11.5836C10.6037 10.8048 11.4036 10.3443 12.1868 10.5444C12.2252 10.5541 12.2632 10.5653 12.3006 10.5779C12.5359 10.6575 12.7995 10.6809 13.0158 10.5588C13.428 10.3262 13.4634 9.7459 13.0825 9.46492L11.5869 8.36172C10.2801 7.39778 8.45283 8.45778 8.64089 10.0707L8.96711 12.8686ZM5.8876 4.84537C9.59914 1.7699 15.0329 2.01529 18.4533 5.41285C19.3324 6.28819 20.0306 7.32864 20.508 8.47468C22.3578 12.9307 20.5351 18.0662 16.2929 20.3509C12.0506 22.6355 6.77096 21.3249 4.08343 17.3201C1.3959 13.3152 2.17607 7.92083 5.8876 4.84537Z" fill="#503C3B"/>
</svg>
