<svg width="26" height="26" viewBox="0 0 26 26" fill="none" xmlns="http://www.w3.org/2000/svg">
<path d="M12 24C18.6274 24 24 18.6274 24 12C24 5.37258 18.6274 0 12 0C5.37258 0 0 5.37258 0 12C0 18.6274 5.37258 24 12 24Z" fill="#503C3B"/>
<path d="M21.7069 24.5356C22.4879 25.3166 23.7543 25.3166 24.5353 24.5356C25.3164 23.7545 25.3164 22.4882 24.5353 21.7071L21.7069 24.5356ZM22.414 19.5858L20.9998 18.1716L18.1713 21L19.5856 22.4142L22.414 19.5858ZM24.5353 21.7071L22.414 19.5858L19.5856 22.4142L21.7069 24.5356L24.5353 21.7071Z" fill="#503C3B"/>
<g clip-path="url(#clip0_282_3618)">
<path d="M17.5669 7.47188C17.6612 7.37754 17.4726 7.2832 17.3782 7.2832L11.4348 9.35867L12.4726 10.4908C12.9442 10.3021 13.5103 10.4908 13.8876 10.8681C14.265 11.3398 14.3593 11.9058 14.0763 12.2832L15.0197 13.3209L17.5669 7.47188Z" fill="white" stroke="white" stroke-width="0.625569" stroke-miterlimit="10" stroke-linejoin="round"/>
<path d="M7.28291 16.528C7.18857 16.6224 7.37725 16.7167 7.47159 16.7167L13.5093 14.7356L12.4716 13.6035C11.9999 13.7922 11.4339 13.6035 11.0565 13.2261C10.6791 12.7544 10.6791 12.1884 10.8678 11.7167L9.92442 10.679L7.28291 16.528Z" fill="white" stroke="white" stroke-width="0.625569" stroke-miterlimit="10" stroke-linejoin="round"/>
</g>
<defs>
<clipPath id="clip0_282_3618">
<rect width="10.9434" height="10" fill="white" transform="translate(7 7)"/>
</clipPath>
</defs>
</svg>
