<svg width="26" height="26" viewBox="0 0 26 26" fill="none" xmlns="http://www.w3.org/2000/svg">
<path fill-rule="evenodd" clip-rule="evenodd" d="M11.8006 0.281276C16.1488 0.281891 20.1427 2.68414 22.1882 6.52928C23.9857 9.90809 24.0216 13.9176 22.3597 17.2953C21.9528 18.1225 22.0128 19.1329 22.6352 19.8129L24.65 22.014C25.3956 22.8286 25.3399 24.0933 24.5255 24.8392L24.1342 25.1976C23.3169 25.9462 22.0468 25.8874 21.3021 25.0665L19.5505 23.1357C18.8818 22.3985 17.7794 22.283 16.8827 22.7149C16.6883 22.8086 16.4913 22.8969 16.2919 22.9799C11.8894 24.812 6.8189 23.8033 3.44845 20.425C0.0780008 17.0467 -0.927441 11.9654 0.901672 7.55388C2.73078 3.14242 7.03356 0.27127 11.8006 0.281276ZM14.6341 11.2842C14.6341 11.2895 14.6312 11.2944 14.6266 11.297L13.5468 11.9119C13.3873 12.0027 13.2937 12.1721 13.2536 12.3512C13.0362 13.1384 12.2291 13.6056 11.44 13.401C11.2497 13.3488 11.0425 13.3464 10.871 13.4442L10.7763 13.4982C10.2791 13.7816 10.2375 14.4826 10.6977 14.8227L12.0123 15.7946C13.3189 16.7606 15.1483 15.7009 14.9604 14.0869L14.6341 11.2842ZM10.3623 11.665C10.3091 11.9201 10.1918 12.173 9.96538 12.302L8.96897 12.8697C8.96814 12.8701 8.96711 12.8695 8.96711 12.8686L8.64089 10.0707C8.45283 8.45777 10.2801 7.39778 11.5869 8.36171L13.0825 9.46492C13.4634 9.7459 13.428 10.3262 13.0158 10.5588C12.7995 10.6809 12.5359 10.6575 12.3006 10.5779C12.2632 10.5653 12.2252 10.5541 12.1868 10.5444C11.4036 10.3443 10.6037 10.8048 10.3817 11.5836C10.3745 11.6105 10.368 11.6377 10.3623 11.665Z" fill="#503C3B"/>
</svg>
