<svg width="28" height="28" viewBox="0 0 28 28" fill="none" xmlns="http://www.w3.org/2000/svg">
<path d="M13.9398 25.8795C20.5339 25.8795 25.8795 20.5339 25.8795 13.9398C25.8795 7.34561 20.5339 2 13.9398 2C7.34561 2 2 7.34561 2 13.9398C2 20.5339 7.34561 25.8795 13.9398 25.8795Z" stroke="#503C3B" stroke-width="2.3" stroke-miterlimit="10"/>
<path d="M24.5858 27.4145C25.3668 28.1955 26.6332 28.1955 27.4142 27.4145C28.1953 26.6334 28.1953 25.3671 27.4142 24.586L24.5858 27.4145ZM25.3035 22.4754L23.8893 21.0611L21.0609 23.8896L22.4751 25.3038L25.3035 22.4754ZM27.4142 24.586L25.3035 22.4754L22.4751 25.3038L24.5858 27.4145L27.4142 24.586Z" fill="#503C3B"/>
<g clip-path="url(#clip0_282_3639)">
<path d="M19.4787 9.43431C19.5726 9.34045 19.3849 9.24658 19.291 9.24658L13.3774 11.3116L14.41 12.438C14.8793 12.2503 15.4425 12.438 15.818 12.8135C16.1934 13.2828 16.2873 13.846 16.0057 14.2215L16.9444 15.254L19.4787 9.43431Z" fill="#503C3B" stroke="#503C3B" stroke-width="0.625569" stroke-miterlimit="10" stroke-linejoin="round"/>
<path d="M9.24629 18.4449C9.15242 18.5388 9.34015 18.6327 9.43402 18.6327L15.4414 16.6615L14.4089 15.5351C13.9396 15.7228 13.3764 15.5351 13.0009 15.1596C12.6255 14.6903 12.6255 14.1271 12.8132 13.6578L11.8745 12.6252L9.24629 18.4449Z" fill="#503C3B" stroke="#503C3B" stroke-width="0.625569" stroke-miterlimit="10" stroke-linejoin="round"/>
</g>
<defs>
<clipPath id="clip0_282_3639">
<rect width="10.8885" height="9.9498" fill="white" transform="translate(8.96484 8.96484)"/>
</clipPath>
</defs>
</svg>
