<svg width="24" height="18" viewBox="0 0 24 18" fill="none" xmlns="http://www.w3.org/2000/svg">
<path d="M11.3845 8.21875V0.609375C11.3845 0.273437 11.6599 0 11.9998 0C12.3396 0 12.615 0.273437 12.615 0.609375V8.21875L15.449 5.74219C15.7029 5.51953 16.0896 5.54297 16.3142 5.79492C16.5388 6.04688 16.5154 6.42969 16.2615 6.65234L12.406 10.0195C12.1697 10.2266 11.8181 10.2207 11.5896 10.0156L7.73804 6.65234C7.48413 6.42969 7.4607 6.04688 7.6853 5.79492C7.90991 5.54492 8.29663 5.52148 8.55054 5.74219L11.3845 8.21875ZM0.0173363 9.26367C-0.066648 8.91797 0.146243 8.57031 0.491946 8.48633C0.837649 8.40234 1.18531 8.61523 1.26929 8.96094C1.47046 9.79297 1.61304 10.5098 1.7439 11.168C2.36304 14.291 2.69507 15.9668 7.04663 15.9668H17.3103C21.3767 15.9668 21.7068 14.1953 22.2556 11.2617C22.3865 10.5586 22.5291 9.79688 22.7322 8.96094C22.8162 8.61523 23.1638 8.40234 23.5095 8.48633C23.8552 8.57031 24.0662 8.91797 23.9841 9.26367C23.7927 10.0488 23.6521 10.8027 23.5232 11.5C22.8513 15.0898 22.447 17.2578 17.3123 17.2578H7.04468C1.63452 17.2578 1.23023 15.2188 0.476321 11.416C0.333743 10.6973 0.191164 9.97656 0.0173363 9.26367Z" fill="white"/>
</svg>
