<svg width="20" height="20" viewBox="0 0 20 20" fill="none" xmlns="http://www.w3.org/2000/svg">
<path d="M17.5 18.333H2.5C2.15833 18.333 1.875 18.0497 1.875 17.708C1.875 17.3663 2.15833 17.083 2.5 17.083H17.5C17.8417 17.083 18.125 17.3663 18.125 17.708C18.125 18.0497 17.8417 18.333 17.5 18.333Z" fill="#503C3B"/>
<path d="M15.85 2.90005C14.2333 1.28338 12.65 1.24172 10.9916 2.90005L9.98331 3.90838C9.89998 3.99172 9.86665 4.12505 9.89998 4.24172C10.5333 6.45005 12.3 8.21672 14.5083 8.85005C14.5416 8.85838 14.575 8.86672 14.6083 8.86672C14.7 8.86672 14.7833 8.83338 14.85 8.76672L15.85 7.75838C16.675 6.94172 17.075 6.15005 17.075 5.35005C17.0833 4.52505 16.6833 3.72505 15.85 2.90005Z" fill="#503C3B"/>
<path d="M13.0084 9.60866C12.7668 9.49199 12.5334 9.37533 12.3084 9.24199C12.1251 9.13366 11.9501 9.01699 11.7751 8.89199C11.6334 8.80033 11.4668 8.66699 11.3084 8.53366C11.2918 8.52533 11.2334 8.47533 11.1668 8.40866C10.8918 8.17533 10.5834 7.87533 10.3084 7.54199C10.2834 7.52533 10.2418 7.46699 10.1834 7.39199C10.1001 7.29199 9.95844 7.12532 9.83344 6.93366C9.73344 6.80866 9.61677 6.62533 9.50844 6.44199C9.3751 6.21699 9.25844 5.99199 9.14177 5.75866C8.9888 5.43088 8.55859 5.3335 8.30282 5.58928L3.61677 10.2753C3.50844 10.3837 3.40844 10.592 3.38344 10.7337L2.93344 13.9253C2.8501 14.492 3.00844 15.0253 3.35844 15.3837C3.65844 15.6753 4.0751 15.8337 4.5251 15.8337C4.6251 15.8337 4.7251 15.8253 4.8251 15.8087L8.0251 15.3587C8.1751 15.3337 8.38344 15.2337 8.48344 15.1253L13.1772 10.4315C13.4279 10.1809 13.3337 9.7496 13.0084 9.60866Z" fill="#503C3B"/>
</svg>
