<svg width="18" height="20" viewBox="0 0 18 20" fill="none" xmlns="http://www.w3.org/2000/svg">
<path fill-rule="evenodd" clip-rule="evenodd" d="M15 18.6364H1.36364V1.36364H9.09091V0H1.36364C0.610521 0 0 0.610521 0 1.36364V18.6364C0 19.3895 0.610521 20 1.36364 20H15C15.7531 20 16.3636 19.3895 16.3636 18.6364V10H15V18.6364Z" fill="#543B3A"/>
<path fill-rule="evenodd" clip-rule="evenodd" d="M17.3271 1.70002L16.3634 0.736385C15.831 0.204652 14.9685 0.204652 14.4361 0.736385C14.4361 0.736385 6.85887 8.30457 6.74523 8.76366L6.40432 10.1273C6.28762 10.5923 6.4237 11.0844 6.76271 11.4235C7.10172 11.7625 7.59386 11.8985 8.05887 11.7818L9.42251 11.4409C9.87705 11.3227 17.3271 3.63184 17.3271 3.63184C17.8588 3.09944 17.8588 2.23696 17.3271 1.70457V1.70002ZM9.96341 9.06366L9.0316 8.13184L8.99978 8.10457L15.3998 1.70457L16.3634 2.6682L9.96341 9.06366Z" fill="#543B3A"/>
</svg>
