<?xml version="1.0" standalone="no"?>
<!DOCTYPE svg PUBLIC "-//W3C//DTD SVG 20010904//EN"
 "http://www.w3.org/TR/2001/REC-SVG-20010904/DTD/svg10.dtd">
<svg version="1.0" xmlns="http://www.w3.org/2000/svg"
 width="1000.000000pt" height="1000.000000pt" viewBox="0 0 1000.000000 1000.000000"
 preserveAspectRatio="xMidYMid meet">

<g transform="translate(0.000000,1000.000000) scale(0.100000,-0.100000)"
fill="#543B3A" stroke="none">
<path d="M4930 8930 l-515 -6 -146 -41 c-411 -117 -754 -273 -1069 -486 -314
-212 -651 -552 -881 -887 -246 -358 -429 -800 -531 -1280 l-33 -155 0 -470 0
-470 34 -155 c80 -368 176 -648 321 -935 330 -651 871 -1181 1525 -1496 260
-124 509 -208 850 -284 l203 -45 284 0 c587 0 780 29 1212 177 722 248 1293
686 1710 1313 237 356 400 746 504 1210 51 223 54 270 49 741 l-4 434 -35 151
c-117 493 -258 849 -471 1181 -175 275 -480 618 -727 817 -98 79 -322 229
-457 305 -224 126 -461 225 -743 310 -167 49 -226 60 -365 67 -60 2 -130 6
-155 7 -25 1 -277 0 -560 -3z m548 -210 c412 -45 888 -210 1238 -429 765 -479
1284 -1238 1453 -2121 41 -218 46 -279 45 -580 0 -269 -2 -311 -27 -470 -90
-589 -348 -1138 -757 -1615 -451 -525 -1165 -912 -1873 -1014 -319 -47 -576
-48 -892 -5 -888 122 -1708 651 -2201 1420 -183 286 -342 673 -413 1004 -82
382 -93 830 -30 1220 100 615 406 1215 847 1664 436 443 907 713 1497 860 96
24 292 61 365 69 81 9 659 6 748 -3z"/>
<path d="M4590 7493 c-158 -26 -228 -115 -385 -484 l-58 -136 -226 -6 c-306
-9 -364 -24 -473 -125 -32 -30 -77 -85 -98 -122 l-40 -66 0 -845 c0 -465 3
-954 7 -1087 6 -217 8 -242 23 -242 9 0 51 25 93 57 l77 56 1 576 c0 317 4
761 8 986 8 458 6 448 81 522 52 52 47 51 460 73 102 6 195 13 208 16 25 7 73
99 178 344 73 170 103 221 140 240 25 13 107 15 554 15 401 0 534 -3 561 -13
43 -15 59 -42 192 -332 113 -245 114 -248 157 -254 19 -3 126 -11 238 -17
l203 -11 55 38 c85 58 168 128 167 139 -1 6 -20 15 -43 22 -46 13 -307 33
-441 33 l-86 0 -38 98 c-21 53 -67 157 -103 230 -73 151 -131 222 -217 271
l-55 31 -557 -1 c-307 -1 -569 -4 -583 -6z"/>
<path d="M7275 6799 c-90 -48 -129 -75 -2605 -1850 -1275 -915 -1484 -1068
-1516 -1113 -19 -27 -18 -100 2 -137 17 -33 66 -59 111 -59 49 0 123 44 392
234 l265 186 985 1 c542 0 1144 4 1336 9 380 9 447 18 517 67 52 36 145 151
164 204 22 61 33 290 34 669 0 173 3 521 7 773 l6 457 181 132 c278 203 335
264 320 346 -16 89 -110 128 -199 81z m-540 -966 c4 -120 5 -477 3 -793 -5
-516 -7 -579 -23 -618 -20 -48 -92 -117 -133 -126 -107 -24 -1653 -29 -2179
-7 l-152 6 390 278 389 278 118 10 c202 19 339 78 463 200 80 79 126 150 178
272 l39 92 324 233 c434 312 548 392 563 392 10 0 15 -54 20 -217z"/>
<path d="M4988 6241 c-357 -116 -579 -442 -528 -776 12 -77 52 -207 72 -232
19 -24 45 -13 179 79 311 212 971 689 976 705 8 23 -117 120 -210 164 -148 68
-376 97 -489 60z"/>
</g>
</svg>
