<svg width="24" height="24" viewBox="0 0 24 24" fill="none" xmlns="http://www.w3.org/2000/svg">
<g clip-path="url(#clip0_2717_10930)">
<path d="M12.1197 12.78C12.0497 12.77 11.9597 12.77 11.8797 12.78C10.1197 12.72 8.71973 11.28 8.71973 9.50998C8.71973 7.69998 10.1797 6.22998 11.9997 6.22998C13.8097 6.22998 15.2797 7.69998 15.2797 9.50998C15.2697 11.28 13.8797 12.72 12.1197 12.78Z" stroke="white" stroke-width="1.5" stroke-linecap="round" stroke-linejoin="round"/>
<path d="M18.7398 19.3801C16.9598 21.0101 14.5998 22.0001 11.9998 22.0001C9.39977 22.0001 7.03977 21.0101 5.25977 19.3801C5.35977 18.4401 5.95977 17.5201 7.02977 16.8001C9.76977 14.9801 14.2498 14.9801 16.9698 16.8001C18.0398 17.5201 18.6398 18.4401 18.7398 19.3801Z" stroke="white" stroke-width="1.5" stroke-linecap="round" stroke-linejoin="round"/>
<path d="M12 22C17.5228 22 22 17.5228 22 12C22 6.47715 17.5228 2 12 2C6.47715 2 2 6.47715 2 12C2 17.5228 6.47715 22 12 22Z" stroke="white" stroke-width="1.5" stroke-linecap="round" stroke-linejoin="round"/>
</g>
<defs>
<clipPath id="clip0_2717_10930">
<rect width="24" height="24" fill="white"/>
</clipPath>
</defs>
</svg>
