<svg width="14" height="15" viewBox="0 0 14 15" fill="none" xmlns="http://www.w3.org/2000/svg">
<path fill-rule="evenodd" clip-rule="evenodd" d="M5.13797 9.2473C5.07235 9.08697 4.94508 8.9597 4.78474 8.89407C4.7068 8.86233 4.62337 8.84623 4.53921 8.84669H1.95459C1.59773 8.84669 1.30844 9.13598 1.30844 9.49284C1.30844 9.8497 1.59773 10.139 1.95459 10.139H2.97982L0.205673 12.9131C0.0328033 13.0742 -0.0383563 13.3168 0.0201108 13.5458C0.0785778 13.7747 0.257347 13.9535 0.486286 14.0119C0.715225 14.0704 0.957821 13.9992 1.1189 13.8264L3.89305 11.0522V12.0775C3.89305 12.4343 4.18235 12.7236 4.53921 12.7236C4.89607 12.7236 5.18536 12.4343 5.18536 12.0775V9.49284C5.18471 9.41158 5.16863 9.33118 5.13797 9.25592V9.2473Z" fill="black"/>
<path fill-rule="evenodd" clip-rule="evenodd" d="M9.27701 5.40072H11.8616C12.2185 5.40072 12.5078 5.11143 12.5078 4.75456C12.5078 4.3977 12.2185 4.10841 11.8616 4.10841H10.8364L13.8259 1.11888C14.0632 0.864284 14.0562 0.467546 13.8101 0.221481C13.564 -0.0245845 13.1673 -0.0315845 12.9127 0.205647L9.92317 3.19518V2.16995C9.92317 1.81309 9.63387 1.5238 9.27701 1.5238C8.92015 1.5238 8.63086 1.81309 8.63086 2.16995V4.75456C8.63086 4.92594 8.69894 5.09029 8.82011 5.21146C8.94129 5.33264 9.10564 5.40072 9.27701 5.40072Z" fill="black"/>
<path fill-rule="evenodd" clip-rule="evenodd" d="M4.53921 1.52383C4.18235 1.52383 3.89305 1.81312 3.89305 2.16998V2.97982L1.1189 0.205673C0.957821 0.0328033 0.715225 -0.0383563 0.486286 0.0201108C0.257347 0.0785778 0.0785778 0.257347 0.0201108 0.486286C-0.0383563 0.715225 0.0328033 0.957821 0.205673 1.1189L3.19521 4.10844H1.95459C1.59773 4.10844 1.30844 4.39773 1.30844 4.75459C1.30844 5.11145 1.59773 5.40074 1.95459 5.40074H4.53921C4.89607 5.40074 5.18536 5.11145 5.18536 4.75459V2.16998C5.18536 1.81312 4.89607 1.52383 4.53921 1.52383Z" fill="black"/>
<path fill-rule="evenodd" clip-rule="evenodd" d="M11.0518 10.139H11.8616C12.2185 10.139 12.5078 9.84969 12.5078 9.49283C12.5078 9.13597 12.2185 8.84668 11.8616 8.84668H9.27701C8.92015 8.84668 8.63086 9.13597 8.63086 9.49283V12.0774C8.63086 12.4343 8.92015 12.7236 9.27701 12.7236C9.63387 12.7236 9.92317 12.4343 9.92317 12.0774V10.8368L12.9127 13.8264C13.1673 14.0636 13.564 14.0566 13.8101 13.8105C14.0562 13.5645 14.0632 13.1677 13.8259 12.9131L11.0518 10.139Z" fill="black"/>
</svg>
