<svg width="14" height="15" viewBox="0 0 14 15" fill="none" xmlns="http://www.w3.org/2000/svg">
<path fill-rule="evenodd" clip-rule="evenodd" d="M0.047328 13.6316C0.112956 13.7919 0.240222 13.9192 0.400558 13.9848C0.478506 14.0166 0.561935 14.0327 0.646096 14.0322H3.23071C3.58757 14.0322 3.87686 13.7429 3.87686 13.3861C3.87686 13.0292 3.58757 12.7399 3.23071 12.7399H2.20548L4.97963 9.96576C5.1525 9.80468 5.22366 9.56208 5.16519 9.33314C5.10672 9.1042 4.92796 8.92544 4.69902 8.86697C4.47008 8.8085 4.22748 8.87966 4.0664 9.05253L1.29225 11.8267V10.8015C1.29225 10.4446 1.00296 10.1553 0.646096 10.1553C0.289236 10.1553 -5.67436e-05 10.4446 -5.67436e-05 10.8015V13.3861C0.000597 13.4673 0.0166769 13.5477 0.047328 13.623V13.6316Z" fill="#503C3B"/>
<path fill-rule="evenodd" clip-rule="evenodd" d="M13.3541 0.0318995H10.7695C10.4126 0.0318995 10.1233 0.321192 10.1233 0.678052C10.1233 1.03491 10.4126 1.32421 10.7695 1.32421H11.7947L8.80517 4.31374C8.56794 4.56833 8.57494 4.96507 8.82101 5.21114C9.06707 5.4572 9.46381 5.4642 9.7184 5.22697L12.7079 2.23744V3.26266C12.7079 3.61952 12.9972 3.90882 13.3541 3.90882C13.711 3.90882 14.0002 3.61952 14.0002 3.26266V0.678052C14.0002 0.506682 13.9322 0.34233 13.811 0.221153C13.6898 0.0999761 13.5255 0.0318995 13.3541 0.0318995Z" fill="#503C3B"/>
<path fill-rule="evenodd" clip-rule="evenodd" d="M0.646096 3.87656C1.00296 3.87656 1.29225 3.58727 1.29225 3.23041V2.42057L4.0664 5.19472C4.22748 5.36759 4.47008 5.43875 4.69902 5.38028C4.92796 5.32181 5.10672 5.14304 5.16519 4.9141C5.22366 4.68517 5.1525 4.44257 4.97963 4.28149L1.99009 1.29195H3.23071C3.58757 1.29195 3.87686 1.00266 3.87686 0.6458C3.87686 0.288939 3.58757 -0.000353336 3.23071 -0.000353336L0.646096 -0.000353336C0.289236 -0.000353336 -5.67436e-05 0.288939 -5.67436e-05 0.6458L-5.67436e-05 3.23041C-5.67436e-05 3.58727 0.289236 3.87656 0.646096 3.87656Z" fill="#503C3B"/>
<path fill-rule="evenodd" clip-rule="evenodd" d="M11.5791 12.7077H10.7692C10.4124 12.7077 10.1231 12.997 10.1231 13.3538C10.1231 13.7107 10.4124 14 10.7692 14H13.3538C13.7107 14 14 13.7107 14 13.3538V10.7692C14 10.4124 13.7107 10.1231 13.3538 10.1231C12.997 10.1231 12.7077 10.4124 12.7077 10.7692V12.0098L9.71816 9.02031C9.46357 8.78308 9.06683 8.79008 8.82076 9.03615C8.5747 9.28221 8.5677 9.67895 8.80493 9.93354L11.5791 12.7077Z" fill="#503C3B"/>
</svg>
