<svg width="20" height="20" viewBox="0 0 20 20" fill="none" xmlns="http://www.w3.org/2000/svg">
<path d="M13.4915 1.66699H6.50817C3.47484 1.66699 1.6665 3.47533 1.6665 6.50866V13.4837C1.6665 16.5253 3.47484 18.3337 6.50817 18.3337H13.4832C16.5165 18.3337 18.3248 16.5253 18.3248 13.492V6.50866C18.3332 3.47533 16.5248 1.66699 13.4915 1.66699ZM14.3748 10.2753C14.3748 10.617 14.0915 10.9003 13.7498 10.9003C13.4082 10.9003 13.1248 10.617 13.1248 10.2753V7.75866L6.6915 14.192C6.5665 14.317 6.40817 14.3753 6.24984 14.3753C6.0915 14.3753 5.93317 14.317 5.80817 14.192C5.5665 13.9503 5.5665 13.5503 5.80817 13.3087L12.2415 6.87533H9.72484C9.38317 6.87533 9.09984 6.59199 9.09984 6.25033C9.09984 5.90866 9.38317 5.62533 9.72484 5.62533H13.7498C14.0915 5.62533 14.3748 5.90866 14.3748 6.25033V10.2753Z" fill="#503C3B"/>
</svg>
