<svg width="20" height="20" viewBox="0 0 20 20" fill="none" xmlns="http://www.w3.org/2000/svg">
<path d="M17.725 7.64992C17.4834 7.26659 17.225 6.90825 16.9584 6.57492C16.65 6.18325 16.0667 6.14992 15.7167 6.49992L13.2167 8.99992C13.4 9.54992 13.4334 10.1833 13.2667 10.8416C12.975 12.0166 12.025 12.9666 10.85 13.2583C10.1917 13.4249 9.55837 13.3916 9.00837 13.2083C9.00837 13.2083 7.81671 14.3999 6.95837 15.2583C6.54171 15.6749 6.67504 16.4083 7.23337 16.6249C8.12504 16.9666 9.05004 17.1416 10 17.1416C11.4834 17.1416 12.925 16.7083 14.2417 15.8999C15.5834 15.0666 16.7917 13.8416 17.7667 12.2833C18.5584 11.0249 18.5167 8.90825 17.725 7.64992Z" fill="#503C3B"/>
<path d="M11.6834 8.31621L8.3167 11.6829C7.8917 11.2495 7.6167 10.6495 7.6167 9.99954C7.6167 8.69121 8.68337 7.61621 10 7.61621C10.65 7.61621 11.25 7.89121 11.6834 8.31621Z" fill="#503C3B"/>
<path d="M15.2082 4.79173L12.3832 7.61673C11.7748 7.00006 10.9332 6.6334 9.99984 6.6334C8.13317 6.6334 6.63317 8.14173 6.63317 10.0001C6.63317 10.9334 7.00817 11.7751 7.6165 12.3834L4.79984 15.2084H4.7915C3.8665 14.4584 3.0165 13.5001 2.2915 12.3667C1.45817 11.0584 1.45817 8.9334 2.2915 7.62506C3.25817 6.1084 4.4415 4.91673 5.75817 4.10007C7.07484 3.30007 8.5165 2.8584 9.99984 2.8584C11.8582 2.8584 13.6582 3.54173 15.2082 4.79173Z" fill="#503C3B"/>
<path d="M12.3834 10.0001C12.3834 11.3084 11.3167 12.3834 10.0001 12.3834C9.95007 12.3834 9.9084 12.3834 9.8584 12.3667L12.3667 9.8584C12.3834 9.9084 12.3834 9.95007 12.3834 10.0001Z" fill="#503C3B"/>
<path d="M18.1417 1.8584C17.8917 1.6084 17.4834 1.6084 17.2334 1.8584L1.8584 17.2417C1.6084 17.4917 1.6084 17.9001 1.8584 18.1501C1.9834 18.2667 2.14173 18.3334 2.3084 18.3334C2.47507 18.3334 2.6334 18.2667 2.7584 18.1417L18.1417 2.7584C18.4001 2.5084 18.4001 2.1084 18.1417 1.8584Z" fill="#503C3B"/>
</svg>
