<svg width="22" height="23" viewBox="0 0 22 23" fill="none" xmlns="http://www.w3.org/2000/svg">
<path d="M20.1663 15.3405C20.1663 18.6772 18.1772 20.6663 14.8405 20.6663H13.7497C13.2455 20.6663 12.833 20.2538 12.833 19.7497V14.4605C12.833 14.213 13.0347 14.0022 13.2822 14.0022L14.8955 13.9747C15.0238 13.9655 15.1338 13.8739 15.1613 13.7455L15.4822 11.9947C15.5097 11.8297 15.3813 11.6738 15.2072 11.6738L13.2547 11.7013C12.998 11.7013 12.7964 11.4997 12.7872 11.2522L12.7505 9.00634C12.7505 8.85967 12.8697 8.73135 13.0255 8.73135L15.2255 8.69468C15.3813 8.69468 15.5005 8.57552 15.5005 8.41969L15.4638 6.21967C15.4638 6.06383 15.3447 5.94468 15.1888 5.94468L12.7138 5.98135C11.1922 6.00885 9.98219 7.25551 10.0097 8.77717L10.0555 11.298C10.0647 11.5547 9.86302 11.7563 9.60635 11.7655L8.50634 11.7838C8.35051 11.7838 8.23135 11.903 8.23135 12.0588L8.25885 13.8005C8.25885 13.9564 8.37801 14.0755 8.53384 14.0755L9.63385 14.0572C9.89052 14.0572 10.0922 14.2588 10.1013 14.5063L10.1838 19.7314C10.193 20.2447 9.78049 20.6663 9.26716 20.6663H7.15884C3.82217 20.6663 1.83301 18.6772 1.83301 15.3313V7.65884C1.83301 4.32217 3.82217 2.33301 7.15884 2.33301H14.8405C18.1772 2.33301 20.1663 4.32217 20.1663 7.65884V15.3405Z" fill="#3897F0"/>
</svg>
