<svg width="60" height="60" viewBox="0 0 60 60" fill="none" xmlns="http://www.w3.org/2000/svg">
<g clip-path="url(#clip0_1236_17037)">
<path d="M60 30C60 13.4309 46.5679 0 30 0C13.4321 0 0 13.4309 0 30C0 44.9734 10.9711 57.3851 25.3123 59.6354V38.6722H17.6948V30H25.3123V23.3911C25.3123 15.8718 29.7917 11.7192 36.6433 11.7192C39.9258 11.7192 43.3587 12.3111 43.3587 12.3111V19.693H39.5766C35.849 19.693 34.6877 22.0061 34.6877 24.3783V30.0059H43.0071L41.6778 38.6781H34.6841V59.6354C49.0289 57.3851 60 44.9734 60 30Z" fill="#1877F2"/>
<path d="M41.6778 38.6722L43.0071 30H34.6841V24.3724C34.6841 22.0049 35.8454 19.6871 39.5731 19.6871H43.3552V12.3111C43.3552 12.3111 39.9223 11.7192 36.6397 11.7192C29.7881 11.7192 25.3088 15.8719 25.3088 23.3911V30H17.6948V38.6722H25.3123V59.6354C28.4185 60.1216 31.5815 60.1216 34.6877 59.6354V38.6722H41.6778Z" fill="white"/>
</g>
<defs>
<clipPath id="clip0_1236_17037">
<rect width="60" height="60" fill="white"/>
</clipPath>
</defs>
</svg>
