<svg width="30" height="27" viewBox="0 0 30 27" fill="none" xmlns="http://www.w3.org/2000/svg">
<g clip-path="url(#clip0_3345_12048)">
<path d="M14.2234 4.83592L14.8735 5.47039L15.5019 4.81447C15.6914 4.61672 15.8731 4.42466 16.0491 4.23869C17.7513 2.4397 18.9131 1.21179 21.3022 0.935598C23.7963 0.651645 26.2121 1.78815 27.6834 3.64458C29.1382 5.48032 29.6432 7.98085 28.3882 10.4854L28.3881 10.4856C27.6431 11.9734 26.0775 13.8178 24.2464 15.7124L24.2462 15.7126C22.9872 17.016 21.6682 18.2788 20.4642 19.4316C19.7457 20.1195 19.0681 20.7682 18.4686 21.363L14.845 24.9575L11.968 22.1886C11.968 22.1885 11.9679 22.1885 11.9678 22.1884C11.2651 21.5117 10.511 20.8242 9.7364 20.1181C8.10362 18.6297 6.37997 17.0584 4.85494 15.3298C2.6216 12.7984 1.01092 10.1304 0.900373 7.27421C0.768199 3.4291 3.76788 0.922567 7.3744 0.968231C9.00435 0.990376 10.1185 1.39922 11.0986 2.04418C11.9705 2.61793 12.7365 3.37261 13.6846 4.30674C13.8575 4.47717 14.0366 4.65356 14.2234 4.83592Z" stroke="#503C3B" stroke-width="1.8"/>
</g>
<defs>
<clipPath id="clip0_3345_12048">
<rect width="30" height="26.2183" fill="white"/>
</clipPath>
</defs>
</svg>