<svg width="22" height="20" viewBox="0 0 22 20" fill="none" xmlns="http://www.w3.org/2000/svg">
<path fill-rule="evenodd" clip-rule="evenodd" d="M0.769082 3.59098H2.15856C2.49996 4.80501 3.60717 5.6438 4.86829 5.6438C6.12941 5.6438 7.23662 4.80501 7.57802 3.59098H20.7652C21.19 3.59098 21.5343 3.24665 21.5343 2.8219C21.5343 2.39715 21.19 2.05282 20.7652 2.05282H7.58315C7.24174 0.838793 6.13453 0 4.87342 0C3.6123 0 2.50509 0.838793 2.16368 2.05282H0.769082C0.34433 2.05282 0 2.39715 0 2.8219C0 3.24665 0.34433 3.59098 0.769082 3.59098ZM4.87085 1.5401C5.57877 1.5401 6.15266 2.11398 6.15266 2.8219C6.15266 3.52982 5.57877 4.1037 4.87085 4.1037C4.16293 4.1037 3.58905 3.52982 3.58905 2.8219C3.58905 2.11398 4.16293 1.5401 4.87085 1.5401Z" fill="#503C3B"/>
<path fill-rule="evenodd" clip-rule="evenodd" d="M20.7652 9.23091H13.3923C12.9727 8.14668 11.9297 7.43195 10.7671 7.43195C9.60456 7.43195 8.56159 8.14668 8.14201 9.23091H0.769082C0.34433 9.23091 0 9.57524 0 9.99999C0 10.4247 0.34433 10.7691 0.769082 10.7691H7.99845C8.24943 12.1018 9.41353 13.0672 10.7697 13.0672C12.1259 13.0672 13.29 12.1018 13.541 10.7691H20.7652C21.19 10.7691 21.5343 10.4247 21.5343 9.99999C21.5343 9.57524 21.19 9.23091 20.7652 9.23091ZM10.7671 11.5382C10.0592 11.5382 9.48534 10.9643 9.48534 10.2564C9.48534 9.54843 10.0592 8.97455 10.7671 8.97455C11.4751 8.97455 12.049 9.54843 12.049 10.2564C12.049 10.9643 11.4751 11.5382 10.7671 11.5382Z" fill="#503C3B"/>
<path fill-rule="evenodd" clip-rule="evenodd" d="M20.7652 16.409H19.3757C19.0343 15.195 17.9271 14.3562 16.666 14.3562C15.4049 14.3562 14.2977 15.195 13.9563 16.409H0.769082C0.34433 16.409 0 16.7534 0 17.1781C0 17.6029 0.34433 17.9472 0.769082 17.9472H13.9511C14.2926 19.1612 15.3998 20 16.6609 20C17.922 20 19.0292 19.1612 19.3706 17.9472H20.7652C21.19 17.9472 21.5343 17.6029 21.5343 17.1781C21.5343 16.7534 21.19 16.409 20.7652 16.409ZM16.6634 18.4599C15.9555 18.4599 15.3816 17.886 15.3816 17.1781C15.3816 16.4702 15.9555 15.8963 16.6634 15.8963C17.3714 15.8963 17.9452 16.4702 17.9452 17.1781C17.9452 17.886 17.3714 18.4599 16.6634 18.4599Z" fill="#503C3B"/>
</svg>
