<svg width="8" height="13" viewBox="0 0 8 13" fill="none" xmlns="http://www.w3.org/2000/svg">
<path d="M1.8305 0.895662L7.32079 6.36966C7.38596 6.43483 7.43201 6.50542 7.45895 6.58145C7.48632 6.65748 7.5 6.73894 7.5 6.82583C7.5 6.91272 7.48632 6.99417 7.45895 7.0702C7.43201 7.14623 7.38596 7.21683 7.32079 7.28199L1.8305 12.7723C1.67845 12.9243 1.48838 13.0004 1.26029 13.0004C1.03221 13.0004 0.83671 12.9189 0.673794 12.756C0.510877 12.5931 0.429419 12.403 0.429419 12.1858C0.429419 11.9686 0.510877 11.7785 0.673794 11.6156L5.46354 6.82583L0.673795 2.03608C0.521739 1.88402 0.445711 1.69678 0.445711 1.47434C0.445711 1.25147 0.527169 1.05858 0.690086 0.895662C0.853003 0.732746 1.04307 0.651287 1.26029 0.651287C1.47752 0.651287 1.66759 0.732746 1.8305 0.895662Z" fill="#543B3A"/>
</svg>
