<svg width="24" height="24" viewBox="0 0 24 24" fill="none" xmlns="http://www.w3.org/2000/svg">
<path d="M9 10C10.1046 10 11 9.10457 11 8C11 6.89543 10.1046 6 9 6C7.89543 6 7 6.89543 7 8C7 9.10457 7.89543 10 9 10Z" stroke="#503C3B" stroke-width="1.5" stroke-linecap="round" stroke-linejoin="round"/>
<path d="M13 2H9C4 2 2 4 2 9V15C2 20 4 22 9 22H15C20 22 22 20 22 15V10" stroke="#503C3B" stroke-width="1.5" stroke-linecap="round" stroke-linejoin="round"/>
<path d="M15.75 5H21.25" stroke="#503C3B" stroke-width="1.5" stroke-linecap="round"/>
<path d="M18.5 7.75V2.25" stroke="#503C3B" stroke-width="1.5" stroke-linecap="round"/>
<path d="M2.67188 18.9496L7.60187 15.6396C8.39187 15.1096 9.53187 15.1696 10.2419 15.7796L10.5719 16.0696C11.3519 16.7396 12.6119 16.7396 13.3919 16.0696L17.5519 12.4996C18.3319 11.8296 19.5919 11.8296 20.3719 12.4996L22.0019 13.8996" stroke="#503C3B" stroke-width="1.5" stroke-linecap="round" stroke-linejoin="round"/>
</svg>
