<svg width="21" height="21" viewBox="0 0 21 21" fill="none" xmlns="http://www.w3.org/2000/svg">
<g clip-path="url(#clip0_1450_7703)">
<path fill-rule="evenodd" clip-rule="evenodd" d="M10.4997 0C16.2981 0 20.9998 4.70193 20.9998 10.4997C20.9998 16.2982 16.2979 20.9998 10.4997 20.9998C4.70193 20.9998 0 16.2981 0 10.4997C0 4.70176 4.70193 0 10.4997 0ZM10.4997 4.95178C11.1682 4.95178 11.8098 5.07021 12.4031 5.28709L14.847 2.84341C13.5646 2.11333 12.0806 1.69634 10.4997 1.69634C8.9021 1.69634 7.40349 2.12222 6.11133 2.86716L8.54954 5.30486C9.15657 5.07688 9.81384 4.95178 10.4997 4.95178ZM15.7845 8.80725C15.9554 9.34097 16.048 9.90989 16.048 10.4997C16.048 11.186 15.9229 11.8434 15.6946 12.4503L18.1328 14.8887C18.8773 13.5965 19.3038 12.0979 19.3038 10.4997C19.3038 8.99336 18.9248 7.5749 18.2574 6.33452L15.7845 8.80725ZM12.1434 15.8004C11.6242 15.9612 11.0717 16.048 10.4998 16.048C9.91006 16.048 9.34114 15.9552 8.80742 15.7844L6.33469 18.2567C7.5749 18.9243 8.99353 19.3035 10.4998 19.3035C11.9897 19.3035 13.3926 18.9326 14.6228 18.2795L12.1434 15.8004ZM5.28743 12.4028C5.07021 11.8093 4.95178 11.168 4.95178 10.4995C4.95178 9.928 5.0386 9.37566 5.19941 8.8563L2.72036 6.37725C2.06719 7.60737 1.69634 9.01045 1.69634 10.4997C1.69634 12.0805 2.11367 13.5642 2.84341 14.8466L5.28743 12.4028ZM14.3408 10.4997C14.3408 10.6888 14.3269 10.8748 14.3006 11.0568C14.2969 11.0838 14.2922 11.1118 14.2878 11.1388L14.2875 11.1412C14.1282 12.0888 13.6216 12.9186 12.9039 13.4953L12.8986 13.4993C12.8799 13.5146 12.8608 13.5293 12.8423 13.544L12.8312 13.5524C12.6817 13.6662 12.5234 13.77 12.3592 13.8612L12.3589 13.8616C12.3365 13.8739 12.3139 13.8864 12.2912 13.898L12.283 13.9026C12.2601 13.9142 12.237 13.9263 12.2145 13.9376L12.2131 13.9383C12.0427 14.0234 11.8643 14.0962 11.6826 14.155L11.676 14.1571C11.651 14.1654 11.6259 14.1731 11.6009 14.1805L11.5972 14.1815C11.5717 14.1895 11.5456 14.1969 11.5196 14.2042L11.5175 14.2046C11.3583 14.248 11.1949 14.2816 11.0312 14.304L11.018 14.3061C10.9939 14.3095 10.9695 14.3121 10.9452 14.3155L10.9312 14.3168C10.9071 14.3196 10.8833 14.3218 10.8587 14.3242L10.842 14.3259L10.7695 14.3315L10.7572 14.3326C10.7317 14.3339 10.7061 14.3356 10.6801 14.3365C10.6203 14.3396 10.5603 14.3408 10.4998 14.3408C10.4188 14.3408 10.3383 14.338 10.2583 14.3327C9.33755 14.2757 8.50459 13.8939 7.87261 13.3007L7.87227 13.3003C7.71606 13.1544 7.57148 12.9932 7.44194 12.823L7.43682 12.8164C7.42144 12.7964 7.40588 12.7753 7.39067 12.7547L7.38828 12.7512C7.37358 12.7306 7.35769 12.7089 7.34316 12.6878L7.34077 12.6843C7.24968 12.5525 7.1656 12.4142 7.0916 12.2724L7.08784 12.265C7.07708 12.244 7.06648 12.2227 7.05605 12.202L7.05007 12.19C7.04016 12.1697 7.02974 12.148 7.02017 12.1276L7.01282 12.1126C7.00325 12.0916 6.99402 12.0702 6.98462 12.0492L6.97966 12.0376C6.96992 12.0159 6.96069 11.9938 6.95129 11.9718L6.94583 11.9581C6.93694 11.9364 6.92805 11.9144 6.91899 11.8923L6.91797 11.8889C6.88003 11.7898 6.84517 11.6883 6.81492 11.5864L6.81133 11.5741C6.80483 11.5514 6.79868 11.5286 6.79253 11.5061L6.78826 11.491C6.7821 11.469 6.77629 11.4456 6.771 11.4234L6.76689 11.4063C6.76143 11.3849 6.75613 11.3625 6.75151 11.3412L6.7469 11.3198C6.74263 11.2981 6.73716 11.2743 6.73289 11.2523L6.73152 11.2439C6.71597 11.1648 6.70281 11.085 6.69238 11.004C6.67051 10.8374 6.65906 10.6688 6.65906 10.5007V10.5C6.65906 10.4395 6.66111 10.3799 6.66333 10.3207C6.71904 9.10701 7.33872 8.03992 8.26619 7.37581C9.57698 6.53003 11.4189 6.52935 12.7306 7.37375C13.6438 8.02642 14.2594 9.06924 14.3331 10.2587L14.3346 10.2575C14.3384 10.3368 14.3408 10.4175 14.3408 10.4997Z" fill="#503C3B"/>
</g>
<defs>
<clipPath id="clip0_1450_7703">
<rect width="21" height="20.9998" fill="white"/>
</clipPath>
</defs>
</svg>
