<svg width="22" height="21" viewBox="0 0 22 21" fill="none" xmlns="http://www.w3.org/2000/svg">
<path d="M16 17.0004H12L7.54999 19.9604C6.88999 20.4004 6 19.9304 6 19.1304V17.0004C3 17.0004 1 15.0004 1 12.0004V6.00037C1 3.00037 3 1.00037 6 1.00037H16C19 1.00037 21 3.00037 21 6.00037V12.0004C21 15.0004 19 17.0004 16 17.0004Z" stroke="#543B3A" stroke-width="1.7" stroke-miterlimit="10" stroke-linecap="round" stroke-linejoin="round"/>
<path d="M10.9999 8.66034C12.2868 8.66034 13.33 7.61715 13.33 6.33032C13.33 5.0435 12.2868 4.00037 10.9999 4.00037C9.71312 4.00037 8.66992 5.0435 8.66992 6.33032C8.66992 7.61715 9.71312 8.66034 10.9999 8.66034Z" stroke="#543B3A" stroke-width="1.7" stroke-linecap="round" stroke-linejoin="round"/>
<path d="M15 14.3204C15 12.5204 13.21 11.0604 11 11.0604C8.79 11.0604 7 12.5204 7 14.3204" stroke="#543B3A" stroke-width="1.7" stroke-linecap="round" stroke-linejoin="round"/>
</svg>
