<svg width="20" height="20" viewBox="0 0 20 20" fill="none" xmlns="http://www.w3.org/2000/svg">
<path fill-rule="evenodd" clip-rule="evenodd" d="M10 0C4.47715 0 0 4.47715 0 10C0 15.5228 4.47715 20 10 20C15.5228 20 20 15.5228 20 10C20 4.47715 15.5228 0 10 0ZM15.6 3.43182L13.3682 5.66364L13.3409 5.69545C11.3787 4.15863 8.62126 4.15863 6.65909 5.69545L6.63182 5.66364L4.4 3.43182C7.62458 0.670809 12.38 0.670809 15.6045 3.43182H15.6ZM10 14.0909C7.74065 14.0909 5.90909 12.2593 5.90909 10C5.90909 7.74065 7.74065 5.90909 10 5.90909C12.2593 5.90909 14.0909 7.74065 14.0909 10C14.0909 12.2593 12.2593 14.0909 10 14.0909ZM1.36364 10C1.36186 7.94619 2.09553 5.95963 3.43182 4.4L5.66364 6.63182L5.69545 6.65909C4.15863 8.62126 4.15863 11.3787 5.69545 13.3409L5.66364 13.3682L3.43182 15.6C2.09553 14.0404 1.36186 12.0538 1.36364 10ZM4.4 16.5682L6.63182 14.3364L6.65909 14.3045C8.62126 15.8414 11.3787 15.8414 13.3409 14.3045L13.3682 14.3364L15.6 16.5682C12.3754 19.3292 7.62003 19.3292 4.39545 16.5682H4.4ZM16.5682 15.6045L14.3182 13.3682L14.2864 13.3409C15.8232 11.3787 15.8232 8.62126 14.2864 6.65909L14.3182 6.63182L16.55 4.4C19.311 7.62458 19.311 12.38 16.55 15.6045H16.5682Z" fill="#543B3A"/>
</svg>
