<svg width="24" height="24" viewBox="0 0 24 24" fill="none" xmlns="http://www.w3.org/2000/svg">
<path fill-rule="evenodd" clip-rule="evenodd" d="M1.90167 5.85968L8.19 0.959682C9.765 -0.265318 12.39 -0.323652 14.0233 0.819682L21.2333 5.87135C22.3883 6.67635 23.3333 8.48468 23.3333 9.89635V18.3897C23.3333 21.0847 21.1283 23.3013 18.4217 23.3013H4.91167C2.205 23.3013 0 21.0847 0 18.378V9.73301C0 8.41468 0.851667 6.67635 1.90167 5.85968ZM9.91797 7.24844C7.49591 7.24844 5.51797 9.22638 5.51797 11.6484V13.3984V15.1484C5.51797 17.5705 7.49591 19.5484 9.91797 19.5484H11.668H13.418C15.84 19.5484 17.818 17.5705 17.818 15.1484V13.3984V11.6484C17.818 9.22638 15.84 7.24844 13.418 7.24844H11.668H9.91797ZM16.018 12.4984V11.6484C16.018 10.2205 14.8459 9.04844 13.418 9.04844H12.568V12.4984H16.018ZM12.568 14.2984H16.018V15.1484C16.018 16.5764 14.8459 17.7484 13.418 17.7484H12.568V14.2984ZM10.768 12.4984V9.04844H9.91797C8.49002 9.04844 7.31797 10.2205 7.31797 11.6484V12.4984H10.768ZM7.31797 14.2984H10.768V17.7484H9.91797C8.49002 17.7484 7.31797 16.5764 7.31797 15.1484V14.2984Z" fill="#503C3B"/>
</svg>