<svg width="25" height="24" viewBox="0 0 25 24" fill="none" xmlns="http://www.w3.org/2000/svg">
<g id="vuesax/linear/row-vertical">
<g id="row-vertical">
<path id="Vector" d="M20.8531 13.5H5.05312C3.55312 13.5 2.95312 14.14 2.95312 15.73V19.77C2.95313 21.36 3.55312 22 5.05312 22H20.8531C22.3531 22 22.9531 21.36 22.9531 19.77V15.73C22.9531 14.14 22.3531 13.5 20.8531 13.5Z" stroke="#503C3B" stroke-width="1.8" stroke-linecap="round" stroke-linejoin="round"/>
<path id="Vector_2" d="M20.8531 2H5.05312C3.55312 2 2.95312 2.64 2.95312 4.23V8.27C2.95312 9.86 3.55312 10.5 5.05312 10.5H20.8531C22.3531 10.5 22.9531 9.86 22.9531 8.27V4.23C22.9531 2.64 22.3531 2 20.8531 2Z" stroke="#503C3B" stroke-width="1.8" stroke-linecap="round" stroke-linejoin="round"/>
</g>
</g>
</svg>
