<svg width="25" height="25" viewBox="0 0 25 25" fill="none" xmlns="http://www.w3.org/2000/svg">
<path d="M11.7324 0.263358C11.9519 0.092671 12.2219 0 12.4999 0C12.7779 0 13.048 0.092671 13.2674 0.263358L23.5524 8.26308C24.0034 8.61394 24.3683 9.06324 24.6192 9.57666C24.8701 10.0901 25.0003 10.654 24.9999 11.2255V22.5001C24.9999 23.1631 24.7365 23.799 24.2677 24.2678C23.7988 24.7366 23.1629 25 22.4999 25H17.4999C16.8369 25 16.201 24.7366 15.7322 24.2678C15.2633 23.799 14.9999 23.1631 14.9999 22.5001V15.0003H9.99995V22.5001C9.99995 23.1631 9.73656 23.799 9.26772 24.2678C8.79888 24.7366 8.163 25 7.49996 25H2.49999C1.83695 25 1.20107 24.7366 0.73223 24.2678C0.263391 23.799 0 23.1631 0 22.5001V11.2255C0 10.0655 0.534998 8.97556 1.44999 8.26308L11.7324 0.263358Z" fill="#503C3B"/>
</svg>
