<svg fill="none" height="24" viewBox="0 0 24 24" width="24" xmlns="http://www.w3.org/2000/svg"><g stroke="#503c3b" stroke-linecap="round" stroke-linejoin="round" stroke-width="1.5"><path d="m9.02 2.83999-5.39 4.2c-.9.7-1.63 2.19-1.63 3.32001v7.41c0 2.32 1.89 4.22 4.21 4.22h11.58c2.32 0 4.21-1.9 4.21-4.21v-7.28c0-1.21001-.81-2.76001-1.8-3.45001l-6.18-4.33c-1.4-.98-3.65-.93-5 .12z"/><path d="m10.5 18h3c1.65 0 3-1.35 3-3v-3c0-1.65-1.35-3-3-3h-3c-1.65 0-3 1.35-3 3v3c0 1.65 1.35 3 3 3z"/><path d="m12 9v9"/><path d="m7.5 13.5h9"/></g></svg>