<svg width="18" height="18" viewBox="0 0 18 18" fill="none" xmlns="http://www.w3.org/2000/svg">
<path d="M8.21275 0.184352C8.36635 0.06487 8.5554 0 8.75 0C8.9446 0 9.13365 0.06487 9.28725 0.184352L16.4867 5.78418C16.8025 6.02979 17.0579 6.3443 17.2335 6.70369C17.4091 7.06309 17.5003 7.45787 17.5 7.85787V15.7501C17.5 16.2143 17.3156 16.6594 16.9874 16.9875C16.6592 17.3157 16.2141 17.5001 15.75 17.5001H12.25C11.7859 17.5001 11.3408 17.3157 11.0126 16.9875C10.6844 16.6594 10.5 16.2143 10.5 15.7501V10.5003H7V15.7501C7 16.2143 6.81563 16.6594 6.48744 16.9875C6.15925 17.3157 5.71413 17.5001 5.25 17.5001H1.75C1.28587 17.5001 0.840752 17.3157 0.512563 16.9875C0.184374 16.6594 0 16.2143 0 15.7501V7.85787C0 7.0459 0.3745 6.28292 1.015 5.78418L8.21275 0.184352ZM8.75 1.9833L2.08775 7.16489C1.98227 7.24694 1.89699 7.35206 1.83844 7.47218C1.77989 7.59231 1.74964 7.72424 1.75 7.85787V15.7501H5.25V10.5003C5.25 10.0362 5.43437 9.59107 5.76256 9.26289C6.09075 8.93472 6.53587 8.75035 7 8.75035H10.5C10.9641 8.75035 11.4092 8.93472 11.7374 9.26289C12.0656 9.59107 12.25 10.0362 12.25 10.5003V15.7501H15.75V7.85787C15.7504 7.72424 15.7201 7.59231 15.6616 7.47218C15.603 7.35206 15.5177 7.24694 15.4122 7.16489L8.75 1.98505V1.9833Z" fill="#503C3B"/>
</svg>
