<svg width="39" height="19" viewBox="0 0 39 19" fill="none" xmlns="http://www.w3.org/2000/svg">
<path id="Shape" fill-rule="evenodd" clip-rule="evenodd" d="M30.1781 0.347826C28.1817 0.347826 25.8663 1.58328 22.8717 4.24237C21.694 5.29348 20.5716 6.40497 19.509 7.57237L17.799 9.34783C17.799 9.34783 12.0226 15.8933 8.79901 15.8933C5.57537 15.8933 3.07173 12.9642 3.07173 9.34783C3.07173 5.73146 5.65719 2.80237 8.79901 2.80237C10.8117 2.80237 13.8472 5.40419 15.819 7.32692L17.5617 5.58419C15.2299 3.29328 11.679 0.347826 8.79901 0.347826C4.26628 0.347826 0.617188 4.38146 0.617188 9.34783C0.617188 14.3142 4.30719 18.3478 8.79901 18.3478C10.7954 18.3478 13.1108 17.1124 16.1054 14.4533C17.2831 13.4022 18.4055 12.2907 19.4681 11.1233L21.1699 9.34783C21.1699 9.34783 26.9463 2.80237 30.1699 2.80237C33.3936 2.80237 35.8972 5.73146 35.8972 9.34783C35.8972 12.9642 33.3117 15.8933 30.1699 15.8933C28.1654 15.8933 25.1217 13.2915 23.1581 11.3687L21.4399 13.1442C23.7717 15.4269 27.3063 18.3478 30.1781 18.3478C34.7108 18.3478 38.3599 14.3142 38.3599 9.34783C38.3599 4.38146 34.7108 0.347826 30.1781 0.347826Z" fill="white"/>
</svg>
