<svg width="21" height="21" viewBox="0 0 21 21" fill="none" xmlns="http://www.w3.org/2000/svg">
<path fill-rule="evenodd" clip-rule="evenodd" d="M15.5 1.5C17.7091 1.5 19.5 3.29086 19.5 5.5V15.5C19.5 17.7091 17.7091 19.5 15.5 19.5H5.5C3.29086 19.5 1.5 17.7091 1.5 15.5V5.5C1.5 3.29086 3.29086 1.5 5.5 1.5H15.5ZM15.5 0H5.5C2.46243 0 0 2.46243 0 5.5V15.5C0 18.5376 2.46243 21 5.5 21H15.5C18.5376 21 21 18.5376 21 15.5V5.5C21 2.46243 18.5376 0 15.5 0Z" fill="#211D1D"/>
<path fill-rule="evenodd" clip-rule="evenodd" d="M10.5002 6C12.9855 6 15.0002 8.01472 15.0002 10.5C15.0002 12.9853 12.9855 15 10.5002 15C8.01489 15 6.00018 12.9853 6.00018 10.5C6.00018 8.01472 8.01489 6 10.5002 6ZM10.5002 4.5C8.0734 4.5 5.88558 5.96185 4.9569 8.2039C4.02821 10.4459 4.54155 13.0267 6.25753 14.7426C7.97352 16.4586 10.5542 16.972 12.7963 16.0433C15.0383 15.1146 16.5002 12.9268 16.5002 10.5C16.5002 7.18629 13.8139 4.5 10.5002 4.5Z" fill="#211D1D"/>
<circle cx="16.25" cy="4.25" r="1" fill="#211D1D"/>
</svg>
