<svg width="16" height="16" viewBox="0 0 16 16" fill="none" xmlns="http://www.w3.org/2000/svg">
<path d="M12.4462 4.50943C12.3901 4.50162 12.3341 4.50162 12.278 4.50943C11.0362 4.47036 10.0508 3.47781 10.0508 2.25862C10.0508 1.01599 11.0843 0 12.3661 0C13.6399 0 14.6814 1.00817 14.6814 2.25862C14.6734 3.47781 13.688 4.47036 12.4462 4.50943Z" fill="#503C3B"/>
<path d="M15.058 9.92571C14.1607 10.5119 12.9029 10.7307 11.7412 10.5822C12.0457 9.94134 12.2059 9.23014 12.2139 8.47987C12.2139 7.69834 12.0377 6.95589 11.7012 6.30722C12.8869 6.15091 14.1447 6.36974 15.05 6.95589C16.3158 7.76868 16.3158 9.1051 15.058 9.92571Z" fill="#503C3B"/>
<path d="M3.56119 4.50943C3.61727 4.50162 3.67335 4.50162 3.72943 4.50943C4.97121 4.47036 5.95663 3.47781 5.95663 2.25862C5.95663 1.00817 4.92314 0 3.6413 0C2.36747 0 1.33398 1.00817 1.33398 2.25862C1.33398 3.47781 2.3194 4.47036 3.56119 4.50943Z" fill="#503C3B"/>
<path d="M3.64925 8.48002C3.64925 9.23811 3.81749 9.95711 4.12192 10.6058C2.9923 10.723 1.81461 10.4886 0.949365 9.93367C-0.316455 9.11306 -0.316455 7.77664 0.949365 6.95604C1.8066 6.39333 3.01634 6.16669 4.15397 6.29173C3.8255 6.94822 3.64925 7.69068 3.64925 8.48002Z" fill="#503C3B"/>
<path d="M8.11011 10.8398C8.04602 10.832 7.97391 10.832 7.90181 10.8398C6.42769 10.7929 5.25 9.61282 5.25 8.15917C5.25801 6.67426 6.48377 5.4707 8.01397 5.4707C9.53616 5.4707 10.7699 6.67426 10.7699 8.15917C10.7619 9.61282 9.59224 10.7929 8.11011 10.8398Z" fill="#503C3B"/>
<path d="M5.50691 12.4578C4.29717 13.2471 4.29717 14.5444 5.50691 15.326C6.88489 16.2247 9.14414 16.2247 10.5221 15.326C11.7319 14.5366 11.7319 13.2393 10.5221 12.4578C9.15215 11.559 6.89291 11.559 5.50691 12.4578Z" fill="#503C3B"/>
</svg>
