<svg width="16" height="16" viewBox="0 0 16 16" fill="none" xmlns="http://www.w3.org/2000/svg">
<path d="M15.9992 2.8V6C15.9992 7.37495 15.0095 8.52151 13.6968 8.7561C13.425 8.80468 13.1992 8.57614 13.1992 8.3V8.2C13.1992 5.224 10.7832 2.8 7.79922 2.8H7.69922C7.42308 2.8 7.19455 2.57421 7.24348 2.30244C7.4789 0.994987 8.62498 0 9.99922 0H13.1992C14.7512 0 15.9992 1.256 15.9992 2.8Z" fill="#503C3B"/>
<path d="M7.8 4H7.2H4C1.792 4 0 5.792 0 8V12C0 14.208 1.792 16 4 16H8C10.208 16 12 14.208 12 12V8.8V8.2C12 5.88 10.12 4 7.8 4Z" fill="#503C3B"/>
</svg>
