<svg width="16" height="16" viewBox="0 0 16 16" fill="none" xmlns="http://www.w3.org/2000/svg">
<path d="M15.1753 11.84C14.9833 14.3529 13.4394 16 11.1995 16H3.99981C1.79192 16 0 13.8918 0 11.2941V4.70588C0 2.14588 1.31194 0.357647 3.35184 0.0564705C3.55983 0.0188235 3.77582 0 3.99981 0H11.1995C11.4075 0 11.6075 0.00941172 11.7994 0.0470588C13.7114 0.310588 15.0073 1.88235 15.1753 4.16C15.1993 4.43294 15.0073 4.65882 14.7753 4.65882H13.5354C12.7674 4.65882 12.0554 5.00706 11.5435 5.62823C10.9355 6.32471 10.6315 7.30353 10.7035 8.28235C10.8315 9.99529 12.1114 11.3412 13.6314 11.3412H14.7753C15.0073 11.3412 15.1993 11.5671 15.1753 11.84Z" fill="#503C3B"/>
<path d="M15.9996 7.03031V8.96914C15.9996 9.48678 15.6476 9.91031 15.1996 9.92914H13.6317C12.7677 9.92914 11.9758 9.18561 11.9038 8.16914C11.8558 7.5762 12.0478 7.0209 12.3838 6.63502C12.6797 6.27737 13.0877 6.07031 13.5357 6.07031H15.1996C15.6476 6.08914 15.9996 6.51267 15.9996 7.03031Z" fill="#503C3B"/>
</svg>
