<svg width="16" height="16" viewBox="0 0 16 16" fill="none" xmlns="http://www.w3.org/2000/svg">
<path d="M14.0977 2.31542L9.25223 0.227943C8.54111 -0.075981 7.46618 -0.075981 6.75507 0.227943L1.90959 2.31542C0.685818 2.84329 0.503906 3.56311 0.503906 3.94701C0.503906 4.33092 0.685818 5.05074 1.90959 5.57861L6.75507 7.66608C7.11062 7.81805 7.55714 7.89803 8.00365 7.89803C8.45016 7.89803 8.89667 7.81805 9.25223 7.66608L14.0977 5.57861C15.3215 5.05074 15.5034 4.33092 15.5034 3.94701C15.5034 3.56311 15.3297 2.84329 14.0977 2.31542Z" fill="#503C3B"/>
<path d="M8.00413 12.0332C7.68992 12.0332 7.37571 11.9692 7.08631 11.8492L1.51318 9.44983C0.661499 9.08192 0 8.09816 0 7.19439C0 6.86647 0.272868 6.60254 0.611886 6.60254C0.950904 6.60254 1.22377 6.86647 1.22377 7.19439C1.22377 7.62628 1.59587 8.18614 2.0093 8.3621L7.58243 10.7615C7.84703 10.8735 8.15297 10.8735 8.41757 10.7615L13.9907 8.3621C14.4041 8.18614 14.7762 7.63428 14.7762 7.19439C14.7762 6.86647 15.0491 6.60254 15.3881 6.60254C15.7271 6.60254 16 6.86647 16 7.19439C16 8.09017 15.3385 9.08192 14.4868 9.44983L8.9137 11.8492C8.63256 11.9692 8.31835 12.0332 8.00413 12.0332Z" fill="#503C3B"/>
<path d="M8.00413 16C7.68992 16 7.37571 15.936 7.08631 15.816L1.51318 13.4166C0.595349 13.0247 0 12.1369 0 11.1612C0 10.8333 0.272868 10.5693 0.611886 10.5693C0.950904 10.5693 1.22377 10.8333 1.22377 11.1612C1.22377 11.6651 1.52972 12.1209 2.0093 12.3289L7.58243 14.7283C7.84703 14.8403 8.15297 14.8403 8.41757 14.7283L13.9907 12.3289C14.462 12.1289 14.7762 11.6651 14.7762 11.1612C14.7762 10.8333 15.0491 10.5693 15.3881 10.5693C15.7271 10.5693 16 10.8333 16 11.1612C16 12.1369 15.4047 13.0167 14.4868 13.4166L8.9137 15.816C8.63256 15.936 8.31835 16 8.00413 16Z" fill="#503C3B"/>
</svg>
