<svg width="16" height="18" viewBox="0 0 16 18" fill="none" xmlns="http://www.w3.org/2000/svg">
<path d="M4.79102 3.75C4.44935 3.75 4.16602 3.46667 4.16602 3.125V0.625C4.16602 0.283333 4.44935 0 4.79102 0C5.13268 0 5.41602 0.283333 5.41602 0.625V3.125C5.41602 3.46667 5.13268 3.75 4.79102 3.75Z" fill="#503C3B"/>
<path d="M11.041 3.75C10.6993 3.75 10.416 3.46667 10.416 3.125V0.625C10.416 0.283333 10.6993 0 11.041 0C11.3827 0 11.666 0.283333 11.666 0.625V3.125C11.666 3.46667 11.3827 3.75 11.041 3.75Z" fill="#503C3B"/>
<path d="M7.91797 10.7C8.3513 10.7 8.66797 10.4417 8.66797 10.0333C8.66797 9.61667 8.3513 9.375 7.91797 9.375C7.48464 9.375 7.16797 9.61667 7.16797 10.0333C7.16797 10.4417 7.48464 10.7 7.91797 10.7Z" fill="#503C3B"/>
<path d="M7.91484 13.1252C8.43951 13.1252 8.86484 12.7782 8.86484 12.3502C8.86484 11.9222 8.43951 11.5752 7.91484 11.5752C7.39017 11.5752 6.96484 11.9222 6.96484 12.3502C6.96484 12.7782 7.39017 13.1252 7.91484 13.1252Z" fill="#503C3B"/>
<path d="M14.225 2.70833C13.675 2.3 12.8833 2.69167 12.8833 3.38333V3.46667C12.8833 4.44167 12.1833 5.34167 11.2083 5.44167C10.0833 5.55833 9.13333 4.675 9.13333 3.575V2.70833C9.13333 2.25 8.75833 1.875 8.3 1.875H7.53333C7.075 1.875 6.7 2.25 6.7 2.70833V3.575C6.7 4.23333 6.35833 4.81667 5.84167 5.14167C5.76667 5.19167 5.68333 5.23333 5.6 5.275C5.525 5.31667 5.44167 5.35 5.35 5.375C5.25 5.40833 5.14167 5.43333 5.025 5.44167C4.89167 5.45833 4.75833 5.45833 4.625 5.44167C4.50833 5.43333 4.4 5.40833 4.3 5.375C4.21667 5.35 4.13333 5.31667 4.05 5.275C3.96667 5.23333 3.88333 5.19167 3.80833 5.14167C3.28333 4.775 2.95 4.14167 2.95 3.46667V3.38333C2.95 2.74167 2.26667 2.35833 1.725 2.63333C1.71667 2.64167 1.70833 2.64167 1.7 2.65C1.66667 2.66667 1.64167 2.68333 1.60833 2.70833C1.58333 2.73333 1.55 2.75 1.525 2.775C1.29167 2.95833 1.08333 3.16667 0.908333 3.39167C0.816667 3.49167 0.741667 3.6 0.675 3.70833C0.666667 3.71667 0.658333 3.725 0.65 3.74167C0.575 3.85 0.508333 3.975 0.45 4.09167C0.433333 4.10833 0.425 4.11667 0.425 4.13333C0.375 4.23333 0.325 4.33333 0.291667 4.44167C0.266667 4.48333 0.258333 4.51667 0.241667 4.55833C0.191667 4.68333 0.158333 4.80833 0.125 4.93333C0.0916667 5.05 0.0666666 5.175 0.05 5.3C0.0333333 5.39167 0.025 5.48333 0.0166667 5.58333C0.00833332 5.7 0 5.81667 0 5.93333V13.2333C0 15.475 1.81667 17.2917 4.05833 17.2917H11.775C14.0167 17.2917 15.8333 15.475 15.8333 13.2333V5.93333C15.8333 4.60833 15.2 3.45 14.225 2.70833ZM7.91667 14.1667C6.625 14.1667 5.83333 13.525 5.83333 12.4917C5.83333 11.925 6.125 11.4333 6.63333 11.1417C6.26667 10.8833 6.025 10.5 6.025 9.975C6.025 8.89167 6.89167 8.33333 7.91667 8.33333C8.94167 8.33333 9.8 8.89167 9.8 9.975C9.8 10.5 9.56667 10.8833 9.19167 11.1417C9.70833 11.4333 10 11.925 10 12.4917C10 13.525 9.2 14.1667 7.91667 14.1667Z" fill="#503C3B"/>
</svg>
