<svg width="18" height="18" viewBox="0 0 18 18" fill="none" xmlns="http://www.w3.org/2000/svg">
<path d="M12 6H6V12H12V6Z" fill="#503C3B"/>
<path d="M1.5 14.25C1.5 15.4875 2.5125 16.5 3.75 16.5C4.9875 16.5 6 15.4875 6 14.25V12H3.75C2.5125 12 1.5 13.0125 1.5 14.25Z" fill="#503C3B"/>
<path d="M3.75 1.5C2.5125 1.5 1.5 2.5125 1.5 3.75C1.5 4.9875 2.5125 6 3.75 6H6V3.75C6 2.5125 4.9875 1.5 3.75 1.5Z" fill="#503C3B"/>
<path d="M16.5 3.75C16.5 2.5125 15.4875 1.5 14.25 1.5C13.0125 1.5 12 2.5125 12 3.75V6H14.25C15.4875 6 16.5 4.9875 16.5 3.75Z" fill="#503C3B"/>
<path d="M14.25 12H12V14.25C12 15.4875 13.0125 16.5 14.25 16.5C15.4875 16.5 16.5 15.4875 16.5 14.25C16.5 13.0125 15.4875 12 14.25 12Z" fill="#503C3B"/>
</svg>
