<svg width="17" height="16" viewBox="0 0 17 16" fill="none" xmlns="http://www.w3.org/2000/svg">
<path d="M5.71988 4.3916C5.27191 4.3916 4.91992 4.75159 4.91992 5.19157C4.91992 5.63156 5.2799 5.99155 5.71988 5.99155C6.15986 5.99155 6.51985 5.63156 6.51985 5.19157C6.51985 4.75159 6.15986 4.3916 5.71988 4.3916Z" fill="#503C3B"/>
<path d="M15.5673 2.43192C14.8953 0.871971 13.4154 0 11.3515 0H4.64778C2.0799 0 0 2.07993 0 4.64784V11.3516C0 13.4155 0.871959 14.8955 2.43189 15.5675C2.58388 15.6315 2.75987 15.5915 2.87187 15.4795L15.4793 2.8719C15.5993 2.75191 15.6393 2.57591 15.5673 2.43192ZM6.82368 8.19172C6.51169 8.49571 6.10371 8.63971 5.69573 8.63971C5.28775 8.63971 4.87977 8.48771 4.56779 8.19172C3.75182 7.42375 2.85587 6.19979 3.19985 4.74384C3.50384 3.42388 4.67178 2.8319 5.69573 2.8319C6.71969 2.8319 7.88763 3.42388 8.19162 4.75184C8.5276 6.19979 7.63164 7.42375 6.82368 8.19172Z" fill="#503C3B"/>
<path d="M13.9751 14.8241C14.1511 15.0001 14.1271 15.2881 13.9111 15.4081C13.2071 15.8 12.3512 16 11.3512 16H4.64751C4.41553 16 4.31953 15.728 4.47952 15.568L9.3113 10.7362C9.47129 10.5762 9.71928 10.5762 9.87927 10.7362L13.9751 14.8241Z" fill="#503C3B"/>
<path d="M16.0011 4.64801V11.3518C16.0011 12.3517 15.8011 13.2157 15.4092 13.9117C15.2892 14.1277 15.0012 14.1437 14.8252 13.9757L10.7294 9.87983C10.5694 9.71984 10.5694 9.47184 10.7294 9.31185L15.5611 4.48001C15.7291 4.32002 16.0011 4.41601 16.0011 4.64801Z" fill="#503C3B"/>
</svg>
