<?xml version="1.0" standalone="no"?>
<!DOCTYPE svg PUBLIC "-//W3C//DTD SVG 20010904//EN"
 "http://www.w3.org/TR/2001/REC-SVG-20010904/DTD/svg10.dtd">
<svg version="1.0" xmlns="http://www.w3.org/2000/svg"
 width="474.000000pt" height="474.000000pt" viewBox="0 0 474.000000 474.000000"
 preserveAspectRatio="xMidYMid meet">

<g transform="translate(0.000000,474.000000) scale(0.100000,-0.100000)"
fill="#543B3A" stroke="none">
<path d="M715 3739 c-71 -21 -119 -95 -119 -184 -1 -72 27 -128 81 -165 l37
-25 1145 -3 c1036 -2 1150 -1 1189 14 132 50 150 262 29 342 l-41 27 -1145 2
c-646 1 -1159 -3 -1176 -8z"/>
<path d="M3283 2949 c-45 -13 -96 -67 -111 -116 -9 -29 -12 -191 -12 -602 0
-308 -3 -561 -8 -561 -4 0 -66 59 -137 131 -153 153 -184 173 -267 167 -134
-10 -217 -151 -159 -270 28 -59 641 -671 693 -693 50 -20 104 -19 153 4 26 12
152 131 362 342 264 266 325 332 338 368 21 60 19 79 -11 140 -37 73 -96 111
-174 111 -75 0 -114 -26 -265 -179 -66 -66 -123 -121 -127 -121 -5 0 -8 258
-8 574 0 383 -4 584 -11 603 -33 88 -147 133 -256 102z"/>
<path d="M1440 2760 l-725 -5 -38 -24 c-53 -32 -81 -91 -81 -166 1 -95 50
-162 134 -185 26 -7 282 -10 772 -8 l733 3 41 24 c122 69 122 274 1 338 -18 9
-50 19 -72 22 -22 3 -366 4 -765 1z"/>
<path d="M732 1770 c-58 -14 -105 -60 -126 -124 -17 -51 -17 -64 -6 -114 17
-77 67 -126 143 -142 37 -7 218 -10 573 -8 l519 3 44 25 c123 69 123 271 0
340 l-44 25 -535 2 c-294 1 -550 -2 -568 -7z"/>
</g>
</svg>
