<?xml version="1.0" standalone="no"?>
<!DOCTYPE svg PUBLIC "-//W3C//DTD SVG 20010904//EN"
 "http://www.w3.org/TR/2001/REC-SVG-20010904/DTD/svg10.dtd">
<svg version="1.0" xmlns="http://www.w3.org/2000/svg"
 width="512.000000pt" height="512.000000pt" viewBox="0 0 512.000000 512.000000"
 preserveAspectRatio="xMidYMid meet">

<g transform="translate(0.000000,512.000000) scale(0.100000,-0.100000)"
fill="#543B3A" stroke="none">
<path d="M2395 5109 c-167 -23 -345 -85 -486 -170 -114 -68 -174 -116 -273
-219 -207 -215 -327 -486 -352 -792 l-7 -88 -478 0 -479 0 0 -1920 0 -1920
2240 0 2240 0 0 1920 0 1920 -478 0 -478 0 -12 118 c-20 198 -77 374 -173 533
-68 114 -116 174 -217 271 -178 172 -398 287 -634 333 -102 20 -318 27 -413
14z m328 -324 c199 -35 366 -122 513 -269 105 -105 178 -218 224 -343 58 -162
60 -189 60 -934 l0 -679 160 0 160 0 0 480 0 480 320 0 320 0 0 -1600 0 -1600
-1920 0 -1920 0 0 1600 0 1600 320 0 320 0 0 -480 0 -480 160 0 160 0 0 679
c0 557 3 694 15 764 61 350 311 638 654 752 134 44 306 56 454 30z"/>
<path d="M1920 3680 l0 -160 640 0 640 0 0 160 0 160 -640 0 -640 0 0 -160z"/>
</g>
</svg>
