<svg width="24" height="24" viewBox="0 0 24 24" fill="none" xmlns="http://www.w3.org/2000/svg">
<path d="M8.17961 16.02C7.41961 15.95 6.66961 15.6 6.08961 14.99C4.76961 13.6 4.76961 11.32 6.08961 9.92998L8.27961 7.62999C9.59961 6.23999 11.7696 6.23999 13.0996 7.62999C14.4196 9.01999 14.4196 11.3 13.0996 12.69L12.0096 13.84" stroke="#503C3B" stroke-width="1.5" stroke-linecap="round" stroke-linejoin="round"/>
<path d="M15.8202 7.98001C16.5802 8.05001 17.3302 8.40001 17.9102 9.01001C19.2302 10.4 19.2302 12.68 17.9102 14.07L15.7202 16.37C14.4002 17.76 12.2302 17.76 10.9002 16.37C9.58016 14.98 9.58016 12.7 10.9002 11.31L11.9902 10.16" stroke="#503C3B" stroke-width="1.5" stroke-linecap="round" stroke-linejoin="round"/>
<path d="M9 22H15C20 22 22 20 22 15V9C22 4 20 2 15 2H9C4 2 2 4 2 9V15C2 20 4 22 9 22Z" stroke="#503C3B" stroke-width="1.5" stroke-linecap="round" stroke-linejoin="round"/>
</svg>
