<svg width="24" height="20" viewBox="0 0 24 20" fill="none" xmlns="http://www.w3.org/2000/svg">
<path d="M17.9536 0C18.4959 0 18.9366 0.440625 18.9366 0.982969C18.9366 1.52531 18.4959 1.96594 17.9536 1.96594L0.982969 1.98656C0.440625 1.98656 0 1.54547 0 1.00312C0 0.46125 0.440625 0.0201562 0.982969 0.0201562L17.9536 0ZM12.3384 14.5092C11.9677 14.1366 11.97 13.5328 12.3422 13.162C12.7144 12.7913 13.3186 12.7936 13.6894 13.1658L17.04 16.5173L17.055 6.83156C17.055 6.30656 17.4811 5.88 18.0061 5.88C18.5311 5.88 18.9577 6.30656 18.9577 6.83156L18.9427 16.5066L22.3702 13.0791C22.7423 12.7069 23.3484 12.7069 23.7206 13.0791C24.0933 13.4517 24.0933 14.0578 23.7206 14.43L18.6628 19.4878C18.2869 19.8586 17.6831 19.8567 17.3123 19.4841L12.3384 14.5092ZM8.04469 15.8958C8.58703 15.8958 9.02766 16.3364 9.02766 16.8787C9.02766 17.4211 8.58703 17.8617 8.04469 17.8617L0.982969 17.8692C0.440625 17.8692 0 17.4286 0 16.8862C0 16.3444 0.440625 15.9033 0.982969 15.9033L8.04469 15.8958ZM9.98203 7.89422C10.5244 7.89422 10.965 8.33484 10.965 8.87719C10.965 9.41953 10.5244 9.86016 9.98203 9.86016L0.982969 9.87094C0.440625 9.87094 0 9.42984 0 8.8875C0 8.34562 0.440625 7.90453 0.982969 7.90453L9.98203 7.89422Z" fill="#503C3B"/>
</svg>
