<svg width="20" height="20" viewBox="0 0 20 20" fill="none" xmlns="http://www.w3.org/2000/svg">
<g clip-path="url(#clip0_385_1520)">
<path d="M9.93461 2.5C6.87525 2.5 4.40088 4.97437 4.40088 8.03373C4.40088 11.3302 7.89503 15.8758 9.3338 17.6071C9.65002 17.9865 10.2271 17.9865 10.5433 17.6071C11.9742 15.8758 15.4683 11.3302 15.4683 8.03373C15.4683 4.97437 12.994 2.5 9.93461 2.5ZM9.93461 10.0101C8.84367 10.0101 7.95828 9.12466 7.95828 8.03373C7.95828 6.94279 8.84367 6.0574 9.93461 6.0574C11.0255 6.0574 11.9109 6.94279 11.9109 8.03373C11.9109 9.12466 11.0255 10.0101 9.93461 10.0101Z" fill="#543B3A"/>
</g>
<defs>
<clipPath id="clip0_385_1520">
<rect width="20" height="20" fill="white"/>
</clipPath>
</defs>
</svg>
