<svg width="23" height="23" viewBox="0 0 23 23" fill="none" xmlns="http://www.w3.org/2000/svg">
<path d="M8.11523 10.149V9.13251C8.11523 7.44512 8.62348 6.08301 11.1647 6.08301C13.706 6.08301 14.2142 7.44512 14.2142 9.13251V10.149" stroke="#503C3B" stroke-width="1.5" stroke-linecap="round" stroke-linejoin="round"/>
<path d="M11.1655 13.8084C11.5024 13.8084 11.7754 13.5354 11.7754 13.1985C11.7754 12.8617 11.5024 12.5886 11.1655 12.5886C10.8287 12.5886 10.5557 12.8617 10.5557 13.1985C10.5557 13.5354 10.8287 13.8084 11.1655 13.8084Z" stroke="#503C3B" stroke-width="1.5" stroke-linecap="round" stroke-linejoin="round"/>
<path d="M13.7097 16.2472H8.62719C6.59419 16.2472 6.08594 15.7389 6.08594 13.7059V12.6894C6.08594 10.6564 6.59419 10.1482 8.62719 10.1482H13.7097C15.7427 10.1482 16.2509 10.6564 16.2509 12.6894V13.7059C16.2509 15.7389 15.7427 16.2472 13.7097 16.2472Z" stroke="#503C3B" stroke-width="1.5" stroke-linecap="round" stroke-linejoin="round"/>
<path d="M11.165 21.33C16.779 21.33 21.33 16.779 21.33 11.165C21.33 5.55103 16.779 1 11.165 1C5.55103 1 1 5.55103 1 11.165C1 16.779 5.55103 21.33 11.165 21.33Z" stroke="#503C3B" stroke-width="1.5" stroke-linecap="round" stroke-linejoin="round"/>
</svg>
