<svg width="24" height="24" viewBox="0 0 24 24" fill="none" xmlns="http://www.w3.org/2000/svg">
<path d="M17.7433 8.69117C18.1845 8.69117 18.5375 8.33823 18.5375 7.89705V3.79412C18.5375 3.35294 18.1845 3 17.7433 3C17.3022 3 16.9492 3.35294 16.9492 3.79412V7.89705C16.9492 8.32941 17.311 8.69117 17.7433 8.69117Z" fill="white"/>
<path d="M12.0011 15.3086C11.56 15.3086 11.207 15.6615 11.207 16.1027V20.2056C11.207 20.6468 11.56 20.9998 12.0011 20.9998C12.4423 20.9998 12.7953 20.6468 12.7953 20.2056V16.1027C12.7953 15.6704 12.4423 15.3086 12.0011 15.3086Z" fill="white"/>
<path d="M6.25505 8.69117C6.69623 8.69117 7.04917 8.33823 7.04917 7.89705V3.79412C7.04917 3.35294 6.69623 3 6.25505 3C5.81388 3 5.46094 3.35294 5.46094 3.79412V7.89705C5.46094 8.32941 5.81388 8.69117 6.25505 8.69117Z" fill="white"/>
<path d="M7.89678 10.3853H4.61443C4.17325 10.3853 3.82031 10.7382 3.82031 11.1794C3.82031 11.6205 4.17325 11.9735 4.61443 11.9735H5.46149V20.2058C5.46149 20.647 5.81443 20.9999 6.2556 20.9999C6.69678 20.9999 7.04972 20.647 7.04972 20.2058V11.9735H7.89678C8.33795 11.9735 8.6909 11.6205 8.6909 11.1794C8.6909 10.7382 8.32913 10.3853 7.89678 10.3853Z" fill="white"/>
<path d="M19.3851 10.3853H16.1027C15.6615 10.3853 15.3086 10.7382 15.3086 11.1794C15.3086 11.6205 15.6615 11.9735 16.1027 11.9735H16.9498V20.2058C16.9498 20.647 17.3027 20.9999 17.7439 20.9999C18.1851 20.9999 18.538 20.647 18.538 20.2058V11.9735H19.3851C19.8262 11.9735 20.1792 11.6205 20.1792 11.1794C20.1792 10.7382 19.8262 10.3853 19.3851 10.3853Z" fill="white"/>
<path d="M13.6429 12.0265H12.7958V3.79412C12.7958 3.35294 12.4429 3 12.0017 3C11.5605 3 11.2076 3.35294 11.2076 3.79412V12.0265H10.3605C9.91935 12.0265 9.56641 12.3794 9.56641 12.8206C9.56641 13.2618 9.91935 13.6147 10.3605 13.6147H13.6429C14.084 13.6147 14.437 13.2618 14.437 12.8206C14.437 12.3794 14.084 12.0265 13.6429 12.0265Z" fill="white"/>
</svg>
