<svg width="24" height="24" viewBox="0 0 24 24" fill="none" xmlns="http://www.w3.org/2000/svg">
<g clip-path="url(#clip0_1741_6721)">
<path fill-rule="evenodd" clip-rule="evenodd" d="M8.25985 9.63299e-07C9.75476 0.000481684 11.2215 0.406468 12.5039 1.17471C13.7864 1.94296 14.8363 3.04468 15.5421 4.36253C16.2478 5.68037 16.5828 7.16497 16.5114 8.65818C16.4401 10.1514 15.965 11.5973 15.1368 12.8418L16.8087 14.5137L16.8263 14.4961C17.0232 14.3001 17.2897 14.1901 17.5675 14.1901C17.8453 14.1901 18.1118 14.3001 18.3087 14.4961L23.6895 19.877C23.885 20.0741 23.9947 20.3405 23.9947 20.6182C23.9947 20.8958 23.885 21.1622 23.6895 21.3594L21.3458 23.7031C21.1486 23.8986 20.8822 24.0083 20.6046 24.0083C20.3269 24.0083 20.0605 23.8986 19.8634 23.7031L14.4923 18.3125C14.2963 18.1156 14.1863 17.8491 14.1863 17.5713C14.1863 17.2935 14.2963 17.027 14.4923 16.8301L14.5098 16.8125L12.838 15.1406C11.7644 15.856 10.5382 16.31 9.2576 16.4664C7.97701 16.6228 6.6776 16.4772 5.46339 16.0412C4.24918 15.6053 3.15391 14.8911 2.26526 13.9559C1.37661 13.0206 0.71928 11.8903 0.345884 10.6554C-0.0275115 9.42056 -0.106595 8.11541 0.114966 6.84447C0.336527 5.57354 0.852577 4.37214 1.6218 3.33645C2.39102 2.30076 3.39205 1.45956 4.54474 0.880187C5.69742 0.300818 6.96975 -0.0006219 8.25985 9.63299e-07ZM8.25985 1.85547C9.52727 1.85547 10.7662 2.2313 11.8201 2.93545C12.8739 3.63959 13.6952 4.64041 14.1803 5.81136C14.6653 6.98231 14.7922 8.27078 14.5449 9.51385C14.2977 10.7569 13.6873 11.8988 12.7911 12.795C11.8949 13.6912 10.7531 14.3015 9.51003 14.5487C8.26696 14.796 6.97848 14.6691 5.80754 14.1841C4.63659 13.6991 3.63577 12.8777 2.93162 11.8239C2.22748 10.7701 1.85165 9.5311 1.85165 8.26367C1.85165 6.56411 2.52679 4.93416 3.72857 3.73239C4.93034 2.53062 6.56029 1.85547 8.25985 1.85547Z" fill="#503C3B"/>
</g>
<defs>
<clipPath id="clip0_1741_6721">
<rect width="24" height="24" fill="white"/>
</clipPath>
</defs>
</svg>
