<svg width="30" height="30" viewBox="0 0 30 30" fill="none" xmlns="http://www.w3.org/2000/svg">
<path d="M21.4961 27.5009C24.8098 27.5009 27.4961 24.8147 27.4961 21.501C27.4961 18.1873 24.8098 15.501 21.4961 15.501C18.1824 15.501 15.4961 18.1873 15.4961 21.501C15.4961 24.8147 18.1824 27.5009 21.4961 27.5009Z" stroke="white" stroke-width="2" stroke-miterlimit="10" stroke-linecap="round" stroke-linejoin="round"/>
<path d="M23.7367 21.5762H19.2617" stroke="white" stroke-width="2" stroke-miterlimit="10" stroke-linecap="round" stroke-linejoin="round"/>
<path d="M21.5 19.3887V23.8761" stroke="white" stroke-width="2" stroke-miterlimit="10" stroke-linecap="round" stroke-linejoin="round"/>
<path d="M27.5 10.8616C27.5 13.3241 26.8625 15.499 25.8625 17.3865C24.7625 16.224 23.2125 15.4991 21.5 15.4991C18.1875 15.4991 15.5 18.1866 15.5 21.4991C15.5 23.0366 16.0875 24.4366 17.0375 25.4991C16.575 25.7116 16.15 25.8866 15.775 26.0116C15.35 26.1616 14.65 26.1616 14.225 26.0116C10.6 24.7741 2.5 19.6116 2.5 10.8616C2.5 6.99906 5.6125 3.87402 9.45 3.87402C11.7125 3.87402 13.7375 4.97408 15 6.66158C16.2625 4.97408 18.2875 3.87402 20.55 3.87402C24.3875 3.87402 27.5 6.99906 27.5 10.8616Z" stroke="white" stroke-width="2" stroke-linecap="round" stroke-linejoin="round"/>
</svg>
