<svg width="60" height="60" viewBox="0 0 60 60" fill="none" xmlns="http://www.w3.org/2000/svg">
<circle cx="30" cy="30" r="30" fill="#503C3B"/>
<path d="M19.6227 18H48.2758C48.7869 18 49.2361 18.2083 49.5454 18.5436C49.8579 18.8789 50.0337 19.3444 49.9946 19.8555L48.5558 39.5468C48.5265 39.931 48.3832 40.289 48.1586 40.5885C48.113 40.6862 48.0512 40.7741 47.9666 40.8489C47.9112 40.8978 47.8494 40.9401 47.7843 40.9694C47.4425 41.2396 47.016 41.4023 46.5668 41.4023H17.9136C17.4026 41.4023 16.9533 41.194 16.6408 40.8587C16.3283 40.5234 16.1558 40.0579 16.1916 39.5468L16.5985 36.2329H18.0211L17.6695 38.7656L28.4478 28.6969L19.0074 20.5131L18.913 21.7924H17.4872L17.6272 19.8555C17.663 19.3444 17.9071 18.8789 18.2685 18.5436C18.6298 18.2083 19.1116 18 19.6227 18ZM10.7129 34.2049C10.319 34.2049 10 33.8859 10 33.492C10 33.0981 10.319 32.7791 10.7129 32.7791H20.1175C20.5114 32.7791 20.8304 33.0981 20.8304 33.492C20.8304 33.8859 20.5114 34.2049 20.1175 34.2049H10.7129ZM14.2384 29.7907C13.8445 29.7907 13.5255 29.4717 13.5255 29.0778C13.5255 28.6839 13.8445 28.3649 14.2384 28.3649H22.3962C22.7901 28.3649 23.1091 28.6839 23.1091 29.0778C23.1091 29.4717 22.7901 29.7907 22.3962 29.7907H14.2384ZM10.7129 25.3765C10.319 25.3765 10 25.0575 10 24.6636C10 24.2697 10.319 23.9507 10.7129 23.9507H20.1175C20.5114 23.9507 20.8304 24.2697 20.8304 24.6636C20.8304 25.0575 20.5114 25.3765 20.1175 25.3765H10.7129ZM29.4895 29.6019L18.3791 39.9798H46.2217L37.0841 29.6019L33.6205 32.3819C33.3503 32.6 32.9661 32.613 32.709 32.3917L29.4895 29.6019ZM38.2365 28.6806L47.1885 38.8469L48.533 20.4219L38.2365 28.6806ZM19.997 19.4226L33.2559 30.917L47.5889 19.4226H19.997Z" fill="white"/>
</svg>
