<svg width="16" height="16" viewBox="0 0 16 16" fill="none" xmlns="http://www.w3.org/2000/svg">
<path d="M6.09635 4.99341C5.72302 4.99341 5.42969 5.29341 5.42969 5.66007C5.42969 6.02674 5.72969 6.32674 6.09635 6.32674C6.46302 6.32674 6.76302 6.02674 6.76302 5.66007C6.76302 5.29341 6.46302 4.99341 6.09635 4.99341Z" fill="#503C3B"/>
<path d="M14.3093 3.35992C13.7493 2.05992 12.5159 1.33325 10.7959 1.33325H5.20927C3.06927 1.33325 1.33594 3.06659 1.33594 5.20659V10.7933C1.33594 12.5133 2.0626 13.7466 3.3626 14.3066C3.48927 14.3599 3.63594 14.3266 3.72927 14.2333L14.2359 3.72659C14.3359 3.62659 14.3693 3.47992 14.3093 3.35992ZM7.0226 8.15992C6.7626 8.41325 6.4226 8.53325 6.0826 8.53325C5.7426 8.53325 5.4026 8.40659 5.1426 8.15992C4.4626 7.51992 3.71594 6.49992 4.0026 5.28659C4.25594 4.18659 5.22927 3.69325 6.0826 3.69325C6.93594 3.69325 7.90927 4.18659 8.1626 5.29325C8.4426 6.49992 7.69594 7.51992 7.0226 8.15992Z" fill="#503C3B"/>
<path d="M12.9793 13.6866C13.1259 13.8333 13.1059 14.0733 12.9259 14.1733C12.3393 14.4999 11.6259 14.6666 10.7926 14.6666H5.20595C5.01261 14.6666 4.93261 14.4399 5.06595 14.3066L9.09261 10.2799C9.22595 10.1466 9.43261 10.1466 9.56595 10.2799L12.9793 13.6866Z" fill="#503C3B"/>
<path d="M14.6652 5.20668V10.7933C14.6652 11.6267 14.4985 12.3467 14.1719 12.9267C14.0719 13.1067 13.8319 13.12 13.6852 12.98L10.2719 9.56668C10.1385 9.43335 10.1385 9.22668 10.2719 9.09335L14.2985 5.06668C14.4385 4.93335 14.6652 5.01335 14.6652 5.20668Z" fill="#503C3B"/>
</svg>
