<svg width="14" height="15" viewBox="0 0 14 15" fill="none" xmlns="http://www.w3.org/2000/svg">
<path d="M4.99709 3.84375C4.60497 3.84375 4.29688 4.15885 4.29688 4.54396C4.29688 4.92908 4.61197 5.24418 4.99709 5.24418C5.38221 5.24418 5.6973 4.92908 5.6973 4.54396C5.6973 4.15885 5.38221 3.84375 4.99709 3.84375Z" fill="#503C3B"/>
<path d="M13.6262 2.12865C13.038 0.763232 11.7426 0 9.93603 0H4.06824C1.82055 0 0 1.82055 0 4.06824V9.93603C0 11.7426 0.763233 13.038 2.12865 13.6262C2.26169 13.6822 2.41574 13.6472 2.51377 13.5491L13.5491 2.51377C13.6542 2.40873 13.6892 2.25469 13.6262 2.12865ZM5.97282 7.17018C5.69974 7.43627 5.34263 7.5623 4.98552 7.5623C4.62841 7.5623 4.2713 7.42926 3.99822 7.17018C3.284 6.49798 2.49976 5.42665 2.80085 4.15226C3.06693 2.99691 4.08925 2.47876 4.98552 2.47876C5.88179 2.47876 6.9041 2.99691 7.17018 4.15927C7.46427 5.42665 6.68004 6.49798 5.97282 7.17018Z" fill="#503C3B"/>
<path d="M12.2324 12.9751C12.3864 13.1292 12.3654 13.3812 12.1763 13.4863C11.5602 13.8294 10.8109 14.0044 9.93566 14.0044H4.06787C3.86481 14.0044 3.78078 13.7664 3.92083 13.6263L8.15012 9.39702C8.29016 9.25698 8.50723 9.25698 8.64727 9.39702L12.2324 12.9751Z" fill="#503C3B"/>
<path d="M14.0007 4.06787V9.93566C14.0007 10.8109 13.8256 11.5672 13.4825 12.1763C13.3775 12.3654 13.1254 12.3794 12.9714 12.2324L9.38628 8.64727C9.24624 8.50723 9.24624 8.29016 9.38628 8.15012L13.6156 3.92083C13.7626 3.78078 14.0007 3.86481 14.0007 4.06787Z" fill="#503C3B"/>
</svg>
