<svg width="24" height="24" viewBox="0 0 24 24" fill="none" xmlns="http://www.w3.org/2000/svg">
<path d="M8.84901 18.3051H8.39886C4.79767 18.3051 2.99707 17.4048 2.99707 12.9033V8.40179C2.99707 4.8006 4.79767 3 8.39886 3H15.6013C19.2025 3 21.0031 4.8006 21.0031 8.40179V12.9033C21.0031 16.5045 19.2025 18.3051 15.6013 18.3051H15.1511C14.872 18.3051 14.6019 18.4401 14.4309 18.6652L13.0804 20.4658C12.4862 21.2581 11.5139 21.2581 10.9197 20.4658L9.56925 18.6652C9.42521 18.4671 9.0921 18.3051 8.84901 18.3051Z" stroke="#292D32" stroke-width="1.35045" stroke-miterlimit="10" stroke-linecap="round" stroke-linejoin="round"/>
<path d="M15.598 11.1025H15.6061" stroke="#292D32" stroke-width="1.8006" stroke-linecap="round" stroke-linejoin="round"/>
<path d="M11.996 11.1025H12.0041" stroke="#292D32" stroke-width="1.8006" stroke-linecap="round" stroke-linejoin="round"/>
<path d="M8.39393 11.1025H8.40202" stroke="#292D32" stroke-width="1.8006" stroke-linecap="round" stroke-linejoin="round"/>
</svg>
