<svg width="22" height="30" viewBox="0 0 22 30" fill="none" xmlns="http://www.w3.org/2000/svg">
<g clip-path="url(#clip0_1236_17062)">
<path d="M20.4826 1.24024H6.78448C3.73489 1.24024 1.24024 3.73514 1.24024 6.78472V16.5697C1.24024 19.6188 3.73538 22.1142 6.78448 22.1142H11.0919C10.4757 24.5522 9.72933 26.7429 7.44928 28.7649C11.8089 27.6499 15.1744 25.3957 17.6444 22.1142H18.3893C21.4382 22.1142 26.0273 19.6193 26.0273 16.5697V6.78472C26.0268 3.73514 23.5322 1.24024 20.4826 1.24024ZM19.807 10.0267C18.696 10.0267 17.7953 10.9278 17.7953 12.0389C17.7953 13.15 18.696 14.0511 19.807 14.0511C20.9186 14.0511 21.8193 13.15 21.8193 12.0389C21.8193 10.9278 20.9186 10.0267 19.807 10.0267ZM7.46002 10.0267C6.34868 10.0267 5.4478 10.9278 5.4478 12.0389C5.4478 13.15 6.34868 14.0511 7.46002 14.0511C8.57111 14.0511 9.47225 13.15 9.47225 12.0389C9.47225 10.9278 8.57111 10.0267 7.46002 10.0267ZM13.6337 10.0267C12.5226 10.0267 11.6214 10.9278 11.6214 12.0389C11.6214 13.15 12.5226 14.0511 13.6337 14.0511C14.745 14.0511 15.6456 13.15 15.6456 12.0389C15.6456 10.9278 14.745 10.0267 13.6337 10.0267ZM6.78448 0H20.4828H20.4843V0.00488285C22.3539 0.00537114 24.0498 0.766364 25.2751 1.99196L25.2727 1.9944C26.5 3.22317 27.2619 4.9185 27.2624 6.78399H27.2673V6.78472H27.2624V16.5697H27.2673V16.5707H27.2624C27.2615 18.5653 25.8757 20.3034 24.03 21.5173C22.311 22.6474 20.1403 23.3493 18.3893 23.3496V23.3547H18.3888V23.3496H18.2482C17.0119 24.8899 15.577 26.2046 13.9332 27.2839C12.1161 28.4773 10.0601 29.3765 7.75397 29.9663L7.75299 29.9624C7.31891 30.0723 6.84063 29.9417 6.52349 29.5835C6.07134 29.0725 6.11919 28.2915 6.63018 27.8393C7.63556 26.948 8.30231 26.0202 8.78498 25.0478C9.05378 24.5061 9.26985 23.9409 9.4576 23.354H6.78424H6.78253V23.3488C4.91337 23.3483 3.21756 22.5873 1.99196 21.3617C0.76612 20.1364 0.00512699 18.4401 0.00488285 16.5702H0V16.5695H0.00488285V6.78472H0V6.78301H0.00488285C0.00512699 4.9517 0.738043 3.28616 1.92336 2.06642C1.94508 2.04103 1.96755 2.01613 1.99147 1.9922C3.21731 0.766364 4.91337 0.00488285 6.7835 0.00463871V0H6.78448Z" fill="white"/>
</g>
<defs>
<clipPath id="clip0_1236_17062">
<rect width="27.2673" height="30" fill="white"/>
</clipPath>
</defs>
</svg>
