<svg width="60" height="60" viewBox="0 0 60 60" fill="none" xmlns="http://www.w3.org/2000/svg">
<circle cx="30" cy="30" r="30" fill="#503C3B"/>
<g clip-path="url(#clip0_1330_6838)">
<path d="M36.4826 18.2402H22.7845C19.7349 18.2402 17.2402 20.7351 17.2402 23.7847V33.5697C17.2402 36.6188 19.7354 39.1142 22.7845 39.1142H27.0919C26.4757 41.5522 25.7293 43.7429 23.4493 45.7649C27.8089 44.6499 31.1744 42.3957 33.6444 39.1142H34.3893C37.4382 39.1142 42.0273 36.6193 42.0273 33.5697V23.7847C42.0268 20.7351 39.5322 18.2402 36.4826 18.2402ZM35.807 27.0267C34.696 27.0267 33.7953 27.9278 33.7953 29.0389C33.7953 30.15 34.696 31.0511 35.807 31.0511C36.9186 31.0511 37.8193 30.15 37.8193 29.0389C37.8193 27.9278 36.9186 27.0267 35.807 27.0267ZM23.46 27.0267C22.3487 27.0267 21.4478 27.9278 21.4478 29.0389C21.4478 30.15 22.3487 31.0511 23.46 31.0511C24.5711 31.0511 25.4722 30.15 25.4722 29.0389C25.4722 27.9278 24.5711 27.0267 23.46 27.0267ZM29.6337 27.0267C28.5226 27.0267 27.6214 27.9278 27.6214 29.0389C27.6214 30.15 28.5226 31.0511 29.6337 31.0511C30.745 31.0511 31.6456 30.15 31.6456 29.0389C31.6456 27.9278 30.745 27.0267 29.6337 27.0267ZM22.7845 17H36.4828H36.4843V17.0049C38.3539 17.0054 40.0498 17.7664 41.2751 18.992L41.2727 18.9944C42.5 20.2232 43.2619 21.9185 43.2624 23.784H43.2673V23.7847H43.2624V33.5697H43.2673V33.5707H43.2624C43.2615 35.5653 41.8757 37.3034 40.03 38.5173C38.311 39.6474 36.1403 40.3493 34.3893 40.3496V40.3547H34.3888V40.3496H34.2482C33.0119 41.8899 31.577 43.2046 29.9332 44.2839C28.1161 45.4773 26.0601 46.3765 23.754 46.9663L23.753 46.9624C23.3189 47.0723 22.8406 46.9417 22.5235 46.5835C22.0713 46.0725 22.1192 45.2915 22.6302 44.8393C23.6356 43.948 24.3023 43.0202 24.785 42.0478C25.0538 41.5061 25.2699 40.9409 25.4576 40.354H22.7842H22.7825V40.3488C20.9134 40.3483 19.2176 39.5873 17.992 38.3617C16.7661 37.1364 16.0051 35.4401 16.0049 33.5702H16V33.5695H16.0049V23.7847H16V23.783H16.0049C16.0051 21.9517 16.738 20.2862 17.9234 19.0664C17.9451 19.041 17.9675 19.0161 17.9915 18.9922C19.2173 17.7664 20.9134 17.0049 22.7835 17.0046V17H22.7845Z" fill="white"/>
</g>
<defs>
<clipPath id="clip0_1330_6838">
<rect width="27.2673" height="30" fill="white" transform="translate(16 17)"/>
</clipPath>
</defs>
</svg>
