<svg width="40" height="40" viewBox="0 0 40 40" fill="none" xmlns="http://www.w3.org/2000/svg">
<path d="M19.9997 25.8333C23.683 25.8333 26.6663 22.8499 26.6663 19.1666V9.99992C26.6663 6.31659 23.683 3.33325 19.9997 3.33325C16.3163 3.33325 13.333 6.31659 13.333 9.99992V19.1666C13.333 22.8499 16.3163 25.8333 19.9997 25.8333Z" stroke="white" stroke-width="2.2" stroke-linecap="round" stroke-linejoin="round"/>
<path d="M7.25 16.0833V18.9166C7.25 25.9499 12.9667 31.6666 20 31.6666C27.0333 31.6666 32.75 25.9499 32.75 18.9166V16.0833" stroke="white" stroke-width="2.2" stroke-linecap="round" stroke-linejoin="round"/>
<path d="M17.6836 10.7167C19.1836 10.1667 20.8169 10.1667 22.3169 10.7167" stroke="white" stroke-width="2.2" stroke-linecap="round" stroke-linejoin="round"/>
<path d="M18.667 14.25C19.5503 14.0166 20.467 14.0166 21.3503 14.25" stroke="white" stroke-width="2.2" stroke-linecap="round" stroke-linejoin="round"/>
<path d="M20 31.6667V36.6667" stroke="white" stroke-width="2.2" stroke-linecap="round" stroke-linejoin="round"/>
</svg>
