<svg width="20" height="20" viewBox="0 0 20 20" fill="none" xmlns="http://www.w3.org/2000/svg">
<path d="M10.0003 12.917C11.842 12.917 13.3337 11.4253 13.3337 9.58366V5.00033C13.3337 3.15866 11.842 1.66699 10.0003 1.66699C8.15866 1.66699 6.66699 3.15866 6.66699 5.00033V9.58366C6.66699 11.4253 8.15866 12.917 10.0003 12.917Z" stroke="#503C3B" stroke-width="1.5" stroke-linecap="round" stroke-linejoin="round"/>
<path d="M3.625 8.04199V9.45866C3.625 12.9753 6.48333 15.8337 10 15.8337C13.5167 15.8337 16.375 12.9753 16.375 9.45866V8.04199" stroke="#503C3B" stroke-width="1.5" stroke-linecap="round" stroke-linejoin="round"/>
<path d="M8.8418 5.35859C9.5918 5.08359 10.4085 5.08359 11.1585 5.35859" stroke="#503C3B" stroke-width="1.5" stroke-linecap="round" stroke-linejoin="round"/>
<path d="M9.33398 7.12559C9.77565 7.00892 10.234 7.00892 10.6757 7.12559" stroke="#503C3B" stroke-width="1.5" stroke-linecap="round" stroke-linejoin="round"/>
<path d="M10 15.833V18.333" stroke="#503C3B" stroke-width="1.5" stroke-linecap="round" stroke-linejoin="round"/>
</svg>
