<svg width="16" height="4" viewBox="0 0 16 4" fill="none" xmlns="http://www.w3.org/2000/svg">
<path d="M2.49837 3.83329C1.99421 3.83329 1.56276 3.65363 1.20404 3.29429C0.844706 2.93557 0.665039 2.50413 0.665039 1.99996C0.665039 1.49579 0.844706 1.06404 1.20404 0.704709C1.56276 0.345987 1.99421 0.166626 2.49837 0.166626C3.00254 0.166626 3.43398 0.345987 3.79271 0.704709C4.15204 1.06404 4.33171 1.49579 4.33171 1.99996C4.33171 2.50413 4.15204 2.93557 3.79271 3.29429C3.43398 3.65363 3.00254 3.83329 2.49837 3.83329ZM7.99837 3.83329C7.49421 3.83329 7.06276 3.65363 6.70404 3.29429C6.34471 2.93557 6.16504 2.50413 6.16504 1.99996C6.16504 1.49579 6.34471 1.06404 6.70404 0.704709C7.06276 0.345987 7.49421 0.166626 7.99837 0.166626C8.50254 0.166626 8.93429 0.345987 9.29362 0.704709C9.65234 1.06404 9.83171 1.49579 9.83171 1.99996C9.83171 2.50413 9.65234 2.93557 9.29362 3.29429C8.93429 3.65363 8.50254 3.83329 7.99837 3.83329ZM13.4984 3.83329C12.9942 3.83329 12.5625 3.65363 12.2031 3.29429C11.8444 2.93557 11.665 2.50413 11.665 1.99996C11.665 1.49579 11.8444 1.06404 12.2031 0.704709C12.5625 0.345987 12.9942 0.166626 13.4984 0.166626C14.0025 0.166626 14.4343 0.345987 14.7936 0.704709C15.1523 1.06404 15.3317 1.49579 15.3317 1.99996C15.3317 2.50413 15.1523 2.93557 14.7936 3.29429C14.4343 3.65363 14.0025 3.83329 13.4984 3.83329Z" fill="#503C3B"/>
</svg>
