<svg width="24" height="24" viewBox="0 0 24 24" fill="none" xmlns="http://www.w3.org/2000/svg">
<path d="M21.2505 5.77V9C21.2505 11.1146 20.5427 11.899 18.6312 12.0068C18.3555 12.0223 18.1305 11.7961 18.1305 11.52V10.38C18.1305 7.26 16.7405 5.87 13.6205 5.87H12.4805C12.2043 5.87 11.9781 5.64494 11.9937 5.36924C12.1014 3.45773 12.8859 2.75 15.0005 2.75H18.2305C20.5205 2.75 21.2505 3.48 21.2505 5.77Z" fill="white"/>
<path d="M16.6311 10.3801V13.6201C16.6311 15.9001 15.9011 16.6301 13.6211 16.6301H10.3811C8.10109 16.6301 7.37109 15.9001 7.37109 13.6201V10.3801C7.37109 8.10012 8.10109 7.37012 10.3811 7.37012H13.6211C15.9011 7.37012 16.6311 8.10012 16.6311 10.3801Z" fill="white"/>
<path d="M11.52 18.1305C11.7961 18.1305 12.0223 18.3555 12.0068 18.6312C11.899 20.5427 11.1146 21.2505 9 21.2505H5.77C3.48 21.2505 2.75 20.5205 2.75 18.2305V15.0005C2.75 12.8859 3.45773 12.1014 5.36924 11.9937C5.64494 11.9781 5.87 12.2043 5.87 12.4805V13.6205C5.87 16.7405 7.26 18.1305 10.38 18.1305H11.52Z" fill="white"/>
</svg>
