<svg width="10" height="17" viewBox="0 0 10 17" fill="none" xmlns="http://www.w3.org/2000/svg">
<path d="M7.55933 16.1396L0.238944 8.84094C0.152055 8.75405 0.0906538 8.65992 0.0547397 8.55855C0.0182464 8.45718 0 8.34857 0 8.23272C0 8.11687 0.0182464 8.00826 0.0547397 7.90689C0.0906538 7.80552 0.152055 7.71139 0.238944 7.6245L7.55933 0.304111C7.76207 0.10137 8.0155 0 8.31961 0C8.62372 0 8.88439 0.108611 9.10161 0.325833C9.31883 0.543055 9.42744 0.796481 9.42744 1.08611C9.42744 1.37574 9.31883 1.62917 9.10161 1.84639L2.71528 8.23272L9.10161 14.6191C9.30435 14.8218 9.40572 15.0715 9.40572 15.368C9.40572 15.6652 9.29711 15.9224 9.07989 16.1396C8.86266 16.3568 8.60924 16.4654 8.31961 16.4654C8.02998 16.4654 7.77655 16.3568 7.55933 16.1396Z" fill="#1C1B1F"/>
</svg>
