<svg width="24" height="24" viewBox="0 0 24 24" fill="none" xmlns="http://www.w3.org/2000/svg">
<path d="M11.9498 21.8996C17.4449 21.8996 21.8996 17.4449 21.8996 11.9498C21.8996 6.45468 17.4449 2 11.9498 2C6.45468 2 2 6.45468 2 11.9498C2 17.4449 6.45468 21.8996 11.9498 21.8996Z" stroke="#503C3B" stroke-width="2.3" stroke-miterlimit="10"/>
<path d="M20.5858 23.4142C21.3668 24.1953 22.6332 24.1953 23.4142 23.4142C24.1953 22.6332 24.1953 21.3668 23.4142 20.5858L20.5858 23.4142ZM21.6553 18.8269L20.2411 17.4127L17.4127 20.2411L18.8269 21.6553L21.6553 18.8269ZM23.4142 20.5858L21.6553 18.8269L18.8269 21.6553L20.5858 23.4142L23.4142 20.5858Z" fill="#503C3B"/>
</svg>
