<svg width="24" height="24" viewBox="0 0 24 24" fill="none" xmlns="http://www.w3.org/2000/svg">
<path d="M12 7.75V13" stroke="#292D32" stroke-width="1.5" stroke-linecap="round" stroke-linejoin="round"/>
<path d="M12 7.75V13" stroke="#969090" stroke-width="1.5" stroke-linecap="round" stroke-linejoin="round"/>
<path d="M21.0763 8.58003V15.42C21.0763 16.54 20.4763 17.58 19.5063 18.15L13.5663 21.58C12.5963 22.14 11.3963 22.14 10.4163 21.58L4.47626 18.15C3.50626 17.59 2.90625 16.55 2.90625 15.42V8.58003C2.90625 7.46003 3.50626 6.41999 4.47626 5.84999L10.4163 2.42C11.3863 1.86 12.5863 1.86 13.5663 2.42L19.5063 5.84999C20.4763 6.41999 21.0763 7.45003 21.0763 8.58003Z" stroke="#292D32" stroke-width="1.5" stroke-linecap="round" stroke-linejoin="round"/>
<path d="M21.0763 8.58003V15.42C21.0763 16.54 20.4763 17.58 19.5063 18.15L13.5663 21.58C12.5963 22.14 11.3963 22.14 10.4163 21.58L4.47626 18.15C3.50626 17.59 2.90625 16.55 2.90625 15.42V8.58003C2.90625 7.46003 3.50626 6.41999 4.47626 5.84999L10.4163 2.42C11.3863 1.86 12.5863 1.86 13.5663 2.42L19.5063 5.84999C20.4763 6.41999 21.0763 7.45003 21.0763 8.58003Z" stroke="#969090" stroke-width="1.5" stroke-linecap="round" stroke-linejoin="round"/>
<path d="M12 16.2002V16.3002" stroke="#292D32" stroke-width="2" stroke-linecap="round" stroke-linejoin="round"/>
<path d="M12 16.2002V16.3002" stroke="#969090" stroke-width="2" stroke-linecap="round" stroke-linejoin="round"/>
</svg>
