<svg width="33" height="34" viewBox="0 0 33 34" fill="none" xmlns="http://www.w3.org/2000/svg">
<path d="M16 28C22.6274 28 28 22.6274 28 16C28 9.37258 22.6274 4 16 4C9.37258 4 4 9.37258 4 16C4 22.6274 9.37258 28 16 28Z" stroke="#503C3B" stroke-width="2.3" stroke-miterlimit="10"/>
<path d="M26.7069 29.5356C27.4879 30.3166 28.7543 30.3166 29.5353 29.5356C30.3164 28.7545 30.3164 27.4882 29.5353 26.7071L26.7069 29.5356ZM27.414 24.5858L25.9998 23.1716L23.1713 26L24.5856 27.4142L27.414 24.5858ZM29.5353 26.7071L27.414 24.5858L24.5856 27.4142L26.7069 29.5356L29.5353 26.7071Z" fill="#503C3B"/>
<g clip-path="url(#clip0_1522_4378)">
<path d="M21.5666 11.4719C21.661 11.3775 21.4723 11.2832 21.378 11.2832L15.4346 13.3587L16.4723 14.4908C16.944 14.3021 17.51 14.4908 17.8874 14.8681C18.2648 15.3398 18.3591 15.9058 18.0761 16.2832L19.0195 17.3209L21.5666 11.4719Z" fill="#503C3B" stroke="#503C3B" stroke-width="0.625569" stroke-miterlimit="10" stroke-linejoin="round"/>
<path d="M11.2825 20.528C11.1882 20.6224 11.3769 20.7167 11.4712 20.7167L17.509 18.7356L16.4712 17.6035C15.9995 17.7922 15.4335 17.6035 15.0561 17.2261C14.6788 16.7544 14.6788 16.1884 14.8675 15.7167L13.9241 14.679L11.2825 20.528Z" fill="#503C3B" stroke="#503C3B" stroke-width="0.625569" stroke-miterlimit="10" stroke-linejoin="round"/>
</g>
<defs>
<clipPath id="clip0_1522_4378">
<rect width="10.9434" height="10" fill="white" transform="translate(11 11)"/>
</clipPath>
</defs>
</svg>
