<svg width="39" height="38" viewBox="0 0 39 38" fill="none" xmlns="http://www.w3.org/2000/svg">
<path d="M13.3635 26.9749C13.3643 27.3078 13.1874 27.615 12.8994 27.7808C12.6115 27.9466 12.2562 27.9457 11.9675 27.7786C11.6787 27.6114 11.5003 27.3033 11.4995 26.9703L11.4601 10.0099C11.5276 6.18286 14.6554 3.13373 18.4834 3.16323C22.3114 3.19273 25.4215 6.28992 25.4671 10.1179L25.5196 30.4762L25.515 30.5776C25.4283 32.0228 25.0127 33.2064 24.2068 34.0865C23.4009 34.9666 22.216 35.5062 20.6324 35.6151L20.6115 35.6166L20.5632 35.6165C19.8254 35.6235 19.0936 35.4759 18.4149 35.1831C17.7643 34.8949 17.1946 34.45 16.7571 33.8882C16.2205 33.209 15.8607 32.4077 15.7101 31.5566C15.5887 30.8233 15.5374 30.0805 15.5566 29.3382L15.5077 10.4447C15.5059 8.81846 16.812 7.49942 18.438 7.48525L18.467 7.48533C20.0723 7.48822 21.3887 8.77045 21.4341 10.3753L21.4391 10.4574L21.4752 26.7241C21.476 27.057 21.2991 27.3643 21.0112 27.53C20.7233 27.6958 20.368 27.695 20.0792 27.5278C19.7905 27.3606 19.6121 27.0525 19.6113 26.7196L19.5686 10.411C19.5355 9.82701 19.0563 9.36601 18.4715 9.35569C17.8649 9.35553 17.3747 9.84577 17.3748 10.4524L17.4141 29.3459C17.3983 29.9716 17.4386 30.5976 17.5345 31.2166C17.6328 31.772 17.8668 32.2951 18.2159 32.7393C18.4671 33.0612 18.7933 33.3168 19.1657 33.4836C19.5991 33.6644 20.0642 33.7558 20.5329 33.7525C21.5983 33.6746 22.3524 33.3529 22.8404 32.8197C23.3285 32.2865 23.5937 31.4823 23.654 30.4604L23.6048 10.115C23.5592 7.31546 21.2826 5.05598 18.483 5.03167C15.6833 5.00737 13.3895 7.22717 13.3225 10.0257L13.3635 26.9749Z" fill="white"/>
</svg>
