<svg width="16" height="18" viewBox="0 0 16 18" fill="none" xmlns="http://www.w3.org/2000/svg">
<path d="M13.741 4.58116C13.9568 3.17435 13.741 2.23647 12.9858 1.37074C12.1587 0.396794 10.6483 0 8.70639 0H3.13234C2.73676 0 2.41311 0.288577 2.34118 0.685371L0.00367706 15.4749C-0.0322846 15.7635 0.183485 16.016 0.471178 16.016H3.92349L3.67176 17.5311C3.6358 17.7836 3.81561 18 4.1033 18H7.01619C7.37581 18 7.6635 17.7475 7.69946 17.4228L8.31081 13.5992C8.34677 13.2745 8.67043 13.022 8.99408 13.022H9.42562C12.2306 13.022 14.4602 11.8677 15.1076 8.5491C15.3593 7.17836 15.2514 5.98798 14.5322 5.19439C14.3164 4.94188 14.0647 4.76152 13.741 4.58116Z" fill="#009CDE"/>
<path d="M13.741 4.58116C13.9568 3.17435 13.741 2.23647 12.9858 1.37074C12.1587 0.396793 10.6483 0 8.70639 0H3.13234C2.73676 0 2.41311 0.288577 2.34118 0.685371L0.00367706 15.4749C-0.0322846 15.7635 0.183485 16.016 0.471178 16.016H3.92349L4.75061 10.6774C4.82253 10.2806 5.14619 9.99198 5.54177 9.99198H7.196C10.4325 9.99198 12.9499 8.69339 13.6691 4.86974C13.7051 4.79759 13.7051 4.68938 13.741 4.58116Z" fill="#012169"/>
<path d="M5.72157 4.61723C5.75754 4.36473 6.08119 4.04008 6.40485 4.04008H10.7922C11.2956 4.04008 11.7991 4.07615 12.2306 4.1483C12.6262 4.22044 13.3454 4.4008 13.7051 4.61723C13.9208 3.21042 13.7051 2.27254 12.9499 1.40681C12.1587 0.396794 10.6483 0 8.70639 0H3.13234C2.73676 0 2.41311 0.288577 2.34118 0.685371L0.00367706 15.4749C-0.0322846 15.7635 0.183485 16.016 0.471178 16.016H3.92349L5.72157 4.61723Z" fill="#003087"/>
</svg>
