<svg width="49" height="49" viewBox="0 0 49 49" fill="none" xmlns="http://www.w3.org/2000/svg">
<path d="M30.689 7.33594C32.1778 12.6468 36.3331 16.8021 41.6661 18.3131" stroke="#543B3A" stroke-width="3" stroke-miterlimit="10" stroke-linecap="round" stroke-linejoin="round"/>
<path d="M33.1988 4.8248L15.6886 22.335C15.022 23.0016 14.3553 24.3126 14.222 25.2681L13.2665 31.9566C12.911 34.3787 14.622 36.0675 17.0441 35.7342L23.7326 34.7787C24.6659 34.6454 25.9769 33.9788 26.6658 33.3121L44.1759 15.802C47.198 12.7799 48.6201 9.269 44.1759 4.8248C39.7317 0.380598 36.2208 1.80274 33.1988 4.8248Z" stroke="#543B3A" stroke-width="3" stroke-miterlimit="10" stroke-linecap="round" stroke-linejoin="round"/>
<path d="M21.9994 2.55811H17.5552C6.44469 2.55811 2.00049 7.00231 2.00049 18.1128V31.4454C2.00049 42.5559 6.44469 47.0001 17.5552 47.0001H30.8878C41.9983 47.0001 46.4425 42.5559 46.4425 31.4454V27.0012" stroke="#543B3A" stroke-width="3" stroke-linecap="round" stroke-linejoin="round"/>
</svg>
