<svg width="11" height="15" viewBox="0 0 11 15" fill="none" xmlns="http://www.w3.org/2000/svg">
<path d="M0.32 12.86H2.28V8.7H0.32V7.02H2.28V5.36C2.28 4.86667 2.36 4.33333 2.52 3.76C2.68 3.18667 2.94667 2.66 3.32 2.18C3.70667 1.68667 4.21333 1.28 4.84 0.96C5.46667 0.64 6.24 0.48 7.16 0.48C7.88 0.48 8.53333 0.586666 9.12 0.799999C9.72 0.999999 10.24 1.29333 10.68 1.68L9.26 3.34C9.00667 3.07333 8.7 2.86667 8.34 2.72C7.98 2.56 7.58667 2.48 7.16 2.48C6.68 2.48 6.28 2.58 5.96 2.78C5.65333 2.96667 5.40667 3.20667 5.22 3.5C5.03333 3.79333 4.9 4.11333 4.82 4.46C4.75333 4.80667 4.72 5.14 4.72 5.46V7.02H8V8.7H4.72V12.86H10.02V15H0.32V12.86Z" fill="#503C3B"/>
</svg>
