<svg width="20" height="23" viewBox="0 0 20 23" fill="none" xmlns="http://www.w3.org/2000/svg">
<path d="M10.0584 11.6664C11.1812 11.6664 12.0914 10.7562 12.0914 9.63336C12.0914 8.51056 11.1812 7.60034 10.0584 7.60034C8.9356 7.60034 8.02539 8.51056 8.02539 9.63336C8.02539 10.7562 8.9356 11.6664 10.0584 11.6664Z" stroke="#503C3B" stroke-width="1.5" stroke-miterlimit="10" stroke-linecap="round" stroke-linejoin="round"/>
<path d="M10.0596 11.6666V14.7162" stroke="#503C3B" stroke-width="1.5" stroke-miterlimit="10" stroke-linecap="round" stroke-linejoin="round"/>
<path d="M19.1142 10.263C19.1142 15.2338 15.5056 19.8894 10.5755 21.2515C10.2401 21.343 9.87412 21.343 9.53867 21.2515C4.6086 19.8894 1 15.2338 1 10.263V5.80055C1 4.96702 1.63025 4.02166 2.41296 3.70655L8.0749 1.38894C9.34553 0.870517 10.7788 0.870517 12.0495 1.38894L17.7114 3.70655C18.484 4.02166 19.1244 4.96702 19.1244 5.80055L19.1142 10.263Z" stroke="#503C3B" stroke-width="1.5" stroke-linecap="round" stroke-linejoin="round"/>
</svg>
