<svg width="18" height="15" viewBox="0 0 18 15" fill="none" xmlns="http://www.w3.org/2000/svg">
<path d="M16.75 6.53346C17.075 6.53346 17.3333 6.27513 17.3333 5.95013V5.17513C17.3333 1.75846 16.2916 0.716797 12.875 0.716797H5.12496C1.70829 0.716797 0.666626 1.75846 0.666626 5.17513V5.5668C0.666626 5.8918 0.924959 6.15013 1.24996 6.15013C1.99996 6.15013 2.60829 6.75846 2.60829 7.50846C2.60829 8.25846 1.99996 8.85846 1.24996 8.85846C0.924959 8.85846 0.666626 9.1168 0.666626 9.4418V9.83346C0.666626 13.2501 1.70829 14.2918 5.12496 14.2918H12.875C16.2916 14.2918 17.3333 13.2501 17.3333 9.83346C17.3333 9.50846 17.075 9.25013 16.75 9.25013C16 9.25013 15.3916 8.6418 15.3916 7.8918C15.3916 7.1418 16 6.53346 16.75 6.53346ZM6.49996 4.90013C6.95829 4.90013 7.33329 5.27513 7.33329 5.73346C7.33329 6.1918 6.96663 6.5668 6.49996 6.5668C6.04163 6.5668 5.66663 6.1918 5.66663 5.73346C5.66663 5.27513 6.03329 4.90013 6.49996 4.90013ZM11.5 10.7335C11.0333 10.7335 10.6583 10.3585 10.6583 9.90013C10.6583 9.4418 11.0333 9.0668 11.4916 9.0668C11.95 9.0668 12.325 9.4418 12.325 9.90013C12.325 10.3585 11.9666 10.7335 11.5 10.7335ZM12.25 5.40013L6.64163 11.0085C6.51663 11.1335 6.35829 11.1918 6.19996 11.1918C6.04163 11.1918 5.88329 11.1335 5.75829 11.0085C5.51663 10.7668 5.51663 10.3668 5.75829 10.1251L11.3666 4.5168C11.6083 4.27513 12.0083 4.27513 12.25 4.5168C12.4916 4.75846 12.4916 5.15846 12.25 5.40013Z" fill="#666666"/>
</svg>
