<svg width="16" height="17" viewBox="0 0 16 17" fill="none" xmlns="http://www.w3.org/2000/svg">
<path fill-rule="evenodd" clip-rule="evenodd" d="M15.7985 4.7846L11.2132 0.199245C10.8234 -0.190555 10.2036 0.210939 10.0178 0.555263C9.98662 0.613733 10.0425 0.667005 9.99182 1.0633C9.93656 1.56654 9.81781 2.06075 9.6384 2.53415L7.59845 4.5741C6.78506 5.38879 5.62086 5.02627 4.62687 4.53252C4.41768 4.42858 4.14872 4.1986 3.91613 4.43118L3.05208 5.29523C2.99138 5.35612 2.9573 5.43859 2.9573 5.52457C2.9573 5.61054 2.99138 5.69301 3.05208 5.7539L10.3011 13.0016C10.362 13.0623 10.4444 13.0964 10.5304 13.0964C10.6164 13.0964 10.6988 13.0623 10.7597 13.0016L11.6225 12.1375C11.8525 11.9075 11.5588 11.61 11.4393 11.3579C10.9975 10.4484 10.6012 9.22442 11.3379 8.4877L13.4675 6.36848C13.9507 6.22105 14.4434 6.1073 14.9423 6.02806C15.3438 5.96439 15.3932 6.01506 15.4503 5.97738C15.8011 5.75 16.1909 5.17699 15.7985 4.7846ZM6.99816 10.707L5.3467 9.05681L0.0493164 15.7562L0.298789 16.0043L6.99816 10.707Z" fill="white" stroke="white" stroke-width="0.57" stroke-miterlimit="22.93"/>
</svg>
