<svg width="55" height="55" viewBox="0 0 55 55" fill="none" xmlns="http://www.w3.org/2000/svg">
<path d="M20.6247 50.4166H34.3747C45.833 50.4166 50.4163 45.8332 50.4163 34.3749V20.6249C50.4163 9.16658 45.833 4.58325 34.3747 4.58325H20.6247C9.16634 4.58325 4.58301 9.16658 4.58301 20.6249V34.3749C4.58301 45.8332 9.16634 50.4166 20.6247 50.4166Z" stroke="#503C3B" stroke-width="3.4" stroke-linecap="round" stroke-linejoin="round"/>
<path d="M20.8545 27.4999V24.1083C20.8545 19.7312 23.9482 17.9666 27.7295 20.1437L30.6628 21.8395L33.5962 23.5353C37.3774 25.7124 37.3774 29.2874 33.5962 31.4645L30.6628 33.1603L27.7295 34.8562C23.9482 37.0332 20.8545 35.2457 20.8545 30.8916V27.4999Z" stroke="#503C3B" stroke-width="3.4" stroke-miterlimit="10" stroke-linecap="round" stroke-linejoin="round"/>
</svg>
