<svg width="28" height="24" viewBox="0 0 28 24" fill="none" xmlns="http://www.w3.org/2000/svg">
<g clip-path="url(#clip0_3172_12988)">
<path d="M12.9655 4.4806L13.6156 5.11506L14.244 4.45915C14.4172 4.27836 14.5832 4.103 14.7437 3.9334C16.3042 2.28476 17.3489 1.18098 19.5072 0.931434C21.762 0.674732 23.9484 1.70238 25.2802 3.38286C26.5956 5.04264 27.0511 7.30009 25.917 9.56352L25.9169 9.56373C25.2407 10.9141 23.8151 12.5952 22.1389 14.3294L22.1387 14.3296C20.9868 15.5221 19.7821 16.6755 18.681 17.7297C18.023 18.3597 17.4019 18.9543 16.8512 19.5008C16.8512 19.5008 16.8511 19.5008 16.8511 19.5008L13.5869 22.7388L11.007 20.2558C11.0069 20.2557 11.0068 20.2556 11.0068 20.2556C10.3605 19.6332 9.66851 19.0024 8.9586 18.3553C7.46558 16.9943 5.89328 15.5611 4.49997 13.9818C2.4593 11.6687 0.999208 9.24316 0.898984 6.65532C0.779822 3.18614 3.48289 0.920461 6.74817 0.961791C8.22567 0.981871 9.23142 1.35178 10.1164 1.93418C10.9078 2.45492 11.6028 3.13965 12.4709 3.99488C12.6295 4.15109 12.7938 4.31298 12.9655 4.4806Z" stroke="#503C3B" stroke-width="1.8"/>
</g>
<defs>
<clipPath id="clip0_3172_12988">
<rect width="27.4618" height="24" fill="white"/>
</clipPath>
</defs>
</svg>
