<svg width="20" height="21" viewBox="0 0 20 21" fill="none" xmlns="http://www.w3.org/2000/svg">
<path d="M14 3.00023C17.33 3.17042 19 4.33338 19 8.65429V14.3273C19 18.1092 18 20.0002 13 20.0002H7C2 20.0002 1 18.1092 1 14.3273V8.65429C1 4.34283 2.67 3.17042 6 3.00023" stroke="#543B3A" stroke-width="1.7" stroke-miterlimit="10" stroke-linecap="round" stroke-linejoin="round"/>
<path d="M8 5.00023H12C14 5.00023 14 4.00023 14 3.00023C14 1.00023 13 1.00023 12 1.00023H8C7 1.00023 6 1.00023 6 3.00023C6 5.00023 7 5.00023 8 5.00023Z" stroke="#543B3A" stroke-width="1.7" stroke-miterlimit="10" stroke-linecap="round" stroke-linejoin="round"/>
<path d="M7.31006 12.5002L8.81006 14.0002L12.8101 10.0002" stroke="#543B3A" stroke-width="1.7" stroke-linecap="round" stroke-linejoin="round"/>
</svg>
