<svg width="21" height="20" viewBox="0 0 21 20" fill="none" xmlns="http://www.w3.org/2000/svg">
<path fill-rule="evenodd" clip-rule="evenodd" d="M10.0009 1.42887L12.8587 7.62066H19.0504L14.7638 11.9073L15.7164 18.5754L10.0009 14.6841L4.28541 18.5754L5.71428 11.9073L1.42766 7.62066H7.14315L10.0009 1.42887ZM10.0009 0C9.44455 0.000477134 8.93906 0.323842 8.70539 0.828747L6.22867 6.19179H1.42766C0.850124 6.19229 0.329682 6.54042 0.108738 7.07402C-0.112207 7.60763 0.00979605 8.22177 0.417921 8.6304L4.15204 12.3645L2.88035 18.2705C2.75791 18.8414 2.99516 19.4294 3.47954 19.7555C3.96391 20.0815 4.59794 20.0801 5.08081 19.7518L9.99614 16.4178L14.9019 19.7518C15.3696 20.0705 15.9812 20.0833 16.4617 19.7843C16.9422 19.4853 17.2009 18.9309 17.1215 18.3706L16.2737 12.4074L20.0554 8.62564C20.4596 8.21719 20.5797 7.60638 20.3604 7.07528C20.1411 6.54417 19.625 6.1961 19.0504 6.19179H13.7731L11.2964 0.828747C11.0627 0.323842 10.5573 0.000477134 10.0009 0Z" fill="#543B3A"/>
</svg>
