<svg width="22" height="22" viewBox="0 0 22 22" fill="none" xmlns="http://www.w3.org/2000/svg">
<path d="M1.89771 4.21664C2.63105 1.04497 7.40688 1.04497 8.13105 4.21664C8.56188 6.07747 7.37938 7.65414 6.35271 8.63497C5.60105 9.34997 4.41855 9.34081 3.66688 8.63497C2.64938 7.65414 1.46688 6.07747 1.89771 4.21664Z" stroke="#503C3B" stroke-width="1.7"/>
<path d="M13.8142 15.2166C14.5475 12.045 19.3508 12.045 20.0842 15.2166C20.515 17.0775 19.3325 18.6541 18.2967 19.635C17.545 20.35 16.3533 20.3408 15.6017 19.635C14.5658 18.6541 13.3833 17.0775 13.8142 15.2166Z" stroke="#503C3B" stroke-width="1.7"/>
<path d="M11.0001 4.58301H13.4567C15.1526 4.58301 15.9409 6.68217 14.6667 7.80051L7.34255 14.208C6.06838 15.3172 6.85672 17.4163 8.54338 17.4163H11.0001" stroke="#503C3B" stroke-width="1.7" stroke-linecap="round" stroke-linejoin="round"/>
<path d="M5.02891 5.04134H5.0395" stroke="#503C3B" stroke-width="1.7" stroke-linecap="round" stroke-linejoin="round"/>
<path d="M16.9459 16.0413H16.9565" stroke="#503C3B" stroke-width="1.7" stroke-linecap="round" stroke-linejoin="round"/>
</svg>
