<svg width="22" height="22" viewBox="0 0 22 22" fill="none" xmlns="http://www.w3.org/2000/svg">
<path d="M10.9987 20.1664C16.0613 20.1664 20.1654 16.0624 20.1654 10.9998C20.1654 5.93716 16.0613 1.8331 10.9987 1.8331C5.93609 1.8331 1.83203 5.93716 1.83203 10.9998C1.83203 16.0624 5.93609 20.1664 10.9987 20.1664Z" stroke="#503C3B" stroke-width="1.5" stroke-linecap="round" stroke-linejoin="round"/>
<path d="M14.96 14.4817C13.4 10.6017 12.4 9.68171 12.4 9.64171C12.4 9.64171 11.44 8.64171 7.56 7.04171C7.4 6.96171 7.24 7.00171 7.12 7.12171C7.08 7.16171 7.04 7.24171 7.04 7.28171C7 7.36171 7 7.44171 7.04 7.56171C7.04 7.56171 7.04 7.56171 7.04 7.60171L7 7.56171C8.6 11.4417 9.56 12.4017 9.6 12.4017C9.6 12.4017 9.8 12.6017 10.32 12.9617C11 13.4017 12.2 14.0817 14.28 14.9217C14.36 14.9617 14.4 14.9617 14.48 15.0017L14.44 14.9617C14.6 15.0417 14.76 15.0017 14.88 14.8817C14.92 14.8417 14.96 14.7617 15 14.6817C15 14.6017 15 14.5617 15 14.4817C14.96 14.5217 14.96 14.4817 14.96 14.4817ZM11 11.8817C10.52 11.8817 10.16 11.4817 10.16 11.0417C10.16 10.5617 10.56 10.2017 11 10.2017C11.44 10.2017 11.84 10.6017 11.84 11.0417C11.84 11.5217 11.48 11.8817 11 11.8817Z" fill="#503C3B"/>
</svg>
