<svg width="25" height="29" viewBox="0 0 25 29" fill="none" xmlns="http://www.w3.org/2000/svg">
<path d="M19.4301 1.52588e-05H5.55559C2.50435 1.52588e-05 3.05176e-05 2.50433 3.05176e-05 5.55557V25.8348C3.05176e-05 28.4255 1.85668 29.5193 4.13072 28.2671L11.1543 24.3667C11.9027 23.9494 13.1117 23.9494 13.8457 24.3667L20.8693 28.2671C23.1434 29.5337 25 28.4399 25 25.8348V5.55557C24.9856 2.50433 22.4957 1.52588e-05 19.4301 1.52588e-05ZM17.703 10.2476L11.9459 16.0046C11.73 16.2205 11.4566 16.3213 11.1831 16.3213C10.9096 16.3213 10.6362 16.2205 10.4203 16.0046L8.2614 13.8457C7.84401 13.4283 7.84401 12.7375 8.2614 12.3201C8.67879 11.9027 9.36963 11.9027 9.78702 12.3201L11.1831 13.7162L16.1773 8.72195C16.5947 8.30457 17.2856 8.30457 17.703 8.72195C18.1204 9.13934 18.1204 9.83018 17.703 10.2476Z" fill="white" fill-opacity="0.8"/>
</svg>
