<svg width="24" height="24" viewBox="0 0 24 24" fill="none" xmlns="http://www.w3.org/2000/svg">
<rect x="1" y="1" width="22" height="22" rx="3" stroke="#503C3B" stroke-width="2"/>
<path d="M13.378 10.5855C13.25 10.3775 13.07 10.2095 12.838 10.0815C12.606 9.9455 12.346 9.8775 12.058 9.8775C11.93 9.8775 11.802 9.8935 11.674 9.9255C11.546 9.9495 11.43 9.9935 11.326 10.0575C11.23 10.1135 11.15 10.1895 11.086 10.2855C11.03 10.3735 11.002 10.4855 11.002 10.6215C11.002 10.8615 11.11 11.0415 11.326 11.1615C11.542 11.2735 11.866 11.3775 12.298 11.4735C12.57 11.5375 12.822 11.6135 13.054 11.7015C13.286 11.7895 13.486 11.9015 13.654 12.0375C13.83 12.1655 13.966 12.3215 14.062 12.5055C14.158 12.6895 14.206 12.9055 14.206 13.1535C14.206 13.4895 14.142 13.7735 14.014 14.0055C13.886 14.2375 13.714 14.4295 13.498 14.5815C13.29 14.7255 13.05 14.8295 12.778 14.8935C12.506 14.9575 12.226 14.9895 11.938 14.9895C11.506 14.9895 11.082 14.9055 10.666 14.7375C10.258 14.5695 9.91798 14.3135 9.64598 13.9695L10.45 13.2855C10.602 13.5095 10.81 13.6975 11.074 13.8495C11.346 14.0015 11.642 14.0775 11.962 14.0775C12.106 14.0775 12.242 14.0655 12.37 14.0415C12.506 14.0095 12.626 13.9615 12.73 13.8975C12.842 13.8335 12.93 13.7495 12.994 13.6455C13.058 13.5415 13.09 13.4095 13.09 13.2495C13.09 12.9855 12.962 12.7895 12.706 12.6615C12.458 12.5335 12.09 12.4135 11.602 12.3015C11.41 12.2535 11.214 12.1975 11.014 12.1335C10.822 12.0615 10.646 11.9655 10.486 11.8455C10.326 11.7255 10.194 11.5775 10.09 11.4015C9.99398 11.2175 9.94598 10.9935 9.94598 10.7295C9.94598 10.4255 10.006 10.1655 10.126 9.9495C10.254 9.7255 10.418 9.5455 10.618 9.4095C10.818 9.2655 11.046 9.1615 11.302 9.0975C11.558 9.0255 11.822 8.9895 12.094 8.9895C12.502 8.9895 12.894 9.0695 13.27 9.2295C13.654 9.3895 13.95 9.6215 14.158 9.9255L13.378 10.5855Z" fill="#503C3B"/>
</svg>
