<svg width="22" height="22" viewBox="0 0 22 22" fill="none" xmlns="http://www.w3.org/2000/svg">
<path d="M1.83447 8.25065V5.95898C1.83447 3.67648 3.67697 1.83398 5.95947 1.83398H8.25114" stroke="#503C3B" stroke-width="1.5" stroke-linecap="round" stroke-linejoin="round"/>
<path d="M13.75 1.83398H16.0417C18.3242 1.83398 20.1667 3.67648 20.1667 5.95898V8.25065" stroke="#503C3B" stroke-width="1.5" stroke-linecap="round" stroke-linejoin="round"/>
<path d="M20.1655 14.666V16.041C20.1655 18.3235 18.323 20.166 16.0405 20.166H14.6655" stroke="#503C3B" stroke-width="1.5" stroke-linecap="round" stroke-linejoin="round"/>
<path d="M8.25114 20.1667H5.95947C3.67697 20.1667 1.83447 18.3242 1.83447 16.0417V13.75" stroke="#503C3B" stroke-width="1.5" stroke-linecap="round" stroke-linejoin="round"/>
<path d="M9.62386 6.41602V8.24935C9.62386 9.16602 9.16553 9.62435 8.24886 9.62435H6.41553C5.49886 9.62435 5.04053 9.16602 5.04053 8.24935V6.41602C5.04053 5.49935 5.49886 5.04102 6.41553 5.04102H8.24886C9.16553 5.04102 9.62386 5.49935 9.62386 6.41602Z" stroke="#503C3B" stroke-width="1.5" stroke-linecap="round" stroke-linejoin="round"/>
<path d="M16.9583 6.41602V8.24935C16.9583 9.16602 16.5 9.62435 15.5833 9.62435H13.75C12.8333 9.62435 12.375 9.16602 12.375 8.24935V6.41602C12.375 5.49935 12.8333 5.04102 13.75 5.04102H15.5833C16.5 5.04102 16.9583 5.49935 16.9583 6.41602Z" stroke="#503C3B" stroke-width="1.5" stroke-linecap="round" stroke-linejoin="round"/>
<path d="M9.62386 13.75V15.5833C9.62386 16.5 9.16553 16.9583 8.24886 16.9583H6.41553C5.49886 16.9583 5.04053 16.5 5.04053 15.5833V13.75C5.04053 12.8333 5.49886 12.375 6.41553 12.375H8.24886C9.16553 12.375 9.62386 12.8333 9.62386 13.75Z" stroke="#503C3B" stroke-width="1.5" stroke-linecap="round" stroke-linejoin="round"/>
<path d="M16.9583 13.75V15.5833C16.9583 16.5 16.5 16.9583 15.5833 16.9583H13.75C12.8333 16.9583 12.375 16.5 12.375 15.5833V13.75C12.375 12.8333 12.8333 12.375 13.75 12.375H15.5833C16.5 12.375 16.9583 12.8333 16.9583 13.75Z" stroke="#503C3B" stroke-width="1.5" stroke-linecap="round" stroke-linejoin="round"/>
</svg>
