<svg width="26" height="27" viewBox="0 0 26 27" fill="none" xmlns="http://www.w3.org/2000/svg">
<path fill-rule="evenodd" clip-rule="evenodd" d="M22.1882 6.24803C20.1427 2.40289 16.1488 0.000641214 11.8006 2.60723e-05C7.03356 -0.00998047 2.73078 2.86117 0.901672 7.27263C-0.927441 11.6841 0.0780008 16.7655 3.44845 20.1438C6.8189 23.5221 11.8894 24.5307 16.2919 22.6987C17.0255 22.3934 17.7267 22.0152 18.385 21.5697L22.6523 26.2737L26 23.2075L21.5748 18.3732C23.9979 14.7551 24.2338 10.0932 22.1882 6.24803ZM13.2899 11.777L14.6341 11.0115V11.003L15.4555 18.0589L9.72029 13.8189L11.1456 13.0064C11.2397 13.0539 11.3383 13.0919 11.44 13.1197C12.2291 13.3244 13.0362 12.8572 13.2536 12.0699C13.2752 11.9737 13.2873 11.8756 13.2899 11.777ZM8.96711 12.5895L10.3369 11.809C10.3222 11.6388 10.3374 11.4673 10.3817 11.3023C10.6037 10.5236 11.4036 10.0631 12.1868 10.2632C12.3567 10.3059 12.5177 10.3783 12.6626 10.477L13.8937 9.78208L8.14566 5.54212L8.96711 12.5873V12.5895ZM5.8876 4.56412C9.59914 1.48865 15.0329 1.73404 18.4533 5.1316C19.3324 6.00694 20.0306 7.04739 20.508 8.19343C22.3578 12.6494 20.5351 17.785 16.2929 20.0696C12.0506 22.3543 6.77096 21.0437 4.08343 17.0388C1.3959 13.034 2.17607 7.63958 5.8876 4.56412Z" fill="#503C3B"/>
</svg>
