<svg width="55" height="55" viewBox="0 0 55 55" fill="none" xmlns="http://www.w3.org/2000/svg">
<path d="M24.0384 5.10996L12.6031 9.39537C9.96763 10.3808 7.81348 13.4974 7.81348 16.3162V33.3432C7.81348 36.0474 9.601 39.5995 11.7781 41.2266L21.6322 48.5829C24.8635 51.012 30.1801 51.012 33.4114 48.5829L43.2656 41.2266C45.4426 39.5995 47.2301 36.0474 47.2301 33.3432V16.3162C47.2301 13.4974 45.0759 10.3808 42.4405 9.39537L31.0051 5.10996C29.0572 4.39954 25.9405 4.39954 24.0384 5.10996Z" stroke="#503C3B" stroke-width="3.4" stroke-linecap="round" stroke-linejoin="round"/>
<path d="M27.498 25.0262C27.4063 25.0262 27.2917 25.0262 27.2001 25.0262C25.0459 24.9574 23.3271 23.1699 23.3271 20.9928C23.3271 18.7699 25.1376 16.9595 27.3605 16.9595C29.5834 16.9595 31.3939 18.7699 31.3939 20.9928C31.3709 23.1928 29.6522 24.9574 27.498 25.0262Z" stroke="#503C3B" stroke-width="3.4" stroke-linecap="round" stroke-linejoin="round"/>
<path d="M22.9361 31.4427C20.7361 32.9093 20.7361 35.3156 22.9361 36.7822C25.434 38.4551 29.5361 38.4551 32.0341 36.7822C34.2341 35.3156 34.2341 32.9093 32.0341 31.4427C29.5591 29.7698 25.457 29.7698 22.9361 31.4427Z" stroke="#503C3B" stroke-width="3.4" stroke-linecap="round" stroke-linejoin="round"/>
</svg>
