<svg width="38" height="18" viewBox="0 0 38 18" fill="none" xmlns="http://www.w3.org/2000/svg">
<path fill-rule="evenodd" clip-rule="evenodd" d="M29.5609 0C27.5645 0 25.2491 1.23545 22.2545 3.89455C21.0768 4.94565 19.9544 6.05715 18.8918 7.22455L17.1818 9C17.1818 9 11.4055 15.5455 8.18182 15.5455C4.95818 15.5455 2.45455 12.6164 2.45455 9C2.45455 5.38364 5.04 2.45455 8.18182 2.45455C10.1945 2.45455 13.23 5.05636 15.2018 6.97909L16.9445 5.23636C14.6127 2.94545 11.0618 0 8.18182 0C3.64909 0 0 4.03364 0 9C0 13.9664 3.69 18 8.18182 18C10.1782 18 12.4936 16.7645 15.4882 14.1055C16.6659 13.0543 17.7883 11.9428 18.8509 10.7755L20.5527 9C20.5527 9 26.3291 2.45455 29.5527 2.45455C32.7764 2.45455 35.28 5.38364 35.28 9C35.28 12.6164 32.6945 15.5455 29.5527 15.5455C27.5482 15.5455 24.5045 12.9436 22.5409 11.0209L20.8227 12.7964C23.1545 15.0791 26.6891 18 29.5609 18C34.0936 18 37.7427 13.9664 37.7427 9C37.7427 4.03364 34.0936 0 29.5609 0Z" fill="#503C3B"/>
<path fill-rule="evenodd" clip-rule="evenodd" d="M4.28593 14.2901L2.29879 12.4443L1.44727 8.66604L1.94853 5.68745L3.17176 3.65956L5.14547 2.66576L6.95665 1.90209H8.8849H10.2433L11.4784 2.66576L12.7771 3.20294L14.2872 4.34025L15.2997 4.63827L16.4428 4.83156L17.1491 5.41031L19.1257 7.69699C19.1257 7.69699 16.8631 10.5931 14.9905 12.4443C14.04 13.3839 12.5051 15.2654 9.64532 16.0534C8.74883 16.3004 6.30421 15.7543 6.30421 15.7543L4.28593 14.2901Z" fill="#503C3B"/>
<path fill-rule="evenodd" clip-rule="evenodd" d="M31.892 0.571163L33.9431 2.4518L35.4652 4.76438C35.4652 4.76438 37.1183 5.48659 36.9794 6.3014C36.8405 7.11621 36.9794 9.62225 36.9794 9.62225L37.3604 10.8902L35.4652 14.7273L29.8088 17.4282L26.4099 15.7543L24.4682 14.7273L23.1276 13.3892V11.8676L21.5143 13.3892L20.1245 12.2601L18.6334 10.8902C18.6334 10.8902 21.5329 6.93213 23.7862 4.76438C26.0394 2.59662 29.3593 0.571163 29.3593 0.571163H31.892Z" fill="#503C3B"/>
</svg>
