
<svg width="20" height="21" viewBox="0 0 20 21" fill="none" xmlns="http://www.w3.org/2000/svg">
<path fill-rule="evenodd" clip-rule="evenodd" d="M18.5213 9.10172L2.64329 0.394398C2.16736 0.133993 1.58938 0.143853 1.12262 0.42034C0.655847 0.696827 0.369467 1.19896 0.369141 1.74147V19.1561C0.369467 19.6986 0.655847 20.2008 1.12262 20.4772C1.58938 20.7537 2.16736 20.7636 2.64329 20.5032L18.5213 11.7959C19.0131 11.526 19.3187 11.0097 19.3187 10.4488C19.3187 9.88789 19.0131 9.37156 18.5213 9.10172ZM1.90573 19.1561V11.4732H8.56426C8.98858 11.4732 9.33256 11.1292 9.33256 10.7049C9.33256 10.2806 8.98858 9.93659 8.56426 9.93659H1.90573V1.74147L17.7838 10.4488L1.90573 19.1561Z" fill="#543B3A"/>
</svg>
