<svg width="27" height="27" viewBox="0 0 27 27" fill="none" xmlns="http://www.w3.org/2000/svg">
<path d="M19.4188 0.567027L6.50872 4.85609C-2.16949 7.75836 -2.16949 12.4906 6.50872 15.3786L10.3403 16.651L11.6127 20.4826C14.5007 29.1608 19.2472 29.1608 22.1352 20.4826L26.4386 7.5868C28.3544 1.79656 25.209 -1.36305 19.4188 0.567027ZM19.8763 8.25875L14.4435 13.7202C14.229 13.9346 13.9574 14.0347 13.6858 14.0347C13.4141 14.0347 13.1425 13.9346 12.928 13.7202C12.5134 13.3056 12.5134 12.6193 12.928 12.2047L18.3608 6.74328C18.7754 6.32867 19.4617 6.32867 19.8763 6.74328C20.2909 7.15789 20.2909 7.84414 19.8763 8.25875Z" fill="white" fill-opacity="0.8"/>
</svg>
