<svg width="20" height="20" viewBox="0 0 20 20" fill="none" xmlns="http://www.w3.org/2000/svg">
<path fill-rule="evenodd" clip-rule="evenodd" d="M9.99964 6.36365C7.99134 6.36365 6.36328 7.9917 6.36328 10C6.36328 12.0083 7.99134 13.6364 9.99964 13.6364C12.008 13.6364 13.636 12.0083 13.636 10C13.636 7.9917 12.008 6.36365 9.99964 6.36365ZM9.99964 12.2727C8.74445 12.2727 7.72692 11.2552 7.72692 10C7.72692 8.74482 8.74445 7.72728 9.99964 7.72728C11.2548 7.72728 12.2724 8.74482 12.2724 10C12.2724 11.2552 11.2548 12.2727 9.99964 12.2727Z" fill="#543B3A"/>
<path fill-rule="evenodd" clip-rule="evenodd" d="M18.6364 7.27273H18.1818C18.058 6.88196 17.9061 6.50066 17.7273 6.13182L18.0409 5.81818C18.5726 5.28579 18.5726 4.4233 18.0409 3.89091L16.1136 1.96364C15.5812 1.4319 14.7188 1.4319 14.1864 1.96364L13.8636 2.27273C13.4948 2.09391 13.1135 1.942 12.7227 1.81818V1.36364C12.7227 0.610521 12.1122 0 11.3591 0H8.63182C7.8787 0 7.26818 0.610521 7.26818 1.36364V1.81818C6.87742 1.942 6.49612 2.09391 6.12727 2.27273L5.81364 1.95909C5.28124 1.42736 4.41876 1.42736 3.88636 1.95909L1.95909 3.88636C1.42736 4.41876 1.42736 5.28124 1.95909 5.81364L2.27273 6.12727C2.0939 6.49612 1.94199 6.87742 1.81818 7.26818H1.36364C0.610521 7.26818 0 7.8787 0 8.63182V11.3591C0 12.1122 0.610521 12.7227 1.36364 12.7227H1.81818C1.94199 13.1135 2.0939 13.4948 2.27273 13.8636L1.95909 14.1773C1.42736 14.7097 1.42736 15.5722 1.95909 16.1045L3.88636 18.0318C4.41876 18.5636 5.28124 18.5636 5.81364 18.0318L6.13636 17.7273C6.50522 17.9061 6.88651 18.058 7.27727 18.1818V18.6364C7.27727 19.3895 7.88779 20 8.64091 20H11.3682C12.1213 20 12.7318 19.3895 12.7318 18.6364V18.1818C13.1226 18.058 13.5039 17.9061 13.8727 17.7273L14.1864 18.0409C14.7188 18.5726 15.5812 18.5726 16.1136 18.0409L18.0409 16.1136C18.5726 15.5812 18.5726 14.7188 18.0409 14.1864L17.7273 13.8727C17.9061 13.5039 18.058 13.1226 18.1818 12.7318H18.6364C19.3895 12.7318 20 12.1213 20 11.3682V8.64091C20.0012 8.27846 19.8581 7.93045 19.6022 7.67373C19.3463 7.41702 18.9988 7.27273 18.6364 7.27273ZM18.6364 11.3636H17.1409C16.9566 12.3405 16.5729 13.269 16.0136 14.0909L17.0682 15.1455L15.1409 17.0727L14.0864 16.0182C13.2645 16.5775 12.336 16.9613 11.3591 17.1455V18.6364H8.63182V17.1409C7.65487 16.9567 6.72643 16.573 5.90455 16.0136L4.85 17.0682L2.92273 15.1409L3.97727 14.0864C3.41805 13.2644 3.03431 12.336 2.85 11.3591H1.36364V8.63182H2.85909C3.0434 7.65491 3.42714 6.72649 3.98636 5.90455L2.93182 4.85L4.85909 2.92273L5.91364 3.97727C6.73558 3.41805 7.664 3.03431 8.64091 2.85V1.36364H11.3682V2.85909C12.3451 3.0434 13.2735 3.42714 14.0955 3.98636L15.15 2.93182L17.0773 4.85909L16.0136 5.90909C16.5729 6.73104 16.9566 7.65945 17.1409 8.63636H18.6364V11.3636Z" fill="#543B3A"/>
</svg>
