<svg width="24" height="24" viewBox="0 0 24 24" fill="none" xmlns="http://www.w3.org/2000/svg">
<path d="M17.7442 8.69117C18.1854 8.69117 18.5383 8.33823 18.5383 7.89705V3.79412C18.5383 3.35294 18.1854 3 17.7442 3C17.303 3 16.9501 3.35294 16.9501 3.79412V7.89705C16.9501 8.32941 17.3118 8.69117 17.7442 8.69117Z" fill="#543B3A"/>
<path d="M12.0001 15.3088C11.5589 15.3088 11.206 15.6618 11.206 16.103V20.2059C11.206 20.6471 11.5589 21 12.0001 21C12.4413 21 12.7942 20.6471 12.7942 20.2059V16.103C12.7942 15.6706 12.4413 15.3088 12.0001 15.3088Z" fill="#543B3A"/>
<path d="M6.25597 8.69117C6.69715 8.69117 7.05009 8.33823 7.05009 7.89705V3.79412C7.05009 3.35294 6.69715 3 6.25597 3C5.81479 3 5.46185 3.35294 5.46185 3.79412V7.89705C5.46185 8.32941 5.81479 8.69117 6.25597 8.69117Z" fill="#543B3A"/>
<path d="M7.89702 10.3853H4.61467C4.1735 10.3853 3.82056 10.7382 3.82056 11.1794C3.82056 11.6205 4.1735 11.9735 4.61467 11.9735H5.46173V20.2058C5.46173 20.647 5.81467 20.9999 6.25585 20.9999C6.69702 20.9999 7.04996 20.647 7.04996 20.2058V11.9735H7.89702C8.3382 11.9735 8.69114 11.6205 8.69114 11.1794C8.69114 10.7382 8.32937 10.3853 7.89702 10.3853Z" fill="#543B3A"/>
<path d="M19.3853 10.3853H16.103C15.6618 10.3853 15.3088 10.7382 15.3088 11.1794C15.3088 11.6205 15.6618 11.9735 16.103 11.9735H16.95V20.2058C16.95 20.647 17.303 20.9999 17.7441 20.9999C18.1853 20.9999 18.5382 20.647 18.5382 20.2058V11.9735H19.3853C19.8265 11.9735 20.1794 11.6205 20.1794 11.1794C20.1794 10.7382 19.8265 10.3853 19.3853 10.3853Z" fill="#543B3A"/>
<path d="M13.6412 12.0265H12.7941V3.79412C12.7941 3.35294 12.4412 3 12 3C11.5588 3 11.2059 3.35294 11.2059 3.79412V12.0265H10.3588C9.91764 12.0265 9.5647 12.3794 9.5647 12.8206C9.5647 13.2618 9.91764 13.6147 10.3588 13.6147H13.6412C14.0823 13.6147 14.4353 13.2618 14.4353 12.8206C14.4353 12.3794 14.0823 12.0265 13.6412 12.0265Z" fill="#543B3A"/>
</svg>
