<svg width="51" height="25" viewBox="0 0 51 25" fill="none" xmlns="http://www.w3.org/2000/svg">
<path fill-rule="evenodd" clip-rule="evenodd" d="M46.0996 1.04744C46.0996 0.468699 45.6309 0 45.0522 0C44.4734 0 44.0047 0.468699 44.0047 1.04744V23.9526C44.0047 24.5313 44.4734 25 45.0522 25C45.6309 25 46.0996 24.5313 46.0996 23.9526V1.04744ZM49.0504 2.81219C49.6169 2.81219 50.0815 3.27682 50.0815 3.85556V21.1485C50.0815 21.7273 49.621 22.1919 49.0504 22.1919C48.4839 22.1919 48.0192 21.7273 48.0192 21.1485V3.85556C48.0192 3.27682 48.4798 2.81219 49.0504 2.81219ZM19.991 6.47212C19.991 5.89338 20.4597 5.42468 21.0385 5.42468C21.6172 5.42468 22.0859 5.89338 22.0859 6.47212V18.536C22.0859 19.1148 21.6172 19.5835 21.0385 19.5835C20.4597 19.5835 19.991 19.1148 19.991 18.536V6.47212ZM30.0905 6.47212C30.0905 5.89338 29.6218 5.42468 29.043 5.42468C28.4643 5.42468 27.9956 5.89338 27.9956 6.47212V18.536C27.9956 19.1148 28.4643 19.5835 29.043 19.5835C29.6218 19.5835 30.0905 19.1148 30.0905 18.536V6.47212ZM33.0453 7.7804C33.6241 7.7804 34.0928 8.2491 34.0928 8.82784V16.1722C34.0928 16.7509 33.6241 17.2196 33.0453 17.2196C32.4666 17.2196 31.9979 16.7509 31.9979 16.1722V8.82784C31.9979 8.2491 32.4666 7.7804 33.0453 7.7804ZM38.091 6.47212C38.091 5.89338 37.6223 5.42468 37.0435 5.42468C36.4648 5.42468 35.9961 5.89338 35.9961 6.47212V18.536C35.9961 19.1148 36.4648 19.5835 37.0435 19.5835C37.6223 19.5835 38.091 19.1148 38.091 18.536V6.47212ZM41.0499 2.81219C41.6164 2.81219 42.081 3.27682 42.081 3.85556V21.1485C42.081 21.7273 41.6205 22.1919 41.0499 22.1919C40.4834 22.1919 40.0187 21.7273 40.0187 21.1485V3.85556C40.0187 3.27682 40.4793 2.81219 41.0499 2.81219ZM0 3.85556C0 3.28089 0.464623 2.81219 1.03114 2.81219C1.60173 2.81219 2.06228 3.27682 2.06228 3.85556V21.1485C2.06228 21.7273 1.59765 22.1919 1.03114 22.1919C0.460548 22.1919 0 21.7232 0 21.1485V3.85556ZM5.03342 0C4.45468 0 3.98598 0.468699 3.98598 1.04744V23.9526C3.98598 24.5313 4.45468 25 5.03342 25C5.61216 25 6.08086 24.5313 6.08086 23.9526V1.04744C6.08086 0.468699 5.61216 0 5.03342 0ZM15.9888 8.82784C15.9888 8.2491 16.4575 7.7804 17.0362 7.7804C17.6149 7.7804 18.0836 8.2491 18.0836 8.82784V16.1722C18.0836 16.7509 17.6149 17.2196 17.0362 17.2196C16.4575 17.2196 15.9888 16.7509 15.9888 16.1722V8.82784ZM13.038 5.42468C12.4592 5.42468 11.9905 5.89338 11.9905 6.47212V18.536C11.9905 19.1148 12.4592 19.5835 13.038 19.5835C13.6167 19.5835 14.0854 19.1148 14.0854 18.536V6.47212C14.0854 5.89338 13.6167 5.42468 13.038 5.42468ZM8.00049 3.85556C8.00049 3.27682 8.46511 2.81219 9.03163 2.81219C9.60222 2.81219 10.0628 3.27682 10.0628 3.85556V21.1485C10.0628 21.7273 9.59814 22.1919 9.03163 22.1919C8.46104 22.1919 8.00049 21.7273 8.00049 21.1485V3.85556ZM25.0367 2.81219C24.4702 2.81219 24.0055 3.27682 24.0055 3.85556V21.1485C24.0055 21.7273 24.4661 22.1919 25.0367 22.1919C25.6032 22.1919 26.0678 21.7273 26.0678 21.1485V3.85556C26.0678 3.27682 25.6073 2.81219 25.0367 2.81219Z" fill="white"/>
</svg>
