<svg width="22" height="22" viewBox="0 0 22 22" fill="none" xmlns="http://www.w3.org/2000/svg">
<g clip-path="url(#clip0_3642_13128)">
<path fill-rule="evenodd" clip-rule="evenodd" d="M4.14398 2.75475C5.06227 1.50599 7.28887 1.35809 8.14622 3.84693C8.2932 4.28867 8.44389 4.72918 8.59825 5.16839C8.69519 5.44472 8.80884 5.81847 8.94376 6.20789C9.89398 8.94762 11.4506 8.88412 13.1827 6.8064C14.0014 5.82474 14.3285 4.77583 15.6369 4.28298C17.2299 3.68296 18.861 4.71838 19.1138 6.25731C19.4433 8.26335 18.1713 8.703 16.8386 9.47296C16.4213 9.71406 15.9551 10.006 15.5407 10.328C14.9141 10.815 14.4057 11.3711 14.3632 11.9253C14.2514 13.3805 18.9477 14.3034 20.6469 15.2542C23.0134 16.3694 21.9657 19.3496 19.8791 19.3671C19.3059 19.372 18.7243 19.1273 18.1351 18.6528L14.0272 15.0179C13.7613 14.7785 13.403 14.7931 13.1821 14.9833C12.7795 15.3304 13.883 17.912 13.9681 18.2976C14.303 19.8142 12.2683 20.8194 11.6906 18.5067C11.2627 16.794 9.83365 14.7217 8.97371 16.7615L8.81606 17.2606C8.55163 18.098 8.37778 19.4794 7.3504 19.6549C6.47083 19.8051 5.62559 18.8628 5.95933 18.0027C6.3341 17.2033 7.201 15.995 6.8542 15.1214C6.77823 14.9299 6.6033 14.7452 6.44049 14.6233C5.74466 14.1026 4.99644 14.3632 4.22984 14.4132C3.71327 14.4468 3.31086 14.4087 2.99586 14.2863C2.00229 13.9005 1.7697 12.8546 2.15191 12.0845C2.83249 10.7138 4.14854 11.4695 5.32167 11.0071C7.98565 9.9576 5.93638 7.5251 4.92885 6.30101C4.0773 5.26653 3.15003 4.1062 4.14398 2.75475ZM16.2442 11.6554C16.9008 11.3732 17.5394 11.1457 18.1479 11.0078C18.7272 10.8766 19.4214 10.8083 19.9758 10.958C21.139 11.2722 21.3232 12.7454 20.3942 13.1933C20.085 13.3425 19.6887 13.3597 19.3056 13.1483C19.05 13.0071 18.7855 12.759 18.4779 12.5549C17.7511 12.0727 17.1099 11.772 16.2442 11.6554ZM10.585 6.10533C10.4448 5.14033 10.3706 4.21865 10.4038 3.36796C10.4354 2.5583 10.5905 1.61926 10.9837 0.941513C11.8084 -0.480452 13.8148 -0.203003 14.0771 1.17943C14.1644 1.63954 14.0473 2.16788 13.6333 2.598C13.357 2.88529 12.9366 3.1462 12.5592 3.47938C11.6671 4.26691 11.0442 5.00576 10.585 6.10533ZM4.75719 9.43755C4.20723 8.98084 3.6593 8.58205 3.11462 8.27753C2.59616 7.9877 1.94961 7.72564 1.37547 7.71236C0.170965 7.68438 -0.422648 9.04516 0.341465 9.73773C0.59584 9.96835 0.970957 10.0971 1.39832 10.0027C1.68359 9.93981 2.00754 9.77653 2.36005 9.66791C3.19377 9.41121 3.89391 9.30422 4.75719 9.43755ZM15.2029 20.0539C15.7263 20.0539 16.1505 20.4781 16.1505 21.0014C16.1505 21.5247 15.7263 21.949 15.2029 21.949C14.6796 21.949 14.2554 21.5247 14.2554 21.0014C14.2554 20.4781 14.6796 20.0539 15.2029 20.0539ZM10.4496 20.031C10.6695 20.031 10.848 20.2093 10.848 20.4293C10.848 20.6492 10.6695 20.8276 10.4496 20.8276C10.2296 20.8276 10.0513 20.6492 10.0513 20.4293C10.0513 20.377 10.0616 20.3252 10.0816 20.2768C10.1016 20.2285 10.131 20.1846 10.168 20.1476C10.205 20.1106 10.2489 20.0813 10.2972 20.0613C10.3455 20.0413 10.3973 20.031 10.4496 20.031ZM2.96032 16.4742C3.28023 16.4742 3.53963 16.7336 3.53963 17.0536C3.53963 17.3735 3.28023 17.6329 2.96032 17.6329C2.64034 17.6329 2.38093 17.3735 2.38093 17.0536C2.38093 16.7336 2.64034 16.4742 2.96032 16.4742Z" fill="white"/>
<path d="M11.2178 1.97454C10.9348 1.54605 11.8176 0.343058 12.4698 0.517082C11.9168 0.867578 11.4981 1.4306 11.2178 1.97454ZM2.65188 12.8867C2.56706 13.3393 3.7148 14.0262 4.19317 13.6556C3.61434 13.5583 3.07254 13.2388 2.65188 12.8867ZM0.471644 9.25327C0.243007 8.90707 0.956074 7.93529 1.48291 8.0758C1.01726 8.35106 0.679656 8.80601 0.471644 9.25327ZM20.5557 12.4382C20.7973 11.9351 20.2349 11.2053 19.5446 11.2607C20.0426 11.5029 20.3478 11.919 20.5557 12.4382ZM16.9619 8.14949C17.9503 8.26529 18.7919 6.68383 18.1969 5.92672C18.1451 6.97434 17.5542 7.55876 16.9619 8.14949ZM5.13066 5.25267C4.38348 5.27342 4.15888 3.25703 4.94585 2.90614C4.70965 3.65264 4.79305 4.52349 5.13066 5.25267Z" fill="#FF8787"/>
</g>
<defs>
<clipPath id="clip0_3642_13128">
<rect width="22" height="21.949" fill="white"/>
</clipPath>
</defs>
</svg>
