<svg width="10" height="10" viewBox="0 0 10 10" fill="none" xmlns="http://www.w3.org/2000/svg">
<path d="M4.995 0C2.235 0 0 2.24 0 5C0 7.76 2.235 10 4.995 10C7.76 10 10 7.76 10 5C10 2.24 7.76 0 4.995 0ZM6.61 7.695L5 6.725L3.39 7.695C3.2 7.81 2.965 7.64 3.015 7.425L3.44 5.595L2.025 4.37C1.86 4.225 1.95 3.95 2.17 3.93L4.04 3.77L4.77 2.045C4.855 1.84 5.145 1.84 5.23 2.045L5.96 3.765L7.83 3.925C8.05 3.945 8.14 4.22 7.97 4.365L6.555 5.59L6.98 7.425C7.03 7.64 6.8 7.81 6.61 7.695Z" fill="#503C3B"/>
</svg>
