<svg width="14" height="14" viewBox="0 0 14 14" fill="none" xmlns="http://www.w3.org/2000/svg">
<path d="M8.00936 2.04754L9.03602 4.10087C9.17602 4.38671 9.54936 4.66087 9.86436 4.71337L11.7252 5.02254C12.9152 5.22087 13.1952 6.08421 12.3377 6.93587L10.891 8.38254C10.646 8.62754 10.5119 9.10004 10.5877 9.43837L11.0019 11.2292C11.3285 12.6467 10.576 13.195 9.32186 12.4542L7.57769 11.4217C7.26269 11.235 6.74352 11.235 6.42269 11.4217L4.67852 12.4542C3.43019 13.195 2.67186 12.6409 2.99852 11.2292L3.41269 9.43837C3.48852 9.10004 3.35436 8.62754 3.10936 8.38254L1.66269 6.93587C0.811024 6.08421 1.08519 5.22087 2.27519 5.02254L4.13602 4.71337C4.44519 4.66087 4.81852 4.38671 4.95852 4.10087L5.98519 2.04754C6.54519 0.933372 7.45519 0.933372 8.00936 2.04754Z" fill="#503C3B" stroke="#503C3B" stroke-width="1.5" stroke-linecap="round" stroke-linejoin="round"/>
</svg>
