<svg width="14" height="14" viewBox="0 0 14 14" fill="none" xmlns="http://www.w3.org/2000/svg">
<g clip-path="url(#clip0_1193_5267)">
<mask id="mask0_1193_5267" style="mask-type:luminance" maskUnits="userSpaceOnUse" x="0" y="0" width="14" height="14">
<mask id="mask1_1193_5267" style="mask-type:luminance" maskUnits="userSpaceOnUse" x="0" y="0" width="14" height="14">
<path d="M7.30023 0.35005L9.06369 4.47713L13.5385 4.87761C13.6085 4.88384 13.6751 4.91045 13.7301 4.95416C13.7851 4.99786 13.826 5.05674 13.8479 5.12349C13.8697 5.19024 13.8715 5.26194 13.853 5.3297C13.8345 5.39746 13.7966 5.4583 13.7438 5.5047L10.3571 8.45838L11.3578 12.8334C11.3789 12.9262 11.3623 13.0236 11.3116 13.1042C11.2609 13.1848 11.1802 13.2419 11.0874 13.263C11.0405 13.2741 10.9918 13.2755 10.9443 13.267C10.8968 13.2585 10.8516 13.2404 10.8114 13.2137L6.9693 10.9196L3.11593 13.2238C3.03406 13.2723 2.93629 13.2865 2.844 13.2631C2.75172 13.2398 2.67243 13.1809 2.62347 13.0992C2.57582 13.0201 2.56093 12.9256 2.58196 12.8356L3.5826 8.46063L0.199267 5.5047C0.14619 5.45775 0.108195 5.39614 0.0900685 5.32764C0.0719421 5.25914 0.0744954 5.1868 0.0974067 5.11975C0.120318 5.05269 0.162562 4.99392 0.218818 4.95083C0.275073 4.90774 0.342822 4.88227 0.41353 4.87761L4.87154 4.47825L6.63837 0.347806C6.66576 0.282648 6.71177 0.227024 6.77064 0.18791C6.82951 0.148795 6.89862 0.12793 6.9693 0.12793C7.03998 0.12793 7.10909 0.148795 7.16796 0.18791C7.22683 0.227024 7.27284 0.282648 7.30023 0.347806V0.35005Z" fill="white"/>
</mask>
<g mask="url(#mask1_1193_5267)">
<path d="M13.8627 0.0539551H0.078125V13.3001H13.8627V0.0539551Z" fill="white"/>
</g>
</mask>
<g mask="url(#mask0_1193_5267)">
<mask id="mask2_1193_5267" style="mask-type:luminance" maskUnits="userSpaceOnUse" x="0" y="0" width="14" height="14">
<path d="M13.8627 0.107666H0.078125V13.273H13.8627V0.107666Z" fill="white"/>
</mask>
<g mask="url(#mask2_1193_5267)">
<rect width="14" height="13.3538" transform="matrix(1 0 0 -1 0 13.3538)" fill="#503C3B"/>
</g>
</g>
<path d="M7.30023 0.35005L9.06369 4.47713L13.5385 4.87761C13.6085 4.88384 13.6751 4.91045 13.7301 4.95416C13.7851 4.99786 13.826 5.05674 13.8479 5.12349C13.8697 5.19024 13.8715 5.26194 13.853 5.3297C13.8345 5.39746 13.7966 5.4583 13.7438 5.5047L13.1347 6.03306C11.4924 6.60069 9.33404 6.9462 6.96481 6.9462C4.59558 6.9462 2.44173 6.60069 0.79494 6.03306L0.199267 5.5047C0.14619 5.45775 0.108195 5.39614 0.0900685 5.32764C0.0719421 5.25914 0.0744954 5.1868 0.0974067 5.11975C0.120318 5.05269 0.162562 4.99392 0.218818 4.95083C0.275073 4.90774 0.342822 4.88227 0.41353 4.87761L4.87154 4.47825L6.63837 0.347806C6.66576 0.282648 6.71177 0.227024 6.77064 0.18791C6.82951 0.148795 6.89862 0.12793 6.9693 0.12793C7.03998 0.12793 7.10909 0.148795 7.16796 0.18791C7.22683 0.227024 7.27284 0.282648 7.30023 0.347806V0.35005Z" fill="#503C3B"/>
</g>
<defs>
<clipPath id="clip0_1193_5267">
<rect width="14" height="13.3538" fill="white"/>
</clipPath>
</defs>
</svg>
