<svg width="22" height="21" viewBox="0 0 22 21" fill="none" xmlns="http://www.w3.org/2000/svg">
<g clip-path="url(#clip0_2356_8719)">
<mask id="mask0_2356_8719" style="mask-type:luminance" maskUnits="userSpaceOnUse" x="0" y="0" width="22" height="21">
<mask id="mask1_2356_8719" style="mask-type:luminance" maskUnits="userSpaceOnUse" x="0" y="0" width="22" height="21">
<path d="M11.4701 0.552426L14.2413 7.0426L21.2732 7.67239C21.3831 7.68218 21.4878 7.72403 21.5742 7.79276C21.6606 7.86149 21.7249 7.95407 21.7593 8.05905C21.7936 8.16402 21.7964 8.27677 21.7674 8.38333C21.7383 8.48988 21.6786 8.58557 21.5958 8.65853L16.2738 13.3034L17.8462 20.1835C17.8794 20.3294 17.8533 20.4826 17.7736 20.6093C17.694 20.7361 17.5673 20.8259 17.4214 20.8591C17.3477 20.8766 17.2711 20.8787 17.1965 20.8654C17.1219 20.852 17.0509 20.8235 16.9877 20.7815L10.9501 17.1739L4.89479 20.7974C4.76613 20.8737 4.61249 20.896 4.46747 20.8593C4.32246 20.8226 4.19785 20.7299 4.12092 20.6016C4.04604 20.4772 4.02264 20.3284 4.05569 20.187L5.62813 13.307L0.31146 8.65853C0.228053 8.5847 0.168346 8.48782 0.139862 8.38009C0.111378 8.27236 0.11539 8.15861 0.151394 8.05316C0.187397 7.94771 0.253781 7.85528 0.342182 7.78752C0.430583 7.71977 0.537046 7.6797 0.648159 7.67239L7.65361 7.04436L10.43 0.548898C10.4731 0.446432 10.5454 0.358959 10.6379 0.297448C10.7304 0.235937 10.839 0.203125 10.9501 0.203125C11.0612 0.203125 11.1697 0.235937 11.2623 0.297448C11.3548 0.358959 11.4271 0.446432 11.4701 0.548898V0.552426Z" fill="white"/>
</mask>
<g mask="url(#mask1_2356_8719)">
<path d="M21.7826 0.0859375H0.121094V20.9166H21.7826V0.0859375Z" fill="white"/>
</g>
</mask>
<g mask="url(#mask0_2356_8719)">
<mask id="mask2_2356_8719" style="mask-type:luminance" maskUnits="userSpaceOnUse" x="0" y="0" width="22" height="21">
<path d="M21.7826 0.171875H0.121094V20.8755H21.7826V0.171875Z" fill="white"/>
</mask>
<g mask="url(#mask2_2356_8719)">
<rect width="22" height="21" transform="matrix(1 0 0 -1 0 21)" fill="#503C3B"/>
</g>
</g>
<path d="M11.4701 0.552426L14.2413 7.0426L21.2732 7.67239C21.3831 7.68218 21.4878 7.72403 21.5742 7.79276C21.6606 7.86149 21.7249 7.95407 21.7593 8.05905C21.7936 8.16402 21.7964 8.27677 21.7674 8.38333C21.7383 8.48988 21.6786 8.58557 21.5958 8.65853L20.6385 9.48942C18.0578 10.3821 14.6661 10.9254 10.943 10.9254C7.21995 10.9254 3.83534 10.3821 1.24752 9.48942L0.31146 8.65853C0.228053 8.5847 0.168346 8.48782 0.139862 8.38009C0.111378 8.27236 0.11539 8.15861 0.151394 8.05316C0.187397 7.94771 0.253781 7.85528 0.342182 7.78752C0.430583 7.71977 0.537046 7.6797 0.648159 7.67239L7.65361 7.04436L10.43 0.548898C10.4731 0.446432 10.5454 0.358959 10.6379 0.297448C10.7304 0.235937 10.839 0.203125 10.9501 0.203125C11.0612 0.203125 11.1697 0.235937 11.2623 0.297448C11.3548 0.358959 11.4271 0.446432 11.4701 0.548898V0.552426Z" fill="#503C3B"/>
</g>
<defs>
<clipPath id="clip0_2356_8719">
<rect width="22" height="21" fill="white"/>
</clipPath>
</defs>
</svg>
