<svg width="110" height="117" viewBox="0 0 110 117" fill="none" xmlns="http://www.w3.org/2000/svg">
<g clip-path="url(#clip0_1232_16981)">
<path d="M63.25 81.1239L33.7212 65.6486L26.4251 74.6266C37.1923 80.3183 46.9189 85.5421 57.6907 91.2384L63.25 81.1239ZM43.7033 47.5556C44.8079 47.5556 45.7048 48.4502 45.7048 49.5548C45.7048 50.6593 44.8079 51.5562 43.7033 51.5562C42.5988 51.5562 41.7042 50.6593 41.7042 49.5548C41.7042 48.4502 42.5988 47.5556 43.7033 47.5556ZM86.0419 49.6392C87.1465 49.6392 88.0411 50.5338 88.0411 51.6384C88.0411 52.743 87.1465 53.6398 86.0419 53.6398C84.9351 53.6398 84.0405 52.743 84.0405 51.6384C84.0405 50.5338 84.9351 49.6392 86.0419 49.6392ZM103.078 15.7423C104.306 15.7423 105.301 16.7373 105.301 17.9674C105.301 19.1952 104.306 20.1903 103.078 20.1903C101.85 20.1903 100.855 19.1952 100.855 17.9674C100.855 16.7373 101.85 15.7423 103.078 15.7423ZM40.5448 17.9971C41.994 17.9971 43.167 19.1724 43.167 20.6216C43.167 22.0707 41.994 23.2438 40.5448 23.2438C39.0956 23.2438 37.9203 22.0707 37.9203 20.6216C37.9203 19.1724 39.0956 17.9971 40.5448 17.9971ZM32.6828 38.516C34.3191 38.516 35.645 39.8419 35.645 41.4782C35.645 43.1122 34.3191 44.4382 32.6828 44.4382C31.0488 44.4382 29.7228 43.1122 29.7228 41.4782C29.7228 39.8419 31.0488 38.516 32.6828 38.516ZM52.9141 0L56.7983 6.65705L64.3044 6.02718L59.5118 11.6824L62.3737 18.7L55.4975 15.8519L49.856 20.6718L50.3604 13.2046L43.8288 9.22448L51.4033 7.54025L52.9141 0ZM79.8596 36.8089C80.9641 36.8089 81.861 37.7035 81.861 38.8104C81.861 39.9149 80.9641 40.8095 79.8596 40.8095C78.755 40.8095 77.8581 39.9149 77.8581 38.8104C77.8581 37.7035 78.755 36.8089 79.8596 36.8089ZM98.7376 45.5062L98.4523 45.4263C99.1095 43.094 98.8129 40.8118 97.56 38.5799C96.3093 36.3456 94.5179 34.901 92.1878 34.2438L92.2676 33.9585C94.6 34.6158 96.8799 34.3191 99.1141 33.0616C101.348 31.8064 102.795 30.0172 103.448 27.694L103.735 27.7739C103.078 30.1062 103.375 32.3861 104.626 34.6203C105.878 36.8546 107.67 38.2992 110 38.9564L109.92 39.2417C107.588 38.5844 105.306 38.8811 103.074 40.1317C100.839 41.3847 99.3948 43.1761 98.7376 45.5062ZM84.7137 23.0544H84.344C84.344 20.0442 83.2189 17.4106 80.9664 15.1604C78.7162 12.9079 76.0826 11.7828 73.0701 11.7828V11.4131C76.0826 11.4131 78.7162 10.288 80.9664 8.03091C83.2189 5.77386 84.344 3.14253 84.344 0.139212H84.7137C84.7137 3.15166 85.8388 5.78299 88.0913 8.03548C90.3438 10.288 92.9751 11.4131 95.9876 11.4131V11.7828C92.9751 11.7828 90.3438 12.9079 88.0913 15.1604C85.8388 17.4106 84.7137 20.0442 84.7137 23.0544ZM15.7172 29.2253L15.3886 29.3965C13.9919 26.7286 11.7737 24.9189 8.73382 23.9695C5.69398 23.0201 2.84129 23.2438 0.171162 24.6405L0 24.3141C2.67012 22.9151 4.47759 20.6969 5.42469 17.6548C6.37178 14.6104 6.14813 11.7554 4.75602 9.09668L5.08237 8.92552C6.48133 11.5934 8.69958 13.4031 11.7394 14.3525C14.777 15.3019 17.632 15.0782 20.2998 13.6815L20.471 14.0079C17.8031 15.4046 15.9934 17.6251 15.044 20.6627C14.0946 23.7025 14.3183 26.5575 15.7172 29.2253ZM66.5021 65.6394C66.379 65.8956 66.185 66.1111 65.9431 66.2604C65.7012 66.4097 65.4215 66.4864 65.1374 66.4815C64.8909 66.6527 64.5896 66.7486 64.2678 66.7417C64.1583 66.7394 64.0533 66.7257 63.9506 66.7006C63.5831 66.8254 63.1813 66.8011 62.8314 66.633C62.4816 66.4649 62.2115 66.1664 62.0793 65.8015C58.6766 56.3898 53.3591 48.3361 46.7774 41.7019C39.6434 34.5062 31.0191 28.9674 21.7353 25.1494C20.9776 24.839 20.617 23.9718 20.9274 23.2141C21.24 22.4564 22.1073 22.0959 22.8627 22.4062C32.5025 26.3703 41.4622 32.1282 48.8815 39.6091C53.6535 44.4199 57.7888 49.945 61.0614 56.1616L55.8193 22.4701C55.6938 21.66 56.2483 20.9023 57.0562 20.779C57.4445 20.719 57.8407 20.8156 58.1578 21.0475C58.4748 21.2795 58.6869 21.6278 58.7473 22.016L63.921 55.2488C64.5622 52.0195 65.4637 48.8382 66.5819 45.7322C69.0878 38.7693 72.6707 32.1807 76.8288 26.2151C76.9399 26.0546 77.0816 25.9176 77.2457 25.812C77.4099 25.7063 77.5933 25.6342 77.7854 25.5996C77.9775 25.565 78.1746 25.5688 78.3652 25.6106C78.5559 25.6524 78.7364 25.7314 78.8965 25.8432C79.572 26.311 79.7363 27.2376 79.2685 27.9108C75.2382 33.6961 71.7761 40.0541 69.373 46.7317C67.7732 51.1751 66.6367 55.7691 66.1073 60.4361C68.4419 56.9353 71.9336 52.8 76.3793 49.023C80.9846 45.1091 86.6376 41.5535 93.1166 39.4517C93.8971 39.1983 94.7346 39.6251 94.988 40.4056C95.0482 40.5911 95.0714 40.7867 95.0561 40.9811C95.0407 41.1756 94.9873 41.3651 94.8987 41.5389C94.8101 41.7127 94.6881 41.8673 94.5398 41.994C94.3914 42.1206 94.2196 42.2168 94.034 42.277C87.9612 44.2488 82.6438 47.5967 78.2985 51.2892C72.3649 56.3305 68.2639 61.972 66.5021 65.6394ZM42.8977 59.6328L35.8755 63.0264L64.8566 78.2803L93.8423 62.9967L87.4751 59.8062C88.4176 59.1124 89.3716 58.4438 90.3255 57.7979L95.6749 60.0983L104.285 51.9488L101.469 50.4562C102.195 49.9336 102.88 49.4178 103.51 48.8998L108.019 51.2824C108.12 51.3371 108.213 51.4056 108.298 51.4923C108.403 51.5989 108.486 51.7251 108.542 51.8639C108.598 52.0026 108.627 52.1511 108.625 52.3008C108.624 52.4505 108.593 52.5985 108.535 52.7362C108.476 52.874 108.391 52.9988 108.284 53.1035L98.0575 63.1496L107.962 75.0031C108.155 75.2356 108.248 75.5351 108.221 75.8361C108.194 76.1371 108.049 76.4152 107.818 76.6098C107.745 76.6691 107.668 76.7216 107.585 76.7604L98.6942 81.4616V99.0822C98.6939 99.3079 98.6267 99.5285 98.5012 99.7161C98.3757 99.9037 98.1975 100.05 97.989 100.137L65.8425 116.454C65.7361 116.572 65.6059 116.667 65.4604 116.732C65.315 116.797 65.1574 116.831 64.9981 116.83C64.5508 116.83 64.1651 116.575 63.978 116.201L31.7699 100.1C31.5807 100.006 31.4215 99.8604 31.3103 99.6806C31.199 99.5008 31.1401 99.2936 31.14 99.0822L31.1355 81.5483L22.0776 76.7604C21.9954 76.7216 21.9201 76.6691 21.8471 76.6098C21.7321 76.5137 21.6372 76.396 21.5678 76.2632C21.4983 76.1305 21.4557 75.9854 21.4424 75.8362C21.429 75.687 21.4452 75.5367 21.49 75.3937C21.5347 75.2508 21.6072 75.118 21.7033 75.0031L31.3523 63.4577L20.1583 52.8502C19.7429 52.3778 19.7932 51.6589 20.2656 51.2436C20.3363 51.1842 20.4071 51.1317 20.4846 51.0929L25.7062 48.1376C26.4023 48.8017 27.0687 49.3676 27.6529 49.8127L24.0585 51.821L33.5044 60.4863L41.8502 56.4469C42.1925 57.5241 42.544 58.599 42.8977 59.6328ZM96.0286 65.9156L67.1593 80.3799L73.522 91.3456L103.939 75.5052L96.0286 65.9156Z" fill="white"/>
</g>
<defs>
<clipPath id="clip0_1232_16981">
<rect width="110" height="116.83" fill="white"/>
</clipPath>
</defs>
</svg>
