<svg width="34" height="35" viewBox="0 0 34 35" fill="none" xmlns="http://www.w3.org/2000/svg">
<rect y="0.5" width="34" height="34" rx="17" fill="#503C3B"/>
<g clip-path="url(#clip0_1900_8098)">
<path d="M21.24 13.26C20.07 12.09 18.54 11.5 17 11.5V17.5L12.76 21.74C15.1 24.08 18.9 24.08 21.25 21.74C23.59 19.4 23.59 15.6 21.24 13.26ZM17 7.5C11.48 7.5 7 11.98 7 17.5C7 23.02 11.48 27.5 17 27.5C22.52 27.5 27 23.02 27 17.5C27 11.98 22.52 7.5 17 7.5ZM17 25.5C12.58 25.5 9 21.92 9 17.5C9 13.08 12.58 9.5 17 9.5C21.42 9.5 25 13.08 25 17.5C25 21.92 21.42 25.5 17 25.5Z" fill="white"/>
</g>
<defs>
<clipPath id="clip0_1900_8098">
<rect width="24" height="24" fill="white" transform="translate(5 5.5)"/>
</clipPath>
</defs>
</svg>
