<svg width="20" height="22" viewBox="0 0 20 22" fill="none" xmlns="http://www.w3.org/2000/svg">
<path fill-rule="evenodd" clip-rule="evenodd" d="M19.2308 3.19221H14.8308C14.0716 1.27116 12.1479 0 10 0C7.85208 0 5.92842 1.27116 5.16923 3.19221H0.769231C0.344396 3.19221 0 3.52148 0 3.92766C0 4.33384 0.344396 4.66311 0.769231 4.66311H1.28205V19.8624C1.28205 20.6748 1.97084 21.3333 2.82051 21.3333H16.6667C17.5163 21.3333 18.2051 20.6748 18.2051 19.8624V4.66311H19.2308C19.6556 4.66311 20 4.33384 20 3.92766C20 3.52148 19.6556 3.19221 19.2308 3.19221ZM10 1.47616C11.4 1.47616 12.6154 1.96646 13.2154 3.19221H6.78462C7.38462 1.96155 8.6 1.47616 10 1.47616ZM16.6667 19.8624H14.6154V11.5273C14.6154 11.1211 14.271 10.7919 13.8462 10.7919C13.4213 10.7919 13.0769 11.1211 13.0769 11.5273V19.8624H10.5128V8.58552C10.5128 8.17934 10.1684 7.85007 9.74359 7.85007C9.31876 7.85007 8.97436 8.17934 8.97436 8.58552V19.8624H6.41026V11.5273C6.41026 11.1211 6.06586 10.7919 5.64103 10.7919C5.21619 10.7919 4.87179 11.1211 4.87179 11.5273V19.8624H2.82051V4.66311H16.6667V19.8624Z" fill="white"/>
</svg>
