<svg width="22" height="21" viewBox="0 0 22 21" fill="none" xmlns="http://www.w3.org/2000/svg">
<path d="M10.9955 12.3205H11.0045" stroke="#543B3A" stroke-width="1.7" stroke-linecap="round" stroke-linejoin="round"/>
<path d="M10.9998 9.93048V9.72052C10.9998 9.04052 11.4198 8.6805 11.8398 8.3905C12.2498 8.1105 12.6598 7.75052 12.6598 7.09052C12.6598 6.17052 11.9198 5.43048 10.9998 5.43048C10.0798 5.43048 9.33984 6.17052 9.33984 7.09052" stroke="#543B3A" stroke-width="1.7" stroke-linecap="round" stroke-linejoin="round"/>
<path d="M16 17.0005H12L7.54999 19.9604C6.88999 20.4004 6 19.9305 6 19.1305V17.0005C3 17.0005 1 15.0005 1 12.0005V6.00043C1 3.00043 3 1.00043 6 1.00043H16C19 1.00043 21 3.00043 21 6.00043V12.0005C21 15.0005 19 17.0005 16 17.0005Z" stroke="#543B3A" stroke-width="1.7" stroke-miterlimit="10" stroke-linecap="round" stroke-linejoin="round"/>
</svg>
