<svg width="24" height="18" viewBox="0 0 24 18" fill="none" xmlns="http://www.w3.org/2000/svg">
<path fill-rule="evenodd" clip-rule="evenodd" d="M3.82552 15.5172H19.6589C20.5333 15.5172 21.2422 14.6836 21.2422 13.6552V1.86207C21.2422 0.833677 20.5333 0 19.6589 0H3.82552C2.95107 0 2.24219 0.833677 2.24219 1.86207V13.6552C2.24219 14.6836 2.95107 15.5172 3.82552 15.5172ZM3.82552 1.86207H19.6589V13.6552H3.82552V1.86207Z" fill="#543B3A"/>
<rect y="16.1379" width="24" height="1.86207" fill="#543B3A"/>
<path d="M11.1 9.91V9.53C11.1 9.37 11.11 9.22667 11.13 9.1C11.1567 8.97333 11.1933 8.85333 11.24 8.74C11.2933 8.62667 11.36 8.51667 11.44 8.41C11.5267 8.30333 11.6333 8.19 11.76 8.07L12.21 7.64C12.3367 7.52667 12.4433 7.4 12.53 7.26C12.6233 7.12 12.67 6.95 12.67 6.75C12.67 6.49 12.5867 6.27333 12.42 6.1C12.26 5.92 12.03 5.83 11.73 5.83C11.5767 5.83 11.4367 5.86 11.31 5.92C11.19 5.97333 11.0833 6.05 10.99 6.15C10.9033 6.24333 10.8367 6.35333 10.79 6.48C10.7433 6.60667 10.7167 6.73667 10.71 6.87L9.48 6.76C9.52 6.44 9.60333 6.15667 9.73 5.91C9.86333 5.65667 10.0333 5.44333 10.24 5.27C10.4467 5.09667 10.6833 4.96667 10.95 4.88C11.2167 4.78667 11.5033 4.74 11.81 4.74C12.0967 4.74 12.3667 4.78333 12.62 4.87C12.88 4.95 13.1067 5.07333 13.3 5.24C13.5 5.4 13.6567 5.6 13.77 5.84C13.8833 6.08 13.94 6.35667 13.94 6.67C13.94 6.88333 13.9167 7.07 13.87 7.23C13.8233 7.39 13.7567 7.53667 13.67 7.67C13.5833 7.80333 13.4767 7.93333 13.35 8.06C13.23 8.18 13.0933 8.30667 12.94 8.44C12.8067 8.55333 12.6967 8.65333 12.61 8.74C12.53 8.82667 12.4633 8.91333 12.41 9C12.3633 9.08667 12.33 9.18 12.31 9.28C12.29 9.38 12.28 9.50333 12.28 9.65V9.91H11.1ZM10.9 11.3C10.9 11.0867 10.9767 10.9033 11.13 10.75C11.29 10.5967 11.48 10.52 11.7 10.52C11.9133 10.52 12.1 10.5933 12.26 10.74C12.42 10.8867 12.5 11.0667 12.5 11.28C12.5 11.4933 12.42 11.6767 12.26 11.83C12.1067 11.9833 11.92 12.06 11.7 12.06C11.5933 12.06 11.49 12.04 11.39 12C11.2967 11.96 11.2133 11.9067 11.14 11.84C11.0667 11.7733 11.0067 11.6933 10.96 11.6C10.92 11.5067 10.9 11.4067 10.9 11.3Z" fill="#543B3A"/>
</svg>
