<svg width="20" height="17" viewBox="0 0 20 17" fill="none" xmlns="http://www.w3.org/2000/svg">
<path d="M4.90789 8.76087C3.9978 8.43282 3.14511 7.96333 2.38124 7.36971C1.9759 7.01205 1.64605 6.57706 1.41104 6.09025C1.17602 5.60343 1.04058 5.0746 1.01264 4.53475C1.01264 4.0986 0.86224 1.90282 1.59918 1.95545C1.7195 1.95545 1.82477 2.06825 1.89997 2.15849C2.09107 2.38738 2.2944 2.60577 2.50908 2.81271V2.81271C3.3926 3.66688 4.44129 4.33157 5.59084 4.76605C6.74038 5.20052 7.96656 5.39562 9.19418 5.33936C9.07697 4.65198 9.1556 3.94549 9.42108 3.3007C9.68655 2.6559 10.1281 2.09885 10.6954 1.69325C11.2626 1.28766 11.9325 1.0499 12.6285 1.00717C13.3245 0.964436 14.0184 1.11846 14.631 1.45163C14.9964 1.70579 15.3966 1.90588 15.8191 2.04569C16.1255 2.09462 16.4377 2.09462 16.7441 2.04569L19 1.79002C18.2325 2.68719 17.5854 3.68067 17.0749 4.7453C16.7216 5.75492 16.487 6.80219 16.3756 7.86602C16.1455 9.04951 15.6843 10.176 15.0185 11.1812C14.3527 12.1863 13.4953 13.0504 12.4954 13.7239C12.4954 13.7239 12.4954 13.7239 12.4954 13.7239C12.2119 13.915 11.9154 14.0858 11.608 14.2353V14.2353C11.1944 14.4673 10.7617 14.6635 10.3146 14.8218L9.90104 14.9647L9.44233 15.0925C7.30641 15.5721 5.08699 15.536 2.96778 14.9873L2.08797 14.7842L1.05776 14.4985C2.32177 14.4254 3.54955 14.0488 4.63718 13.4006C4.85525 13.2728 5.08085 13.0923 5.05077 12.8516C5.03539 12.7653 5.002 12.6832 4.95276 12.6106C4.90353 12.5381 4.83955 12.4767 4.76502 12.4305C3.98113 11.7429 3.3044 10.9419 2.75723 10.0543" stroke="#503C3B" stroke-width="1.7" stroke-linecap="round" stroke-linejoin="round"/>
</svg>
