<svg width="60" height="60" viewBox="0 0 60 60" fill="none" xmlns="http://www.w3.org/2000/svg">
<path fill-rule="evenodd" clip-rule="evenodd" d="M30 0C46.5686 0 60 13.4314 60 30C60 46.5686 46.5686 60 30 60C13.4314 60 0 46.5686 0 30C0 13.4314 13.4314 0 30 0ZM46.2887 19.897C45.091 20.4327 43.8008 20.7885 42.4535 20.9473C43.8339 20.1205 44.8894 18.8107 45.3934 17.251C44.1032 18.014 42.6695 18.5736 41.1501 18.873C39.9284 17.575 38.1934 16.768 36.2712 16.768C32.5805 16.768 29.5925 19.7578 29.5925 23.4462C29.5925 23.967 29.6501 24.4762 29.7633 24.9672C24.21 24.6857 19.2866 22.0273 15.991 17.9821C15.3997 19.002 15.087 20.1618 15.087 21.3411V21.3418C15.087 23.6577 16.2628 25.7061 18.057 26.9006C16.9621 26.8682 15.9323 26.5629 15.028 26.0679V26.1514C15.028 29.3902 17.33 32.0927 20.3889 32.7034C19.8286 32.8555 19.2369 32.9398 18.6274 32.9398C18.1958 32.9398 17.7798 32.8953 17.3662 32.8201C18.2205 35.4725 20.6868 37.4061 23.6073 37.4624C21.3174 39.2565 18.4413 40.3248 15.3057 40.3248C14.7647 40.3248 14.2374 40.2917 13.7109 40.2287C16.6748 42.1304 20.1859 43.2318 23.958 43.2318C36.2467 43.2318 42.9724 33.0479 42.9724 24.2181C42.9724 23.9247 42.9659 23.6404 42.9537 23.353C44.2589 22.4193 45.3905 21.241 46.2862 19.8997L46.2892 19.8966L46.2887 19.897Z" fill="#1DA1F2"/>
</svg>
