<svg width="21" height="22" viewBox="0 0 21 22" fill="none" xmlns="http://www.w3.org/2000/svg">
<path d="M1 21.0001C1 17.1301 4.85003 14.0001 9.59003 14.0001C10.63 14.0001 11.63 14.1501 12.56 14.4301" stroke="#543B3A" stroke-width="1.7" stroke-linecap="round" stroke-linejoin="round"/>
<path d="M16.7999 14.7402L13.2599 18.2802C13.1199 18.4202 12.9899 18.6802 12.9599 18.8702L12.7699 20.2201C12.6999 20.7101 13.0399 21.0501 13.5299 20.9801L14.8799 20.7901C15.0699 20.7601 15.3399 20.6302 15.4699 20.4902L19.0099 16.9502C19.6199 16.3402 19.9099 15.6301 19.0099 14.7301C18.1199 13.8401 17.4099 14.1302 16.7999 14.7402Z" stroke="#543B3A" stroke-width="1.7" stroke-miterlimit="10" stroke-linecap="round" stroke-linejoin="round"/>
<path d="M16.2899 15.2501C16.5899 16.3301 17.4299 17.1701 18.5099 17.4701" stroke="#543B3A" stroke-width="1.7" stroke-miterlimit="10" stroke-linecap="round" stroke-linejoin="round"/>
<path d="M9.58984 11.0001C12.3513 11.0001 14.5898 8.76156 14.5898 6.00014C14.5898 3.23871 12.3513 1.00014 9.58984 1.00014C6.82842 1.00014 4.58984 3.23871 4.58984 6.00014C4.58984 8.76156 6.82842 11.0001 9.58984 11.0001Z" stroke="#543B3A" stroke-width="1.7" stroke-linecap="round" stroke-linejoin="round"/>
</svg>
