<svg width="24" height="22" viewBox="0 0 24 22" fill="none" xmlns="http://www.w3.org/2000/svg">
<path d="M22 7.58087V3.87754C22 2.42004 21.36 1.83337 19.77 1.83337H15.73C14.14 1.83337 13.5 2.42004 13.5 3.87754V7.58087C13.5 9.03837 14.14 9.62504 15.73 9.62504H19.77C21.36 9.62504 22 9.03837 22 7.58087Z" stroke="#503C3B" stroke-width="1.5" stroke-linecap="round" stroke-linejoin="round"/>
<path d="M10.5 7.81004V3.64837C10.5 2.35587 9.86 1.83337 8.27 1.83337H4.23C2.64 1.83337 2 2.35587 2 3.64837V7.80087C2 9.10254 2.64 9.61587 4.23 9.61587H8.27C9.86 9.62504 10.5 9.10254 10.5 7.81004Z" stroke="#503C3B" stroke-width="1.5" stroke-linecap="round" stroke-linejoin="round"/>
<path d="M10.5 18.1225V14.4192C10.5 12.9617 9.86 12.375 8.27 12.375H4.23C2.64 12.375 2 12.9617 2 14.4192V18.1225C2 19.58 2.64 20.1667 4.23 20.1667H8.27C9.86 20.1667 10.5 19.58 10.5 18.1225Z" stroke="#503C3B" stroke-width="1.5" stroke-linecap="round" stroke-linejoin="round"/>
<path d="M15 14.2084H21" stroke="#503C3B" stroke-width="1.5" stroke-linecap="round"/>
<path d="M15 17.875H21" stroke="#503C3B" stroke-width="1.5" stroke-linecap="round"/>
</svg>
