<svg width="14" height="14" viewBox="0 0 14 14" fill="none" xmlns="http://www.w3.org/2000/svg">
<path d="M8.20927 0.895426C8.32283 0.695024 8.20927 0.427822 7.97547 0.401102C6.2253 0.15394 4.43504 0.588143 3.00551 1.64359C2.87859 1.74379 2.83851 1.93083 2.92535 2.07779L4.93604 5.56478C5.06297 5.78522 5.38361 5.78522 5.51721 5.56478L8.20927 0.895426ZM13.2126 4.54941C12.558 2.89944 11.2621 1.57011 9.6388 0.875385C9.48516 0.808585 9.3048 0.875385 9.21796 1.02235L7.20726 4.50265C7.08034 4.71642 7.24066 4.99698 7.50118 4.99698H12.8987C13.1325 4.99698 13.2995 4.76318 13.2126 4.54941ZM13.2594 5.66498H9.11776C8.86392 5.66498 8.69691 5.94554 8.83052 6.16599L11.6762 11.1025C11.7898 11.3029 12.077 11.3363 12.224 11.156C13.3863 9.69973 13.8806 7.79592 13.5934 5.95222C13.5734 5.78522 13.4264 5.66498 13.2594 5.66498ZM1.77638 2.85268C0.62073 4.31561 0.119727 6.20607 0.406969 8.05644C0.427009 8.21676 0.57397 8.337 0.740972 8.337H4.8826C5.13645 8.337 5.30345 8.05644 5.16985 7.836L2.32414 2.90612C2.2039 2.70572 1.91666 2.67232 1.77638 2.85268ZM0.787732 9.45257C1.44238 11.1025 2.73831 12.4319 4.36156 13.1266C4.5152 13.1934 4.69556 13.1266 4.7824 12.9796L6.7931 9.49933C6.92002 9.27889 6.7597 8.99833 6.50586 8.99833H1.10169C0.867893 9.00501 0.700891 9.23881 0.787732 9.45257ZM6.01821 13.6076C7.76839 13.8547 9.55864 13.4205 10.9882 12.3651C11.1218 12.2649 11.1619 12.0712 11.075 11.9242L9.06432 8.4372C8.9374 8.21676 8.61675 8.21676 8.48315 8.4372L5.78441 13.1066C5.67085 13.307 5.79109 13.5742 6.01821 13.6076Z" fill="#543B3A"/>
</svg>
