<svg width="180" height="30" viewBox="0 0 180 30" fill="none" xmlns="http://www.w3.org/2000/svg">
<path d="M21.54 2.17V3.19C19.5 3.4 18.96 3.76 17.76 6.58C16.83 8.77 13.83 16.03 11.46 22.33H10.17C8.07 16.75 5.34 9.76 3.81 6.04C2.88 3.73 2.37 3.37 0.51 3.19V2.17H9V3.19C6.78 3.49 6.75 3.79 7.26 5.11C8.1 7.48 10.47 13.54 12 17.38H12.06C13.74 13.06 15.48 8.56 16.35 5.8C16.98 3.85 16.92 3.49 14.4 3.19V2.17H21.54ZM31.1637 18.43L31.6737 19.15C29.7837 21.79 27.5037 22.36 26.3637 22.36C22.4337 22.36 20.1537 19.36 20.1537 15.85C20.1537 13.66 21.0237 11.77 22.3137 10.45C23.6337 9.07 25.3437 8.23 26.9637 8.23H26.9937C29.6937 8.23 31.8237 10.57 31.7937 13.03C31.7937 13.63 31.6137 13.96 31.0137 14.08C30.4737 14.14 26.6637 14.44 23.3937 14.56C23.4837 18.19 25.5237 19.87 27.7137 19.87C28.9137 19.87 30.0837 19.42 31.1637 18.43ZM26.3037 9.43H26.2437C25.0137 9.43 23.8437 10.72 23.5137 13.21C24.9837 13.21 26.3637 13.18 27.8337 13.12C28.3437 13.12 28.5237 13 28.5237 12.52C28.5237 10.96 27.6837 9.43 26.3037 9.43ZM40.3873 22H32.8573V21.1C34.7473 20.83 34.9573 20.68 34.9573 18.7V4.54C34.9573 2.59 34.7773 2.53 32.9773 2.35V1.51C34.6873 1.33 36.8173 0.879998 38.2573 0.429999V18.7C38.2573 20.74 38.4673 20.89 40.3873 21.1V22ZM49.0041 22H41.4741V21.1C43.3641 20.83 43.5741 20.68 43.5741 18.7V4.54C43.5741 2.59 43.3941 2.53 41.5941 2.35V1.51C43.3041 1.33 45.4341 0.879998 46.8741 0.429999V18.7C46.8741 20.74 47.0841 20.89 49.0041 21.1V22ZM83.1698 22H74.4998V21.04C76.8698 20.77 77.0198 20.56 76.9898 17.56L76.8998 5.59H76.7798L69.6398 21.82H68.8898L62.3198 5.92H62.2298L61.8098 14.2C61.6898 16.69 61.6898 18.1 61.7798 19.18C61.8698 20.56 62.5298 20.8 64.5698 21.01V22H57.2198V21.01C58.9898 20.83 59.5898 20.35 59.8298 19.21C59.9798 18.19 60.1898 16.72 60.4298 13.51L60.8798 7.42C61.1498 3.73 60.9398 3.43 58.2398 3.19V2.17H64.0598L70.4798 16.33L77.0198 2.17H82.8098V3.19C80.2598 3.43 80.1098 3.58 80.1698 6.37L80.4698 17.56C80.5298 20.56 80.6498 20.77 83.1698 21.04V22ZM97.7588 20.68L94.6988 22.36C94.0088 22.36 93.3788 22.09 92.9888 21.76C92.5688 21.37 92.3588 20.92 92.2388 20.5C91.0388 21.34 89.5988 22.36 88.8488 22.36C86.4188 22.36 84.9188 20.41 84.9188 18.52C84.9188 16.99 85.6688 16.15 87.3188 15.58C89.1788 14.95 91.4288 14.14 92.1188 13.57V12.88C92.1188 10.81 91.2788 9.67 89.9588 9.67C89.4788 9.67 89.1188 9.85 88.7888 10.21C88.4288 10.63 88.1588 11.35 87.8888 12.28C87.7088 13 87.3188 13.21 86.7488 13.21C86.0588 13.21 85.1288 12.52 85.1288 11.74C85.1288 11.26 85.4888 10.9 86.1188 10.39C87.1688 9.67 89.2988 8.56 91.0388 8.23C92.1188 8.23 93.0488 8.47 93.7988 9.1C95.0588 10.03 95.3588 11.35 95.3588 13.03V18.25C95.3588 19.66 95.8388 20.08 96.3488 20.08C96.7088 20.08 97.1288 19.96 97.4588 19.78L97.7588 20.68ZM92.1188 19.51V14.68C91.5488 15.01 90.6488 15.46 90.0188 15.79C88.9688 16.27 88.3688 16.84 88.3688 17.92C88.3688 19.6 89.5688 20.26 90.3488 20.26C90.9188 20.26 91.6088 19.96 92.1188 19.51ZM112.695 8.62L112.845 8.89C112.635 9.37 112.035 10.3 111.525 10.6L109.755 10.48C110.265 11.11 110.595 11.92 110.595 13C110.595 16.21 107.805 17.8 104.925 17.8C104.385 17.8 103.845 17.71 103.395 17.65C103.095 17.89 102.765 18.28 102.765 18.64C102.765 19.21 103.305 19.84 104.715 19.84C105.765 19.84 106.725 19.78 107.745 19.78C109.605 19.78 112.335 20.29 112.335 23.47C112.335 26.77 108.405 29.65 104.355 29.65C100.605 29.65 98.8055 27.64 98.7755 25.93C98.7755 25.24 99.1355 24.67 99.6755 24.22C100.365 23.59 101.325 22.96 102.075 22.45C100.845 22.06 100.185 21.46 99.7655 20.77C99.4655 20.29 99.3455 19.63 99.3755 19.3C100.785 18.73 101.775 17.92 102.315 17.35C100.635 16.72 99.4655 15.25 99.4655 13.3C99.4655 9.82 102.615 8.23 105.195 8.23H105.225C106.365 8.23 107.325 8.5 108.345 9.04C109.935 8.98 111.555 8.77 112.695 8.62ZM104.955 9.28H104.925C103.875 9.28 102.825 10.48 102.825 12.76C102.825 15.01 103.725 16.72 105.285 16.72C106.545 16.72 107.445 15.52 107.445 13.18C107.445 11.08 106.575 9.28 104.955 9.28ZM105.405 22.54H105.375C103.905 22.54 103.245 22.69 102.735 23.2C102.135 23.74 101.745 24.34 101.745 25.09C101.745 26.62 103.365 28 105.735 28C108.285 28 109.725 26.65 109.725 24.91C109.725 23.86 109.095 23.14 108.165 22.84C107.355 22.6 106.575 22.54 105.405 22.54ZM126.77 20.68L123.71 22.36C123.02 22.36 122.39 22.09 122 21.76C121.58 21.37 121.37 20.92 121.25 20.5C120.05 21.34 118.61 22.36 117.86 22.36C115.43 22.36 113.93 20.41 113.93 18.52C113.93 16.99 114.68 16.15 116.33 15.58C118.19 14.95 120.44 14.14 121.13 13.57V12.88C121.13 10.81 120.29 9.67 118.97 9.67C118.49 9.67 118.13 9.85 117.8 10.21C117.44 10.63 117.17 11.35 116.9 12.28C116.72 13 116.33 13.21 115.76 13.21C115.07 13.21 114.14 12.52 114.14 11.74C114.14 11.26 114.5 10.9 115.13 10.39C116.18 9.67 118.31 8.56 120.05 8.23C121.13 8.23 122.06 8.47 122.81 9.1C124.07 10.03 124.37 11.35 124.37 13.03V18.25C124.37 19.66 124.85 20.08 125.36 20.08C125.72 20.08 126.14 19.96 126.47 19.78L126.77 20.68ZM121.13 19.51V14.68C120.56 15.01 119.66 15.46 119.03 15.79C117.98 16.27 117.38 16.84 117.38 17.92C117.38 19.6 118.58 20.26 119.36 20.26C119.93 20.26 120.62 19.96 121.13 19.51ZM139.334 17.5L140.174 17.92C139.664 19.42 139.154 20.95 138.764 22H128.144L127.814 21.52C130.394 17.59 132.644 13.9 135.074 9.82C134.324 9.82 133.574 9.82 133.004 9.82C130.874 9.82 130.274 10.24 129.344 11.98L128.864 12.94L127.994 12.55C128.444 11.2 128.894 9.28 129.194 7.93H129.824C130.034 8.41 130.484 8.59 131.654 8.59H139.004L139.244 9.04C136.844 13 134.594 16.69 132.194 20.77H134.594C136.844 20.77 137.684 20.26 138.884 18.31L139.334 17.5ZM144.923 5.98C143.933 5.98 143.033 5.11 143.033 4.09C143.033 3.01 143.933 2.17 144.953 2.17C146.033 2.17 146.873 3.01 146.873 4.09C146.873 5.11 146.033 5.98 144.923 5.98ZM148.883 22H141.443V21.1C143.303 20.89 143.513 20.74 143.513 18.58V12.49C143.513 10.54 143.333 10.42 141.743 10.18V9.34C143.453 9.13 145.253 8.71 146.813 8.2V18.58C146.813 20.68 146.963 20.86 148.883 21.1V22ZM165.983 22H159.173V21.1C160.673 20.89 160.853 20.74 160.853 18.55V13.48C160.853 11.35 159.893 10.36 158.423 10.36C157.463 10.36 156.563 10.9 155.693 11.59V18.79C155.693 20.77 155.873 20.89 157.373 21.1V22H150.263V21.1C152.243 20.83 152.393 20.74 152.393 18.7V12.46C152.393 10.57 152.213 10.45 150.683 10.15V9.37C152.243 9.13 154.043 8.68 155.693 8.14V10.48C156.293 10.09 156.953 9.58 157.673 9.13C158.603 8.53 159.263 8.23 160.133 8.23C162.563 8.23 164.123 10 164.123 13.06V18.79C164.123 20.77 164.303 20.86 165.983 21.1V22ZM178.741 18.43L179.251 19.15C177.361 21.79 175.081 22.36 173.941 22.36C170.011 22.36 167.731 19.36 167.731 15.85C167.731 13.66 168.601 11.77 169.891 10.45C171.211 9.07 172.921 8.23 174.541 8.23H174.571C177.271 8.23 179.401 10.57 179.371 13.03C179.371 13.63 179.191 13.96 178.591 14.08C178.051 14.14 174.241 14.44 170.971 14.56C171.061 18.19 173.101 19.87 175.291 19.87C176.491 19.87 177.661 19.42 178.741 18.43ZM173.881 9.43H173.821C172.591 9.43 171.421 10.72 171.091 13.21C172.561 13.21 173.941 13.18 175.411 13.12C175.921 13.12 176.101 13 176.101 12.52C176.101 10.96 175.261 9.43 173.881 9.43Z" fill="#503C3B"/>
</svg>
