<svg width="13" height="14" viewBox="0 0 13 14" fill="none" xmlns="http://www.w3.org/2000/svg">
<g clip-path="url(#clip0_385_1516)">
<path fill-rule="evenodd" clip-rule="evenodd" d="M6.5 0.5L8.11835 1.56628L10.0503 1.55337L10.8412 3.33449L12.4734 4.37905L12.1858 6.30951L13 8.07991L11.7252 9.5468L11.4629 11.4809L9.6056 12.0185L8.35009 13.5023L6.5 12.94L4.64991 13.5023L3.3944 12.0185L1.53711 11.4809L1.27481 9.5468L0 8.07991L0.814177 6.30951L0.526591 4.37905L2.15875 3.33449L2.9497 1.55337L4.88165 1.56628L6.5 0.5ZM8.21892 5.16977L5.63331 7.94373L4.781 7.02934C4.58207 6.81592 4.24959 6.80586 4.03838 7.00687C3.82717 7.20788 3.81721 7.54384 4.01614 7.75726L5.25088 9.08193C5.45828 9.30445 5.80833 9.30445 6.01573 9.08193L8.98378 5.8977C9.18271 5.68428 9.17275 5.34832 8.96154 5.1473C8.75033 4.94629 8.41785 4.95635 8.21892 5.16977Z" fill="#3897F0"/>
</g>
<defs>
<clipPath id="clip0_385_1516">
<rect width="13" height="13" fill="white" transform="translate(0 0.5)"/>
</clipPath>
</defs>
</svg>
