<svg width="31" height="52" viewBox="0 0 31 52" fill="none" xmlns="http://www.w3.org/2000/svg">
<g clip-path="url(#clip0_556_924)">
<path d="M8.24521 43.08H8.61721C8.85721 43.08 9.08921 43.06 9.31321 43.02C9.54521 42.972 9.74921 42.896 9.92521 42.792C10.1012 42.68 10.2412 42.532 10.3452 42.348C10.4572 42.164 10.5132 41.936 10.5132 41.664C10.5132 41.448 10.4732 41.256 10.3932 41.088C10.3132 40.912 10.2012 40.764 10.0572 40.644C9.92121 40.524 9.76121 40.432 9.57721 40.368C9.40121 40.296 9.21321 40.26 9.01321 40.26C8.65321 40.26 8.34521 40.352 8.08921 40.536C7.84121 40.72 7.65321 40.976 7.52521 41.304L6.46921 40.932C6.67721 40.42 7.00921 40.02 7.46521 39.732C7.92921 39.436 8.46121 39.288 9.06121 39.288C9.41321 39.288 9.74521 39.34 10.0572 39.444C10.3772 39.54 10.6572 39.684 10.8972 39.876C11.1372 40.068 11.3252 40.308 11.4612 40.596C11.6052 40.884 11.6772 41.216 11.6772 41.592C11.6772 41.832 11.6372 42.056 11.5572 42.264C11.4852 42.472 11.3812 42.66 11.2452 42.828C11.1172 42.996 10.9612 43.14 10.7772 43.26C10.5932 43.38 10.3932 43.468 10.1772 43.524V43.548C10.4252 43.596 10.6532 43.68 10.8612 43.8C11.0772 43.92 11.2612 44.072 11.4132 44.256C11.5652 44.432 11.6852 44.636 11.7732 44.868C11.8612 45.1 11.9052 45.352 11.9052 45.624C11.9052 46.048 11.8252 46.424 11.6652 46.752C11.5052 47.072 11.2932 47.34 11.0292 47.556C10.7652 47.772 10.4612 47.936 10.1172 48.048C9.77321 48.16 9.42121 48.216 9.06121 48.216C8.38921 48.216 7.79721 48.064 7.28521 47.76C6.77321 47.456 6.40121 46.984 6.16921 46.344L7.24921 45.984C7.37721 46.352 7.59321 46.652 7.89721 46.884C8.20921 47.116 8.58921 47.232 9.03721 47.232C9.25321 47.232 9.46121 47.2 9.66121 47.136C9.86921 47.064 10.0532 46.96 10.2132 46.824C10.3732 46.688 10.5012 46.52 10.5972 46.32C10.6932 46.12 10.7412 45.884 10.7412 45.612C10.7412 45.316 10.6772 45.068 10.5492 44.868C10.4212 44.668 10.2532 44.508 10.0452 44.388C9.84521 44.26 9.61721 44.172 9.36121 44.124C9.10521 44.068 8.85321 44.04 8.60521 44.04H8.24521V43.08ZM16.0076 39.288C16.5116 39.288 16.9436 39.404 17.3036 39.636C17.6716 39.868 17.9716 40.188 18.2036 40.596C18.4436 40.996 18.6196 41.468 18.7316 42.012C18.8436 42.556 18.8996 43.136 18.8996 43.752C18.8996 44.376 18.8436 44.96 18.7316 45.504C18.6196 46.04 18.4436 46.512 18.2036 46.92C17.9716 47.32 17.6716 47.636 17.3036 47.868C16.9436 48.1 16.5116 48.216 16.0076 48.216C15.5036 48.216 15.0676 48.1 14.6996 47.868C14.3316 47.636 14.0276 47.32 13.7876 46.92C13.5556 46.512 13.3836 46.04 13.2716 45.504C13.1596 44.96 13.1036 44.376 13.1036 43.752C13.1036 43.136 13.1596 42.556 13.2716 42.012C13.3836 41.468 13.5556 40.996 13.7876 40.596C14.0276 40.188 14.3316 39.868 14.6996 39.636C15.0676 39.404 15.5036 39.288 16.0076 39.288ZM16.0076 40.26C15.6556 40.26 15.3676 40.376 15.1436 40.608C14.9196 40.832 14.7436 41.12 14.6156 41.472C14.4956 41.816 14.4116 42.192 14.3636 42.6C14.3156 43.008 14.2916 43.392 14.2916 43.752C14.2916 44.112 14.3156 44.496 14.3636 44.904C14.4116 45.312 14.4956 45.688 14.6156 46.032C14.7436 46.376 14.9196 46.664 15.1436 46.896C15.3676 47.12 15.6556 47.232 16.0076 47.232C16.3516 47.232 16.6316 47.12 16.8476 46.896C17.0716 46.664 17.2476 46.376 17.3756 46.032C17.5036 45.688 17.5916 45.312 17.6396 44.904C17.6876 44.496 17.7116 44.112 17.7116 43.752C17.7116 43.392 17.6876 43.008 17.6396 42.6C17.5916 42.192 17.5036 41.816 17.3756 41.472C17.2476 41.12 17.0716 40.832 16.8476 40.608C16.6316 40.376 16.3516 40.26 16.0076 40.26ZM25.0541 40.536H21.5501L21.4781 42.768C21.6381 42.712 21.8141 42.672 22.0061 42.648C22.2061 42.624 22.3941 42.612 22.5701 42.612C22.9781 42.612 23.3541 42.676 23.6981 42.804C24.0501 42.924 24.3501 43.1 24.5981 43.332C24.8541 43.564 25.0541 43.848 25.1981 44.184C25.3421 44.512 25.4141 44.88 25.4141 45.288C25.4141 45.736 25.3381 46.14 25.1861 46.5C25.0341 46.86 24.8261 47.168 24.5621 47.424C24.2981 47.672 23.9861 47.864 23.6261 48C23.2661 48.144 22.8741 48.216 22.4501 48.216C21.7861 48.216 21.2261 48.064 20.7701 47.76C20.3141 47.448 19.9701 47.032 19.7381 46.512L20.7941 46.092C20.9301 46.436 21.1421 46.712 21.4301 46.92C21.7261 47.128 22.0661 47.232 22.4501 47.232C22.6981 47.232 22.9301 47.188 23.1461 47.1C23.3621 47.012 23.5501 46.888 23.7101 46.728C23.8701 46.568 23.9941 46.376 24.0821 46.152C24.1781 45.928 24.2261 45.68 24.2261 45.408C24.2261 45.088 24.1701 44.812 24.0581 44.58C23.9541 44.34 23.8101 44.144 23.6261 43.992C23.4421 43.84 23.2301 43.728 22.9901 43.656C22.7501 43.584 22.4981 43.548 22.2341 43.548C21.9141 43.548 21.5861 43.592 21.2501 43.68C20.9141 43.768 20.6141 43.88 20.3501 44.016L20.4701 39.504H25.0541V40.536Z" fill="white"/>
<path fill-rule="evenodd" clip-rule="evenodd" d="M15.4469 0C21.2271 3.65666 26.4492 5.38607 30.9302 4.97778C31.7132 20.7762 25.8671 30.1063 15.5068 34C5.50169 30.3553 -0.416216 21.4268 0.0228373 4.73745C5.28349 5.0123 10.445 3.87773 15.4469 0ZM12.6769 16.7212C13.0279 17.0183 13.3591 17.3381 13.6681 17.6785C14.6367 16.1223 15.6698 14.6937 16.7601 13.3799C19.8441 9.66279 18.4464 10.3791 22.7239 10.3791L22.1298 11.0383C20.3031 13.0632 19.6871 14.1181 18.1897 16.2764C16.6922 18.4373 15.3538 20.6673 14.1624 22.9623L13.7925 23.676L13.4519 22.9497C12.8239 21.6034 12.0709 20.3685 11.1741 19.2645C10.2767 18.1605 9.49308 17.4408 8.27637 16.6076C8.83384 14.7813 11.4875 15.7161 12.6769 16.7212ZM15.4569 2.63162C20.2506 5.66357 24.852 7.36841 28.568 7.02917C29.2172 20.1309 24.0983 28.1386 15.5075 31.3677C7.20934 28.3457 2.03117 20.6713 2.39506 6.83067C7.21001 7.08228 11.6225 5.60448 15.4569 2.63162Z" fill="white"/>
</g>
<defs>
<clipPath id="clip0_556_924">
<rect width="31" height="52" fill="white"/>
</clipPath>
</defs>
</svg>
