<svg width="86" height="86" viewBox="0 0 86 86" fill="none" xmlns="http://www.w3.org/2000/svg">
<rect width="86" height="86" rx="43" fill="#EEEEEE"/>
<path d="M14.7244 37.8182L17.1854 45.554H17.2798L19.7457 37.8182H22.1321L18.6222 48H15.848L12.3331 37.8182H14.7244ZM23.3576 37.8182H26.0124L28.8164 44.6591H28.9357L31.7397 37.8182H34.3945V48H32.3065V41.3729H32.2219L29.587 47.9503H28.1651L25.5302 41.348H25.4457V48H23.3576V37.8182ZM45.5247 42.9091C45.5247 44.0194 45.3142 44.964 44.8933 45.7429C44.4757 46.5218 43.9056 47.1167 43.1831 47.5277C42.4638 47.9354 41.6551 48.1392 40.7569 48.1392C39.8521 48.1392 39.0401 47.9337 38.3208 47.5227C37.6016 47.1117 37.0332 46.5168 36.6156 45.7379C36.198 44.959 35.9892 44.0161 35.9892 42.9091C35.9892 41.7988 36.198 40.8542 36.6156 40.0753C37.0332 39.2964 37.6016 38.7031 38.3208 38.2955C39.0401 37.8845 39.8521 37.679 40.7569 37.679C41.6551 37.679 42.4638 37.8845 43.1831 38.2955C43.9056 38.7031 44.4757 39.2964 44.8933 40.0753C45.3142 40.8542 45.5247 41.7988 45.5247 42.9091ZM43.3422 42.9091C43.3422 42.1899 43.2344 41.5833 43.019 41.0895C42.8069 40.5956 42.5069 40.2211 42.1191 39.9659C41.7314 39.7107 41.2773 39.5831 40.7569 39.5831C40.2366 39.5831 39.7825 39.7107 39.3947 39.9659C39.0069 40.2211 38.7053 40.5956 38.4899 41.0895C38.2778 41.5833 38.1717 42.1899 38.1717 42.9091C38.1717 43.6283 38.2778 44.2348 38.4899 44.7287C38.7053 45.2225 39.0069 45.5971 39.3947 45.8523C39.7825 46.1075 40.2366 46.2351 40.7569 46.2351C41.2773 46.2351 41.7314 46.1075 42.1191 45.8523C42.5069 45.5971 42.8069 45.2225 43.019 44.7287C43.2344 44.2348 43.3422 43.6283 43.3422 42.9091ZM50.7287 48H47.1193V37.8182H50.7585C51.7827 37.8182 52.6643 38.022 53.4034 38.4297C54.1425 38.834 54.7109 39.4157 55.1087 40.1747C55.5097 40.9337 55.7102 41.8419 55.7102 42.8991C55.7102 43.9598 55.5097 44.8712 55.1087 45.6335C54.7109 46.3958 54.1392 46.9808 53.3935 47.3885C52.651 47.7962 51.7628 48 50.7287 48ZM49.272 46.1555H50.6392C51.2756 46.1555 51.8108 46.0429 52.245 45.8175C52.6825 45.5888 53.0107 45.2358 53.2294 44.7585C53.4515 44.2779 53.5625 43.6581 53.5625 42.8991C53.5625 42.1468 53.4515 41.532 53.2294 41.0547C53.0107 40.5774 52.6842 40.2261 52.25 40.0007C51.8158 39.7753 51.2805 39.6626 50.6442 39.6626H49.272V46.1555ZM57.3049 48V37.8182H64.1657V39.593H59.4576V42.0192H63.8127V43.794H59.4576V46.2251H64.1855V48H57.3049ZM65.8771 48V37.8182H68.0298V46.2251H72.3949V48H65.8771Z" fill="white"/>
</svg>
