<svg width="14" height="12" viewBox="0 0 14 12" fill="none" xmlns="http://www.w3.org/2000/svg">
<path d="M13.2789 8.8059C13.1109 10.6749 11.7599 11.8999 9.79989 11.8999H3.49996C1.56798 11.8999 0 10.3319 0 8.39991V3.49996C0 1.59598 1.14799 0.265997 2.93297 0.0419995C3.11497 0.0139998 3.30396 0 3.49996 0H9.79989C9.98189 0 10.1569 0.00699989 10.3249 0.0349996C11.9979 0.230997 13.1319 1.39998 13.2789 3.09397C13.2999 3.29696 13.1319 3.46496 12.9289 3.46496H11.8439C11.1719 3.46496 10.5489 3.72396 10.1009 4.18595C9.5689 4.70395 9.3029 5.43194 9.3659 6.15993C9.4779 7.43392 10.5979 8.43491 11.9279 8.43491H12.9289C13.1319 8.43491 13.2999 8.60291 13.2789 8.8059Z" fill="#503C3B"/>
<path d="M14.0005 5.22864V6.67062C14.0005 7.05562 13.6925 7.37062 13.3005 7.38462H11.9285C11.1725 7.38462 10.4795 6.83162 10.4165 6.07563C10.3745 5.63464 10.5425 5.22164 10.8365 4.93464C11.0955 4.66865 11.4525 4.51465 11.8445 4.51465H13.3005C13.6925 4.52865 14.0005 4.84365 14.0005 5.22864Z" fill="#503C3B"/>
</svg>
