<svg width="18" height="18" viewBox="0 0 18 18" fill="none" xmlns="http://www.w3.org/2000/svg">
<path d="M12.4917 0.666656H5.50833C2.475 0.666656 0.666664 2.47499 0.666664 5.50832V12.4833C0.666664 15.525 2.475 17.3333 5.50833 17.3333H12.4833C15.5167 17.3333 17.325 15.525 17.325 12.4917V5.50832C17.3333 2.47499 15.525 0.666656 12.4917 0.666656ZM4.625 10.7833C4.625 11.125 4.34166 11.4083 4 11.4083C3.65833 11.4083 3.375 11.125 3.375 10.7833V7.21666C3.375 6.87499 3.65833 6.59166 4 6.59166C4.34166 6.59166 4.625 6.87499 4.625 7.21666V10.7833ZM7.125 11.975C7.125 12.3167 6.84166 12.6 6.5 12.6C6.15833 12.6 5.875 12.3167 5.875 11.975V6.02499C5.875 5.68332 6.15833 5.39999 6.5 5.39999C6.84166 5.39999 7.125 5.68332 7.125 6.02499V11.975ZM9.625 13.1667C9.625 13.5083 9.34166 13.7917 9 13.7917C8.65833 13.7917 8.375 13.5083 8.375 13.1667V4.83332C8.375 4.49166 8.65833 4.20832 9 4.20832C9.34166 4.20832 9.625 4.49166 9.625 4.83332V13.1667ZM12.125 11.975C12.125 12.3167 11.8417 12.6 11.5 12.6C11.1583 12.6 10.875 12.3167 10.875 11.975V6.02499C10.875 5.68332 11.1583 5.39999 11.5 5.39999C11.8417 5.39999 12.125 5.68332 12.125 6.02499V11.975ZM14.625 10.7833C14.625 11.125 14.3417 11.4083 14 11.4083C13.6583 11.4083 13.375 11.125 13.375 10.7833V7.21666C13.375 6.87499 13.6583 6.59166 14 6.59166C14.3417 6.59166 14.625 6.87499 14.625 7.21666V10.7833Z" fill="white"/>
</svg>
