<svg width="60" height="60" viewBox="0 0 60 60" fill="none" xmlns="http://www.w3.org/2000/svg">
<g clip-path="url(#clip0_1236_17034)">
<path fill-rule="evenodd" clip-rule="evenodd" d="M30 0C35.9334 0 41.7336 1.75947 46.6671 5.05591C51.6006 8.35235 55.4458 13.0377 57.7164 18.5195C59.987 24.0013 60.5811 30.0333 59.4236 35.8527C58.266 41.6721 55.4088 47.0176 51.2132 51.2132C47.0176 55.4088 41.6721 58.266 35.8527 59.4236C30.0333 60.5811 24.0013 59.987 18.5195 57.7164C13.0377 55.4458 8.35235 51.6006 5.05591 46.6671C1.75947 41.7336 0 35.9334 0 30C0 22.0435 3.16071 14.4129 8.7868 8.7868C14.4129 3.16071 22.0435 0 30 0Z" fill="#25D366"/>
<path fill-rule="evenodd" clip-rule="evenodd" d="M37.5977 32.9933C37.2266 32.8029 35.3906 31.9044 35.0488 31.7775C34.707 31.6505 34.4629 31.5919 34.209 31.9679C33.9551 32.3439 33.2324 33.1788 33.0225 33.4327C32.8125 33.6866 32.5879 33.7159 32.2168 33.5255C31.1175 33.0854 30.1031 32.4575 29.2188 31.67C28.4029 30.9153 27.7021 30.045 27.1387 29.087C27.0968 29.0266 27.0678 28.9581 27.0535 28.886C27.0392 28.8139 27.0398 28.7396 27.0554 28.6677C27.071 28.5959 27.1011 28.5279 27.144 28.4682C27.1869 28.4085 27.2416 28.3582 27.3047 28.3204C27.4756 28.1544 27.6758 27.8859 27.8662 27.6661C28.0185 27.4761 28.1434 27.2658 28.2373 27.0411C28.2863 26.938 28.3092 26.8244 28.3041 26.7103C28.299 26.5963 28.266 26.4852 28.208 26.3868C28.1104 26.2013 27.3633 24.3654 27.0605 23.6134C26.7578 22.8614 26.4453 22.9884 26.2158 22.9737C25.9863 22.9591 25.752 22.9737 25.5029 22.9737C25.3155 22.9843 25.1321 23.033 24.9642 23.117C24.7962 23.2009 24.6473 23.3184 24.5264 23.462C24.1039 23.862 23.7694 24.3455 23.5441 24.8819C23.3188 25.4182 23.2077 25.9956 23.2178 26.5773C23.2178 28.4132 24.5557 30.1857 24.7412 30.4396C24.9268 30.6935 27.3438 34.4337 31.1035 36.045C31.7976 36.3447 32.5065 36.6087 33.2275 36.8361C33.9882 37.0676 34.7926 37.1177 35.5762 36.9825C36.2939 36.88 37.7832 36.0841 38.0957 35.2101C38.3406 34.6534 38.417 34.0372 38.3154 33.4376C38.2275 33.2716 37.9785 33.1788 37.6025 32.9884L37.5977 32.9933ZM41.3574 19.3214C38.7953 16.763 35.391 15.2224 31.778 14.9862C28.1649 14.75 24.589 15.8342 21.7156 18.0372C18.8421 20.2402 16.8667 23.412 16.1568 26.9625C15.447 30.513 16.0509 34.2005 17.8564 37.339L15.7373 45.0685L23.6572 42.9933C25.8451 44.1832 28.2956 44.8076 30.7861 44.8097C33.7407 44.8106 36.6291 43.9352 39.0861 42.2943C41.543 40.6535 43.4582 38.3208 44.5893 35.5913C45.7203 32.8619 46.0166 29.8583 45.4404 26.9605C44.8643 24.0627 43.4417 21.4008 41.3525 19.3116L41.3574 19.3214ZM30.7959 42.2902C28.5632 42.2945 26.3705 41.6974 24.4482 40.5616L23.9941 40.2882L19.3213 41.504L20.5762 36.9239L20.2832 36.4357C18.8309 34.1006 18.1955 31.3492 18.4768 28.6137C18.7581 25.8783 19.9402 23.3138 21.8373 21.3232C23.7345 19.3325 26.2392 18.0285 28.9579 17.6161C31.6767 17.2036 34.4555 17.7061 36.8577 19.0445C39.2598 20.3829 41.1493 22.4814 42.2293 25.0103C43.3092 27.5392 43.5184 30.3553 42.824 33.016C42.1296 35.6768 40.571 38.0315 38.3929 39.7101C36.2149 41.3888 33.5409 42.2963 30.791 42.2902H30.7959Z" fill="white"/>
</g>
<defs>
<clipPath id="clip0_1236_17034">
<rect width="60" height="60" fill="white"/>
</clipPath>
</defs>
</svg>
